<svg viewBox="0 0 22 19" xmlns="http://www.w3.org/2000/svg">
  <path d="M7.5.2c-.5.1-1 .5-1 1l-.1.3-.3.8V3c.2.2.3.5.3.9l.1 1.3.1 1.4v.3H5.5L3.3 7l-2.2.2a1.3 1.3 0 00-1 1.9l1 1.4.5.7c.1.3.3.5.6.7l1 .2.8-.1H4c.4.2.8.2 1.2 0l.5-.1.6-.1h.4v.5a8.5 8.5 0 000 2v.6a3.9 3.9 0 000 1.6l.2.7c0 .3.3.6.5.8l1.4.6c.3.1.5.1.8 0a2 2 0 001-.6l.1-.3a1.3 1.3 0 001.4-.8c.3-.7.4-1.3.4-1.8V14c0-.4-.2-.8-.5-1v-.5-.9-.2h.2c.5 0 1-.1 1.4-.3a48.9 48.9 0 005.7 0c.5 0 .9-.2 1.1-.5l.3-.3c.4-.2.7-.6 1-1 .2-.4.2-.9 0-1.3-.3-.5-.7-.9-1.3-1.1l-.8-.4c-.3-.2-.7-.2-1 0h-1.8c-.5-.2-1-.2-1.5-.2h-.7l-.2.1h-.2l-.3.1a15 15 0 01-2 0v-.8-1.3a2.5 2.5 0 00-.2-1v-.1a7 7 0 01-.2-.6V2.1c0-.3-.1-.5-.3-.7-.1-.1-.3-.4-.7-.6A8.6 8.6 0 009.3.2L8.5 0a2 2 0 00-1 .2zm13.1 8.4c-.1.3-.3.5-.5.6l-.6.6a5 5 0 01-.7-.1l-.7-.1h-.5l-.5.4-1.9-.2h-1.8l-1.2.3-1.2.2a302.4 302.4 0 00-.2 2.2v.8c.1.3.3.5.5.6v1.3c0 .3 0 .7-.3 1.2l-.2-.1a.5.5 0 00-.6.1l-.3.4-.3.3c0 .2-.2.2-.3.3l-1-.5a22.8 22.8 0 01-.2-1.3l.1-.8a3.4 3.4 0 01-.2-1.4v-1A7.5 7.5 0 008 11v-.5H7a14.5 14.5 0 00-1.6.2l-.8.3c-.1-.2-.3-.2-.6-.2a2 2 0 00-.4 0 2 2 0 01-.4 0h-.6L2 9.6l-.7-1 2-.3h2.1L7 8.1h.5l.2-.2.3-.2V6.5L7.7 5a19.3 19.3 0 00-.4-2.6l.1-.5.2-.5.4-.1.4-.1.3.1a8.1 8.1 0 011.5.8V3a8.3 8.3 0 00.4 1.2v1.4a7 7 0 000 1.5v.6l.3.1.1.2 1.5-.2h1.9a3.1 3.1 0 00.6-.2h.3l1.2.1 1.3.1 1.2-.1.9.3.6.6zM4.1 12z" fill="#fff"/>
</svg>
