<svg xmlns="http://www.w3.org/2000/svg" viewBox="0 0 977 1000">
  <path fill="hsl(212, 10%, 18%)" fill-rule="nonzero" d="M7 1000a237 237 0 0131-25c1-2 14-5 18-5 3 0 7 1 10 3l6 2 3-3c4-3 3-5-3-8-4-2-6-2-13-2-8 0-9 0-16 3-9 4-28 18-36 25-6 7-7 7-7 3 0-2 2-4 12-12 23-19 35-25 47-25 6 0 15 3 19 7 3 3 6 3 8 0 1-1 1-2-3-6-6-6-15-10-22-10-14 0-33 10-50 25-11 10-13 10-10 2v-5c-3-3-1-5 6-9 17-9 37-25 49-39 10-13 14-23 12-37 0-6-1-9-3-12-4-6-19-21-26-26-8-4-12-9-13-14-2-6 0-9 5-12 4-2 5-2 11-1 16 3 28 12 41 32 9 13 12 20 12 28 0 5 1 5 4 7 5 2 6 1 7-3 3-8-2-18-14-31-4-5-12-12-17-15l-14-15c-7-8-17-16-24-19-8-4-23 0-26 7-5 10-3 20 5 30 5 6 10 10 24 21 10 6 15 16 17 28 1 18-12 36-45 59-13 9-12 8-12 6l5-5 11-7c2-3 8-7 11-9 25-21 32-40 21-60-3-4-7-7-19-16-15-10-24-24-24-35 0-9 0-10 4-14l4-5c0-2-5 1-9 5l-4 4v-4l1-6 2-1H1l-1-3c0-2 0-3 6-4 9-3 15-7 24-14 10-9 25-17 35-20 6-2 8-3 12-7l4-4-4 1a94 94 0 00-42 20l-18 12-17 6v-2c0-2 1-3 4-4 8-2 26-12 34-18l18-11c10-5 13-6 20-7s9-2 12-4l2-3H72c-10 2-24 9-32 16-9 8-18 14-23 17l-16 6c-2-2-1-5 2-6l5-2c1 0 25-15 32-21l26-13 18-2c12 0 13 0 15-2l2-2-4-1c-5-1-23-1-29 1-9 2-23 10-32 17a265 265 0 01-33 19c-3 1-3 1-3-2 0-2 1-3 6-4l26-16c6-4 11-11 11-13 0-7 0-10-3-14-6-9-17-15-31-18-8-1-9-1-9-4 0-2-1-2 11 0 16 3 29 10 33 19 2 3 4 15 3 18l4-1c7-2 8-7 3-16-4-8-12-16-19-20a87 87 0 00-28-9c-7-1-7-1-7-4s1-4 8-9l13-10c11-8 32-20 40-22 5-2 8-2 13-1l9 2c3 1 8 6 10 10h3c3-1 3-2 0-9-1-3-9-9-14-10-7-2-17-1-26 3s-11 5-40 24L0 670v-4l1-5c2-2 2-3 0-3l-1-2c0-2 1-2 6-1 4 1 9 0 7-2-1-2-6-4-9-4s-4-1-4-3c0-4 2-4 11 1 7 3 8 4 10 3 3-1 2-3-4-8-3-3-12-7-16-7l-1-2 5-1c7 1 11 3 17 9l5 5 3-3 3-2-5-5c-7-6-16-11-23-12-4 0-5-1-5-3s0-2 5-1l10 2c8 2 33 0 43-4a341 341 0 0079-48c21-16 49-29 67-29 12 0 22 4 31 12l13 18c1 4 3 4 7 0 5-3 5-3-1-13-9-18-24-27-45-27s-44 9-68 24a957 957 0 01-77 48l-12 4a123 123 0 01-42 8l-10-1c0-2 2-2 4-3a167 167 0 0047-8 285 285 0 0068-37 458 458 0 0166-37c6-2 29-3 36-2 11 2 25 11 32 19 4 5 8 14 8 17s2 3 6 0l4-2-3-6c-6-15-9-18-27-32-7-6-14-8-28-9-12 0-19 1-30 5a251 251 0 00-63 35l-12 9-14 11a2198 2198 0 00-26 13l-12 6c-14 5-36 10-50 10H0v-4c0-3 1-4 4-8 6-5 10-14 11-24 0-6 0-8-3-13l-8-11c-3-3-4-4-4-6 1-2 1-2 7 4l10 13c2 5 2 7 2 15 0 13-3 20-12 27l-5 3h4l8-4c9-4 16-16 16-27 0-14-9-30-23-40-7-5-9-8-6-8 2 0 11 6 18 12 10 9 16 25 14 40 0 7-5 18-9 22s-4 4 0 3c6-1 17-23 17-35 0-5-2-15-5-20-5-10-25-27-33-28-3-1-3-1-3-5s0-5 7-10a318 318 0 0025-20l6-4c2-2 10-4 16-5 5 0 7 0 12 2l6 3 3-3c4-3 3-5-3-8-4-2-6-2-13-2-8 0-9 0-16 3-9 4-28 18-36 25-6 7-7 7-7 3 0-2 2-4 12-12 23-19 35-25 47-25 6 0 15 3 19 7 3 3 6 3 8 0 1-1 1-2-3-6-6-6-15-10-22-10-14 0-33 10-51 25-10 10-12 10-9 2v-5c-3-3-1-5 7-10a162 162 0 0056-51c4-8 5-15 4-24 0-6-1-9-3-12-4-6-19-21-26-26-8-4-12-9-13-14-2-6 0-9 5-12 4-2 5-2 11-1 16 3 28 12 41 32 9 13 12 21 12 28 0 5 0 5 3 7 6 2 7 1 8-3 3-8-2-18-14-31l-16-15-15-15c-7-8-17-16-24-19-8-4-23 0-26 7-5 10-3 20 4 30 6 7 10 10 24 20 11 7 16 16 18 29 1 18-12 36-45 59-13 9-12 8-12 6l5-5 11-7c2-3 8-7 11-9 11-9 18-17 22-25 3-7 3-8 3-16 0-7 0-9-2-14-4-8-7-11-19-20-18-12-26-24-26-38 0-6 0-7 3-11l4-5 1-1c0-2-4 1-9 5l-4 4v-4l1-6 2-1H1l-1-3c0-2 0-3 6-4 9-3 15-7 24-14 10-9 25-17 35-20 6-2 8-3 12-7l4-4-4 1a94 94 0 00-42 20l-18 12-17 6v-2c0-2 1-3 4-4 8-2 26-12 34-18l18-11c10-5 13-6 20-7s9-2 12-4l2-3H72c-9 2-24 9-30 14-12 10-22 17-30 21-10 5-12 5-12 2 0-2 1-3 3-4l5-2c1 0 25-15 32-21l26-13 18-2c12 0 13 0 15-2l2-2-4-1c-5-1-24-1-30 1-9 3-22 10-31 17a265 265 0 01-33 19c-3 1-3 1-3-2 0-2 1-3 6-4 6-2 18-10 26-16 6-4 11-11 11-13 0-7 0-10-3-14-6-9-17-15-31-18-8-1-9-1-9-4 0-2-1-2 11 0 16 3 29 10 33 19 2 3 4 15 3 18l4-1c7-2 8-7 3-16-4-9-12-17-21-21-8-4-10-4-25-8-8-1-8-1-8-4s1-4 8-9l13-10c11-8 32-20 40-22 5-2 8-2 13-1l9 2c3 1 8 6 10 10h3c3-1 3-2 0-9-1-3-9-9-14-10-7-2-17-1-26 3s-11 5-40 24L0 170v-4l1-5c2-2 2-3 0-3l-1-2c0-2 1-2 8-1h4c2-2 2-2-1-4l-7-3c-3 0-4-1-4-3 0-3 2-3 11 2 7 3 9 4 10 3 3-1 2-3-4-8-3-3-12-7-16-7l-1-2 5-1c7 1 11 3 17 9l5 5 3-2 3-3-5-5c-7-6-17-11-23-12-4 0-5-1-5-3s0-2 5-1l10 2c8 2 33 0 43-4a341 341 0 0079-48c21-16 49-29 67-29 12 0 22 4 31 12l13 18c1 4 3 4 7 0 5-3 5-3-1-13-6-13-16-21-29-25-9-3-24-3-37 1-17 4-31 11-50 24a1138 1138 0 01-74 45l-5 1a133 133 0 01-49 11l-10-1c0-2 3-3 16-3 13-1 21-3 32-7a274 274 0 0071-38c23-17 52-33 66-37 6-2 29-3 36-2 11 2 25 11 32 19 4 5 8 14 8 17s2 3 6 1l4-3-2-4c-5-13-7-15-15-23-16-16-22-19-40-19-13-1-18 0-32 4a251 251 0 00-59 33l-13 10-16 11-14 9a160 160 0 01-70 21H0v-4c0-3 1-4 4-8 6-5 10-15 11-24 0-6 0-8-3-13L4 43c-3-3-4-4-4-6 1-2 1-2 7 4l10 13c2 5 2 7 2 15 0 13-3 20-12 27l-5 3h4c8-2 13-6 18-12l5-11c4-16-5-36-22-48-7-5-9-8-6-8 2 0 11 6 18 12 10 9 16 25 14 40 0 6-6 18-9 22-4 4-4 4 0 3 6-1 17-23 17-35 0-5-2-15-5-20-5-10-25-27-33-28-3-1-3-1-3-5s0-5 3-7l7-2h3L8 4C4 8 3 9 5 9c1 1 7-2 15-7 5-3 11-3 17 0l4 3 2-3 7-2h3l-5 4-4 3 2 2c2 2 3 3 5 1l9-6c5-3 7-4 10-4h4l-5 5-10 8c-6 4-6 4-4 6l1 2 7-4L76 6c6-5 7-6 11-6h3l-4 4c-5 5-18 17-23 19-4 2-4 2-2 5l3 3c2 0 18-11 28-20 10-10 11-11 15-11h4a716 716 0 01-35 29l-6 4h5c4 0 6-1 12-5l11-9a607 607 0 0125-19h4l-5 5-9 7-21 18-4 3h3c6 2 17-5 29-17l12-10c7-5 8-6 12-6h4l-4 3-16 13-22 18-3 1 2 1c6 2 15-3 29-15 9-8 16-13 25-18 4-3 6-3 12-3h6l-5 2c-10 4-22 11-36 23l-13 10-7 4 2 2c4 2 10-1 21-11 16-14 25-20 33-23 4-1 10 1 12 4 1 2 2 2 6 1l5-1c2-1-3-8-7-9l-3-2h4c5 0 8 2 11 7 2 3 3 3 5 2l3-1-3-4-3-4h3c4 0 5 1 7 7 2 3 2 3 6 3l4-1-3-5-3-4h3c2 0 3 1 5 4l2 3 8-3c6-4 7-4 16-4 12 0 16 2 27 10 8 7 10 7 14 3l3-2-4-3-7-5-3-3h2c2 0 5 1 8 4 6 4 9 4 15 0 3-3 6-4 8-4 3 0 3 0-7 7a357 357 0 00-39 35l3 5 2 2c2 0 18-13 37-31 6-5 11-8 19-12l10-5 34-1 12 7 4-3c3-5 8-6 6-2l-8 10-8 8 3 2 4 3c2 0 10-8 17-17 5-6 8-8 10-8s1 1-8 12c-10 11-11 12-10 14 2 2 2 3 1 4-1 2-3 2-9 0-3 0-5 4-5 10s4 18 8 24c4 5 11 11 12 10l-4-7c-9-10-12-17-9-22 1-2 3-2 5-1v4c-2 4 0 9 5 16 5 6 10 10 11 9l-3-4c-4-5-8-13-8-17 0-2 3-7 5-7s3 3 2 5l-2 4c0 3 7 16 12 20 5 5 4 4-2-6-4-7-5-15-2-16 2 0 4 4 2 5-2 3 1 7 8 11 9 6 19 9 31 9 9 0 10 0 15-3 7-4 9-7 6-13-4-7-12-12-22-12-7 0-10 1-10 3 0 3 3 3 12 3 8 1 9 1 11 3 2 1 3 3 3 5 0 3-1 3-5 5s-6 2-14 2c-10-1-14-3-21-8l-6-4c-2 0-5-3-5-5l2-3c2-1 2-1 4 1s4 3 4 0c3-7-4-14-11-11a495 495 0 01-4 0c0-4-9-8-12-5l-1 5c1 3-2 4-3 1-2-3 0-7 4-9 3-2 21-24 25-31l3-1c2 0 1 2-9 15l-11 15 3 3c3 2 4 3 9 2 4 0 10-1 18-4 11-4 12-4 22-4 13 0 20 2 28 7 7 4 15 14 18 21 3 6 3 23 1 28-3 6-7 10-11 13l-5 3h4c9-2 13-5 17-12l6-11c4-16-5-36-21-48-8-5-9-6-20-7-15-3-25-1-56 11l-7 2 5-6 11-13c9-13 11-15 15-15h3l-4 3-3 4c1 1 18-4 20-6l6-1c3 0 3 0 2 1-3 2-1 3 2 3l5-2 5-2h3l-2 2-2 3h3c2 1 4 0 8-2l8-3 3 1-5 3c-4 4-5 4-3 5 1 1 7-1 15-7 5-3 11-3 17 0l4 3 2-3 7-2h3l-2 2c-8 6-8 5-4 7 3 3 5 2 13-5 5-3 7-4 10-4h4l-5 5-10 8c-6 4-6 4-4 6l2 2 7-5 13-10c5-5 6-6 10-6h4l-9 8-16 13c-6 4-7 5-5 6l1 3c1 3 16-7 30-20 10-9 11-10 15-10h4a716 716 0 01-35 29l-5 4h4c7 0 12-4 30-20l14-12 5-1 3 1-5 3-9 8-21 18-4 3h3c6 2 17-5 29-17l12-10c7-5 8-6 12-6h4l-4 3c-5 3-9 6-16 13l-22 18-3 1 2 1c6 2 15-2 29-15 9-8 15-12 24-17 5-4 7-4 13-4h6l-5 2c-10 4-16 7-30 19l-17 12c-9 6-9 6-6 8s9-1 20-11c16-14 24-20 33-23 4-1 9 0 12 4 2 2 2 2 6 1l6-1c1-2-4-8-8-9l-4-2h5c5 0 8 2 11 7 2 3 3 3 5 2l3-1-3-4-3-4h3c3 0 5 1 8 7 1 3 2 3 5 3l4-1-3-4c-3-5-3-5 1-5 1 0 3 1 4 4l2 3 8-3c6-4 7-4 16-4 12 0 16 2 27 10 8 7 10 7 14 3l3-3-4-2-7-5-4-3h3c2 0 5 1 7 3l7 4c3 1 4 0 8-3s7-4 9-4c3 0 3 0-7 7a381 381 0 00-38 31c-1 2-1 2 1 6l3 5c2 0 21-16 34-28 10-9 14-12 24-16l8-4 34-1 12 7 4-3c2-4 7-5 7-3l-8 10-9 8 3 3 5 3 16-16c5-7 8-9 10-9s1 1-8 12c-11 12-11 12-9 15v4h-6c-5-1-6 0-8 5-2 6 2 18 8 28 3 4 10 10 12 10l-4-6c-6-7-10-15-10-19s2-6 5-6c2 1 3 4 1 6-3 3 5 17 12 22 4 3 5 2 1-2-3-4-8-13-8-16s2-7 4-7h3v4l-2 4c0 3 7 16 12 20l4 4-5-8c-3-6-4-9-4-13l1-5c2 0 4 4 2 5-2 3 1 7 8 12 8 5 13 6 25 8 10 1 15 1 21-3 7-3 9-7 6-13-4-7-12-12-22-12-7 0-10 1-10 3s3 3 13 3c7 1 8 1 11 3l2 5c0 3-1 3-5 5s-6 2-13 1c-11 0-14-2-22-7l-6-4c-2 0-5-4-5-6l2-2c2-1 2-1 4 1s4 3 4 0c3-8-5-15-12-11l-2 1c1-2-6-7-9-7s-5 2-5 6c1 3-2 4-3 1-2-3 0-7 4-10 3-1 8-8 14-15 12-16 12-16 14-16s0 4-9 15l-11 15 4 3c3 3 3 3 6 2h5l13-3c10-4 11-4 22-5 13 0 20 1 28 6 3 2 4 3 4 5v2l-5-2c-16-9-31-9-49-2-6 2-6 3-5 5h5c2-1 8-3 13-3 8-1 9-1 18 1 12 3 23 10 23 14v3l-5-4-12-8c-8-3-8-3-19-3-8 0-12 1-16 3-3 1-5 3-5 4l-2 5-1 5c8 5 13 7 23 7 5 0 7 0 8-2 4-3 2-4-9-4-9 0-9 0-12-3s-3-3-2-5c3-4 7-6 16-5l9 1 6 2c5 2 13 9 16 13 6 12-10 29-27 28-6-1-6 0 2 3 5 2 5 2 10 0 7-3 12-6 16-10l4-4v4c0 4 0 5-4 7l-9 5-4 2 5 1c4 1 5 1 8-1l4-2v4c0 4 0 4-3 4-7 0-27-5-34-8a227 227 0 00-40-15l-17-1c-12 0-15 0-20 2-11 4-20 10-39 27a188 188 0 00-35 49 158 158 0 00-12 24l-15 22-5 5 2 3c3 2 3 2 6 0 4-2 10-8 14-14a293 293 0 0023-37l10-18c17-33 37-49 64-53 11-1 25 2 47 10a212 212 0 0054 14v2l-10-1c-12-1-32-6-43-11-18-7-26-9-33-10-9-1-21 0-30 3-12 4-27 17-38 34a135 135 0 00-10 16c-3 6-12 20-15 28-5 8-13 22-19 28l-4 6h4c4 0 5-1 8-4 8-8 14-16 18-23a182 182 0 0111-18l16-27c15-23 33-35 54-33 11 0 17 2 32 9l24 8c13 2 22 2 24 1l7-1c4-1 4-1 4 1s-1 3-2 3c-6 0-29 9-38 15l-29 18c-2 0 0 2 4 3s8 0 18-6c10-7 40-21 43-22l4 1-4 3-5 2-6 3-7 2-12 7c-9 6-10 6-6 6l10-2c5 0 9-1 16-5 13-7 14-7 14-3 0 2 0 3-2 3-3 0-9 3-9 4l2 1c6-1 9 0 9 2s-1 2-11 2c-19 0-36 2-50 7-8 2-30 14-39 20-12 7-27 22-33 32s-11 24-11 32c-1 13 2 24 9 37 4 7 7 11 14 17 14 13 22 17 32 15l7-1-9-4a82 82 0 01-19-12c-5-4-11-13-16-22-4-9-6-17-6-28 0-18 5-29 17-43a142 142 0 0157-36c12-4 29-6 41-5 7 1 8 0 11-1l5-3c1-1 1 0 1 3 0 4 0 4-7 7l-7 4c0 1 12 2 13 1l1 4c0 3 0 3-3 3-6-2-27-2-33-1-19 5-32 10-50 22-9 6-21 18-25 25-3 8-5 17-5 25 1 6 3 15 5 16l3 4c5 8 18 19 31 25 12 5 16 6 32 9l16-4c3-2 1-3-4-3l-22-3c-15-3-39-15-46-24-7-7-8-10-8-22 0-8 0-10 2-15 3-7 12-17 21-24 21-15 62-26 86-22v2c0 2 0 3-13 3-9 0-15 0-21 2l-10 2c-3 0-16 5-25 9-16 8-32 23-35 34s0 21 9 30c5 5 14 11 17 11l5 2a125 125 0 0066 9c6-1 7-1 7 1 0 3-1 4-10 5-5 0-7 1-11 4-7 5-10 9-12 16s-3 17-1 23c5 15 13 23 30 33 3 2 4 3 4 5s0 2-2 2c-2-1-2-1-2 3 0 10-10 21-26 32-15 9-19 10-24 6-2-3-2-3-2-8 0-8-1-13-6-17-5-6-13-8-26-8-12 0-22 2-30 6-3 2-16 11-18 14l-9 7c-12 9-22 11-31 7l-15-13c-15-15-26-20-47-18l-17 2a255 255 0 00-49 20 436 436 0 01-32 19 1047 1047 0 01-19 14l4 2 4 1 13-9a380 380 0 0163-34c22-7 40-10 54-6 12 3 16 6 30 22 9 9 19 13 27 10l12-5c2-1 3-2 4-1v-1l3-3 9-7c8-8 18-14 26-18 8-3 9-3 18-3 8 1 10 1 13 3 12 6 15 17 8 31l-3 9c1 3 7 2 17-3l18-9c7-3 23-13 30-19 4-4 5-4 5-1 0 4-14 14-27 20l-21 11c-14 7-15 7-21 7-8 1-8 0-3-12 5-9 6-16 4-20-4-8-10-13-17-13-6 0-18 2-22 4-6 2-17 10-28 19-25 22-35 22-57 0l-15-13c-7-4-15-6-28-6-10 1-13 1-26 6a310 310 0 00-80 43c0 1 8 5 9 4a1048 1048 0 0032-20c15-9 27-15 46-20 9-2 12-2 22-2 18 0 24 3 40 20 13 13 18 15 28 15 11 0 19-4 38-22 14-12 20-16 28-17 8 0 13 2 17 9 3 6 3 13-2 21-6 10-6 13 0 15 4 2 11 1 25-4 17-5 34-14 52-27 6-5 6-5 6-2 0 2-15 12-28 19l-5 4h7c8 0 12-1 21-7 4-3 5-4 5-2l-6 6-7 5c0 1 6 4 7 3 5-3 8-2 4 2l-2 2 2 2 2 4c0 2-1 2-5-2-9-9-19-12-31-8-4 0-9 2-11 3-11 6-30 22-42 37-5 6-11 14-15 17l-7 7 3 3 5 3c3-1 8-7 19-20 14-17 29-31 38-37 18-10 34-9 40 4 2 4 2 5 3 4 2-2 3-1 3 2s-2 5-11 14l-11 11 3 1c3 0 5-1 10-6l8-7 1 3c0 2-1 3-5 6l-5 4 2 1h6c2-1 2-1 2 3v4l-8-2c-15-4-33-2-44 3l-10 12 9-4 17-5c9-2 10-2 17-1 13 2 19 4 19 6s0 2-2 2c-10-3-21-4-28-3a243 243 0 00-46 14l5-6c4-3 8-9 11-13 11-16 20-24 29-26h9c4 2 4 2 6 0 3-2 3-2 1-4 0-2-3-4-6-4-15-6-26 2-49 33l-12 16 3 3c3 2 4 3 10 2 4 0 9-1 16-4 9-3 11-3 21-4 13 0 20 1 28 6 3 2 4 3 4 5v2l-5-2c-16-9-31-9-49-2-6 2-6 3-5 5h5c6-3 19-4 24-4 8 2 17 5 24 9 5 4 6 5 6 7v3l-5-4-12-8c-8-3-8-3-19-3-8 0-12 1-16 3-3 1-5 3-5 4l-2 5-1 5c8 5 13 7 23 7 5 0 7 0 8-2 4-3 2-4-9-4-9 0-9 0-12-3s-3-3-2-5c3-4 7-6 16-5l9 1 6 2c5 2 13 9 16 13 3 6 0 15-6 20l-9 6c-4 2-6 2-11 2-7-1-7 0 1 3 5 2 5 2 10 0 7-3 12-6 16-10l4-4v4c0 4 0 5-4 7l-9 5-5 2 6 1c4 1 5 1 8-1l4-2v4c0 4 0 4-3 4-6 0-27-5-34-8a227 227 0 00-40-15l-17-1c-16 0-21 1-33 8-5 4-21 16-29 24a256 256 0 00-38 58c-9 19-13 26-22 34l-4 5 2 2c3 3 5 3 11-3 7-6 17-21 25-36l7-11 9-17c17-33 38-50 65-54 11-1 25 2 46 10a212 212 0 0049 12l6 2c0 2 1 2-15 0-8-1-29-6-38-10-18-7-26-9-33-10-9-1-21 0-30 3-15 5-32 22-44 45l-5 7-14 26c-5 8-13 22-19 28l-4 6h4c4 0 5-1 8-4 8-8 14-16 18-23a182 182 0 0111-18l5-10 11-17c14-23 34-35 54-33 11 0 17 2 32 9 11 5 15 6 24 8 13 2 22 2 24 1l7-1c4-1 4-1 4 1s-1 3-5 3c-8 2-27 9-35 15l-29 18c-2 0 0 2 4 3s8 0 18-6l43-22 4 1-3 3-7 2a165 165 0 01-14 6l-11 7c-9 5-9 5-5 5l10-2c5 0 9-1 16-5 13-7 14-7 14-3 0 2 0 3-2 3-3 0-9 3-9 4l2 1c6-1 9 0 9 2s-1 2-10 2c-20 0-37 2-50 7-10 3-30 13-40 20-13 8-27 22-33 32-14 25-15 45-2 69 5 8 7 11 14 17 14 13 22 17 32 15l6-1-8-4a82 82 0 01-19-12c-5-4-11-13-16-22-4-9-6-17-6-28 0-18 5-29 17-43 14-14 33-27 52-34a102 102 0 0145-7c8 1 9 0 12-1l5-3c1-1 1 0 1 3 0 4 0 4-7 7l-7 4c0 1 12 2 13 1l1 4v3h-4c-9-2-25-2-32 0-19 4-31 9-49 20-10 7-22 19-26 26-7 14-6 34 1 43l3 3 5 7a97 97 0 0057 26c4 0 14-2 17-4v-2h-3a317 317 0 00-21-3l-5-1-20-8c-8-3-20-12-24-16-7-7-8-10-8-22 0-8 0-11 2-15 3-7 13-17 21-24 17-12 46-21 71-22 12-1 15 0 15 2s0 3-13 3c-9 0-15 0-21 2l-10 2-26 9c-16 8-31 23-34 34-2 6-1 16 2 20 2 6 12 15 18 18l6 3 5 2a125 125 0 0066 9c7-1 7-1 7 2 0 2-1 3-9 4s-12 3-18 9c-7 8-10 24-7 34 3 8 7 15 11 19 4 5 21 16 22 16l1 3c0 2 0 2-2 2-2-1-2-1-2 3 0 10-9 21-27 32-13 9-18 10-23 6-2-3-2-3-2-8 0-8-1-13-6-17-5-6-13-8-26-8-12 0-22 2-30 6-3 2-16 11-18 14-3 3-16 12-21 14-12 5-20 2-33-12-8-8-17-15-26-18-6-2-25-2-36 1a240 240 0 00-52 20 436 436 0 01-32 19 1047 1047 0 01-19 14l4 2 4 1 11-8 32-20c34-18 66-26 87-21 12 3 16 6 30 22 6 6 12 10 19 11 4 1 5 0 11-2l9-4c2-1 3-2 4-1v-1l3-3 9-7c8-8 18-14 26-18 8-3 9-3 18-3 8 1 10 1 13 3 12 6 15 17 8 31l-3 9c1 3 7 2 17-3l18-9a210 210 0 0034-22c2 0 1 4-1 6l-25 16-21 11c-14 7-15 7-21 7-8 1-8 0-3-12 4-7 4-9 4-15 0-5 0-6-2-9l-3-4c0-2-8-5-13-5-7 0-17 2-24 5-6 3-17 12-27 20-16 14-27 17-39 11-4-1-9-6-16-13l-15-13a71 71 0 00-55 0 312 312 0 00-79 43l4 3c5 2 4 3 18-7 31-20 42-26 65-32 9-2 12-2 22-2 18 0 24 3 40 20 13 13 18 15 28 15 11 0 19-5 36-20 14-13 20-17 27-18 8-3 16 1 20 8 3 6 3 13-2 21-6 10-6 13 0 15 4 2 11 1 25-4 17-5 34-14 52-27 6-5 6-5 6-2 0 2-12 10-26 18l-7 5h7c8 0 12-1 21-7 4-3 5-4 5-2l-6 6-7 5c0 1 6 4 7 3 5-3 8-2 4 2l-2 2 2 2 2 4c0 2-1 2-5-2-9-9-19-12-31-8-9 2-13 4-21 9-9 7-23 20-30 28-4 6-7 8-8 8l-7-4c-7-8-18-11-31-11-10 0-17 2-30 10-9 4-11 5-15 5-10 0-16-4-35-21-12-10-14-11-26-11-8-1-8-1-28 11l-11 6 4 5 4 4 11-5c14-7 18-8 28-6 9 1 10 2 19 10 7 5 8 7 6 7l-9-5c-13-10-19-11-32-7-10 4-21 10-20 11l-3 1-3-1-7-8c-5-6-7-7-14-10l-12-4c-12-2-26 3-48 18l-6 4-5 1h-4l2-2c2-2 2-2 0-2l-6 2-8 2h-4l2-2 9-5c4-2 6-2 10-2 3 1 4 1 8-2l4-3-4-3c-8-4-19-1-34 11-7 5-9 6-12 6h-4l5-5c7-6 12-10 22-14 11-5 18-6 26-1 6 3 6 3 10 1l3-2c0-2-7-6-14-8s-9-2-14-1c-13 3-29 12-41 24-5 6-6 6-10 6h-4l12-12c10-10 13-12 20-16 22-11 37-10 51 1 5 4 5 4 8 3l3-2-14-11-11-4c-6-2-7-2-16-1-20 2-32 9-54 30-11 11-12 12-15 12h-3l6-7c6-6 6-6 4-6-4 0-13 4-20 9-4 3-7 4-10 4h-3l7-5 14-9c6-3 7-3 13-3 5 1 6 0 8-1 3-4 3-4-3-6-3-2-6-2-10-1-9 1-16 5-33 19-5 5-8 6-10 6h-3l4-4a549 549 0 0022-18l5-3c1-2 14-5 18-5 3 0 7 1 10 3l6 2 3-3c4-3 3-5-3-8-4-2-6-2-13-2-8 0-9 0-16 3-9 4-22 13-33 23-12 10-14 12-17 12h-3l5-5 40-31c17-10 31-11 43-1 4 3 4 3 7 2l2-3c0-2-9-9-15-12s-7-3-13-3c-8 1-18 4-30 11-8 5-21 16-38 32-9 9-10 10-14 10h-3l6-6-3-1c-4-2-11 0-15 4-2 3-3 3-6 3h-3l6-5c8-6 14-8 20-6 4 2 4 2 6 0 3-2 3-2 1-4-1-3-9-6-14-6-7 0-16 5-24 14-4 5-7 7-9 7s-1-1 4-7c8-9 17-16 23-17 9-2 17-1 22 5l3 2 2-2c1-2 1-2-1-7l-7-7c-3-2-4-2-11-2-13 1-19 5-35 21-11 12-14 14-16 14s-1-2 12-14c10-11 16-16 21-19 17-9 33-7 39 5 2 5 2 5 5 3s3-5-3-11-13-10-20-11c-5 0-17 2-23 5-10 5-29 21-40 34l-8 8-7-4c-4-5-8-7-16-9-9-3-14-3-21-2-8 1-13 3-25 10-8 4-9 5-14 5-10 0-16-4-35-21-12-10-14-11-26-11-6 0-8 0-11 2l-28 15 4 5 4 4 11-5c14-7 18-8 28-6 9 1 10 2 19 10 8 6 8 7 5 7l-5-3c-8-7-16-11-23-11s-33 10-32 13l-3 1-3-1c0-2-10-12-14-15-5-3-14-6-19-7-9-1-18 1-33 8l-21 13-5 2h-4l2-2c2-2 2-2 0-2l-6 2-8 2h-4l2-2c6-4 11-6 18-6 4 0 6-1 9-3l4-3-4-3c-8-4-19-1-34 11-7 5-9 6-12 6h-4l5-5 15-11c13-8 24-9 33-4 6 3 6 3 10 1l3-2c0-2-8-6-14-8-7-2-9-2-14-1-13 3-29 12-41 24-5 6-6 6-10 6h-4l12-12c10-10 13-12 20-16 22-11 38-10 52 2 4 3 4 3 7 2l3-2c0-1-9-8-15-11-11-5-16-6-27-5-12 1-22 5-30 11l-7 5-15 13c-11 11-13 13-16 13h-3l6-6 4-7c-3 0-12 3-19 8-5 4-8 5-11 5s-3 0 6-6c13-9 18-11 25-11 6 1 6 1 8-2l2-3-5-2c-6-3-13-2-20 2-5 2-20 13-27 19l-6 3H7zm311-6l9-6c8-4 20-7 32-7 10 0 10 0 9-2-1-4 0-13 2-18 3-9 3-12 2-13-2-2-5 0-11 8-15 21-30 32-42 32-7 0-19-6-28-15s-19-16-24-18c-11-3-28 1-56 13l-12 6c-2 2-2 2 2 4l5 3 17-9c17-8 18-8 26-9 13-1 18 2 33 16 18 16 26 20 36 15zm488 0l9-5c8-5 20-8 32-8h10l-1-3-1-4c0-2 2-13 4-17s3-9 1-10-5 1-11 9c-15 21-30 32-42 32-7 0-19-6-27-14l-22-18c-4-2-20-2-28 0-14 4-40 15-43 18-2 2-2 2 2 4l5 3 17-9c17-8 18-8 26-9 13-1 18 2 31 14 20 19 27 22 37 17zm-409-3l3-3h-13l3 4 4 3 3-4zm488 1l3-4h-13l3 4 4 3 3-3zm-478-10l4-3c1-2 0-2-7-2-8 0-9 0-13-2l-7-7c-3-4-3-5-3-9l5-11c4-7 5-10 3-13s-8-3-15 1c-5 2-8 5-25 23-9 8-17 13-24 15-6 1-16-2-23-6l-17-14c-13-13-16-14-28-14l-12 1c-17 4-21 6-27 9l-15 6-12 6-11 6-6 3 8 1 9 1 11-5c28-13 37-16 48-18h14c9 2 20 9 29 19 10 9 18 14 25 14 5 0 15-4 19-7 6-4 10-9 18-19 9-12 11-14 17-14 3 0 4 0 5 2 2 3 1 8-2 14-6 12-4 20 6 23 5 3 22 2 26 0zm488 0l4-3c1-2 0-2-7-2s-9 0-12-2l-4-2-4-4c-4-6-3-12 2-21 4-7 5-10 3-13s-8-3-15 1c-5 2-8 5-25 23-11 11-18 15-29 14-12 0-21-4-36-20-11-11-15-13-27-13l-13 1a1191 1191 0 01-26 9l-16 6-12 7-9 5-5 3 7 1c8 1 8 1 16-3l10-5c30-13 44-17 55-14 9 2 20 9 29 18 10 10 18 15 25 15 5 0 15-4 20-8 6-4 8-6 18-19 8-11 12-14 17-13 2 0 4 1 4 3 2 4 1 6-2 14-6 11-3 19 6 22 5 3 22 2 26 0zm-481-10l9-4c4-3 7-6 5-6l-14 2c-2 1-12-1-15-3s-3-7 2-17c4-8 5-13 2-18-2-4-7-7-12-7s-15 7-30 20a68 68 0 01-29 18c-8 3-12 3-20 0-4-2-7-4-14-12a81 81 0 00-22-19c-6-3-10-3-20-3a133 133 0 00-58 18c-10 5-32 19-36 23-2 1-2 1 0 4l4 2 33-17a140 140 0 0127-12l8-3 9-2c7-3 13-3 22 0 11 3 14 5 25 17s17 15 28 16c7 0 9 0 15-2 8-4 10-5 18-15l25-23c5-2 12-2 15 1 4 4 4 8 1 14l-6 18c1 3 3 5 9 8 5 3 9 4 19 2zm488 0c4-1 11-5 14-8 1-2 1-2-4-1l-7 1c-3 1-9 0-14-1-7-2-8-7-2-19 4-8 5-13 2-18-2-4-7-7-12-7s-16 7-30 20a64 64 0 01-28 18c-9 3-12 3-21 0-4-2-7-4-14-12-12-13-21-19-29-21l-13-1c-22 0-49 11-84 34-13 8-13 8-10 11l4 2 33-17a140 140 0 0126-12l9-3 9-2c7-3 14-3 22 0 11 3 16 6 25 17 11 11 17 15 28 16 6 0 9 0 13-2 9-3 11-4 26-20 6-7 19-18 22-19 5-1 10-1 12 2 5 4 5 7 0 18l-5 12c0 3 3 7 8 10 6 3 10 4 20 2zM28 953l17-8c9-2 15-8 23-18 7-9 7-10 11-19 3-9 3-21 1-28l-4-9c-3-10-17-26-28-33-8-5-12-6-14-3s0 5 9 10c14 8 28 26 30 37 1 11-6 31-15 41a262 262 0 01-54 44v2c1 1 2 0 8-5l16-11zm478 6c6-4 21-11 27-13 8-3 15-9 23-18 18-24 18-49-2-73l-13-14c-10-7-16-10-19-7-2 3 1 6 10 12 14 8 26 22 28 34 2 6 0 15-3 25-2 6-8 15-13 21a393 393 0 01-52 43c1 1 2 0 6-3l8-7zm-9 0c13-8 27-18 40-31 15-16 19-24 19-40l-1-14c-3-4-21-23-27-26-8-5-12-10-14-16s-1-9 5-12c3-2 5-2 9-1 6 0 16 4 20 7 6 3 16 15 24 26 8 12 11 20 11 27 0 5 1 5 4 7 5 2 6 1 7-3 3-8-2-18-14-31-4-5-12-12-17-15-4-4-11-10-14-15-7-8-15-15-22-19-9-5-24-1-28 7-3 5-3 12-2 18 2 7 10 18 21 25l12 9c9 6 14 17 14 31 0 7 0 8-3 16-7 12-21 25-44 41l-11 7v3l3 3 8-4zm-328-5c34-22 43-27 66-33 9-2 12-2 22-2 18 0 24 3 40 20 13 13 18 15 28 15 11 0 18-4 39-23 18-16 27-19 37-14s11 17 5 28c-5 8-5 10-3 13 3 4 12 3 28-1 21-7 40-18 63-37 11-9 14-14 17-22v-9c-3-7-8-12-20-18-6-3-16-12-19-17-3-6-5-16-4-22l2-10c3-5 12-16 17-19l4-2h-2l-8 2c-24 2-34 29-22 54 4 7 12 14 28 23 8 5 11 9 10 16l-1 8c-5 9-18 19-34 27l-21 11c-14 7-15 7-21 7-8 1-9-1-3-12 4-7 4-9 4-14 0-6 0-7-2-10l-3-4c0-2-8-5-12-5-9 0-18 2-24 5-7 3-19 12-28 20a61 61 0 01-12 9c-4 3-11 5-16 5-8 0-15-4-27-16l-15-13a71 71 0 00-54 0c-19 6-46 19-62 29-14 10-19 14-17 15l3 2 4 2 13-8zm-73 4l4-2-6-4-11-7c-4-3-5-4-9-4l-9-1h-5c-2 2-1 3 2 3 9 0 24 8 28 14l2 3 4-2zm488 0l4-2-6-4-11-7c-4-3-5-4-9-4l-9-1h-5c-2 2-1 3 2 3 9 0 24 8 28 14l2 3 4-2zm-90-9l10-7 10-9c8-6 18-17 21-21 5-9 7-19 5-28-3-11-7-15-21-26-18-12-26-24-26-38 0-8 0-8 4-12l4-5c0-2-6 2-10 6-5 6-6 11-6 22 0 8 0 9 2 14 5 7 9 11 17 15 15 9 21 16 24 28 2 7 2 12-2 20-6 12-15 20-40 37l-10 7 3 2c3 2 4 2 15-5zm-346 2l13-9c7-5 31-19 41-23 25-12 53-17 68-13 12 2 18 6 33 22 6 7 14 11 20 11l13-3 8-4 1-1 21-17c4-4 11-8 15-10 7-3 8-3 19-3 9 0 11 0 15 2 11 6 14 17 7 32l-3 8c1 3 7 2 18-3l17-9c8-3 23-14 31-20 6-5 8-8 9-14 0-5 0-5-3-9l-5-3-1 4c0 10-8 20-23 30-17 11-22 12-27 8-2-3-2-3-2-8 0-9-1-13-6-18-7-5-13-7-27-7-11 0-21 2-28 6-4 2-17 11-19 14-4 4-17 13-24 15-11 3-16 1-30-13-12-12-21-17-31-19-8-1-25 0-34 2a250 250 0 00-60 27 2435 2435 0 00-22 13l-14 9-5 4 4 2 5 1 6-4zm-21-1c2-2 1-2-6-3-7 0-9 0-16-4-10-4-15-9-18-13-1-3-1-3-4-1-4 3-2 9 7 16 5 4 8 5 17 6 7 2 17 1 20-1zm487 0c3-2 2-3-1-3-10 3-33-8-38-17-1-3-1-3-4-1-4 3-2 9 7 16 5 4 8 5 16 6 8 2 18 1 20-1zm-139-2l4-2 9-6c17-11 29-24 34-35 8-15 2-28-16-38-11-6-17-12-21-20-3-6-3-7-3-18 0-10 0-11 2-16l3-5-6 6c-6 6-10 14-10 21 0 6 4 17 8 22 3 4 12 11 21 16 13 7 18 17 13 30-3 9-23 26-49 42-10 5-10 6-1 5 6 0 9 0 12-2zm-345-6l-3-1-10-2c-11-4-17-10-17-16 1-3 4-4 5 0 1 7 12 14 24 15 8 0 13-1 6-2-6-1-14-5-18-8-5-5-6-11-3-13 1-2 4 0 4 4 0 3 5 7 15 11 8 4 16 4 20 1l3-2h-3l-11-4c-12-6-23-18-21-24 1-2 2-1 5 4 5 7 10 12 18 16 7 4 17 5 21 3 4-1 4-3 0-3-6 0-23-11-26-17-4-7 1-8 4-2 3 4 10 11 16 14 5 3 20 2 20-1l-5-3a30 30 0 01-21-20l-3-2c-5 0-10-8-10-13l2-9c1-9-3-16-10-20s-13-5-22-5h-8l5 2c12 4 22 15 22 24 0 2 0 3 2 3l5 3c5 4 3 9-3 5l-5-2c-4 0-11 3-12 6v10c3 2 2 3 0 5h-8c-3 2-4 4-4 7 1 3 4 4 7 1 3-1 4-1 4 2 0 7-15 6-17-1 0-2-1-3-3-4l-6-2c-4-1-4-1-5 2-2 4-1 6 2 7 2 2 3 2 5 0 4-1 8-1 9 2 0 2-1 5-5 7-8 3-3 13 10 19 8 4 25 6 25 3zm1-46l1-4v-3c-1-2-5-1-8 2l-3 2c-2 0-1-4 2-6 3-4 8-4 12-1s5 6 3 9c-1 2-6 3-7 1zm487 46l-3-1c-5 0-18-5-22-9-4-3-4-4-4-8l1-3c2 0 3 0 3 2 2 7 12 14 24 15 8 0 13-1 6-2-5-1-14-5-17-8-6-5-8-11-4-13 1-2 4 0 4 4 0 3 5 7 15 11 8 4 16 4 20 1l3-2h-3l-11-4c-13-6-24-19-21-24 1-2 1-2 9 8 3 5 14 13 20 15h16c3-1 2-3-1-3-4 0-15-6-20-10-5-5-7-7-7-11 0-3 3-2 5 2 3 4 10 11 16 14l7 2c10 1 18-4 9-5-9-2-18-9-21-18-1-3-2-5-4-5-6-2-10-8-9-14v-17c-3-10-15-16-31-16h-8l5 2c12 4 22 15 22 24 0 2 0 3 2 3l5 3c5 4 3 9-3 5l-5-2c-4 0-11 3-12 6v10c3 2 2 3 0 5h-8c-3 2-4 4-3 7 0 3 3 4 6 2s4-2 4 2c0 6-14 5-16-2l-4-4-6-2c-4-1-4-1-5 2-2 4-1 5 2 7s3 2 5 1c4-3 7-2 8 0 1 3 0 5-4 8-8 3-2 13 11 19 8 4 24 6 24 3zm2-46v-4-3c-1-2-5-1-8 2-3 2-4 3-4 0s5-7 8-7c4 0 10 3 11 6 2 5-3 9-7 6zM76 935l-1-4c0-3-3-5-4-3l-3 4-3 4 2 1 6 1c4 0 4 0 3-3zm488 0l-1-4c0-3-3-5-4-3l-3 4c-2 3-2 3-1 5l6 1c4 0 4 0 3-3zm-235-10c2-1 3-2 5-7 2-7 9-21 16-30 5-6 18-18 25-23 9-6 23-12 33-13 13-3 24-4 27-3 2 0 2 0 2-6v-7h-4l-8-1c-11 0-29 5-44 13-20 10-34 23-47 43-9 13-11 16-14 27-2 5-2 6-1 7h10zm119-2l5-3c0-2-8-6-11-7-3 0-4 0-5 2s0 6 2 9c3 3 3 3 9-1zm369 2c2-1 3-3 5-8 4-13 16-30 28-41 15-13 30-22 46-24 13-3 24-4 27-3h3l-1-12-5-1c-6-1-18 0-26 2l-10 3c-5 1-28 13-33 17a137 137 0 00-43 60c-2 5-2 6-1 7h10zm119-2l5-3c0-2-7-6-11-7-3 0-4 0-5 2s0 6 2 9c3 3 3 3 9-1zm-858-1l5-2c2 0 3-1 3-2v-3l-3-2c-2-1-2-1-4 3l-4 6v2l3-2zm488 0l5-2 4-2v-2l-3-2-3-2-2 4-4 6v2l3-2zm-250-7a110 110 0 0118-32c7-10 15-20 23-26a151 151 0 0130-18c13-6 19-7 36-7 17-1 20-2 13-5-6-3-15-4-27-4-9 0-12 0-19 3-16 5-29 13-42 24-4 3-7 6-8 5v1c1 0-3 6-9 12a123 123 0 00-26 43c-1 4-1 4 3 8l4 4 4-8zm488 0c3-9 6-16 15-28 16-24 29-35 53-46 16-8 21-9 39-9 17-1 20-2 13-5-6-3-15-4-27-4-9 0-12 0-21 4-14 5-27 12-41 24-3 3-6 5-7 4v1l-7 9c-14 16-25 34-28 46-1 4-1 4 3 8l4 4 4-8zm-457-2a315 315 0 0118-15c1-4 16-18 24-23 17-9 33-12 59-9l6 1-4-2-8-7c-4-5-5-5-10-5a112 112 0 00-59 19c-6 5-19 18-25 26-7 11-13 23-10 23 0 0 5-3 9-8zm488 1a401 401 0 0118-16c1-3 15-17 21-21 13-8 27-12 42-12l16 1c9 2 10 1 5-2-3-1-6-5-8-7-3-4-4-4-9-4-15 0-28 3-44 11a108 108 0 00-50 55c-2 4 1 2 9-5zm-374 1l4-2-2-3c-6-6-18-11-26-11l-5 1 2 4c2 4 3 5 6 5 5 0 11 3 14 6 2 4 2 4 7 0zm488 0l4-2-4-5c-6-5-17-9-24-9l-5 1 2 4c2 4 3 5 6 5 5 0 11 3 14 6 2 4 3 4 7 0zm-476-13c-3-6-18-13-32-17-10-2-10-2-19-1l-13 4-3 1 6 2c4 0 9 2 11 3l12 2c13 0 23 4 30 12l2 2 4-3c4-3 4-3 2-5zm490 2l-2-3c-5-6-21-14-35-17h-17l-12 4-2 1 4 1 10 3c3 2 7 2 13 3 14 0 24 4 31 12l2 2 4-3 4-3zm-661-1l1-5-5 3-5 3 3 2 4 3 2-6zm488 0l1-5-5 3-5 3 3 2 4 2 2-5zm-618 0c-8-8-11-17-11-28l1-7c2-1 2-1 3 8 0 6 0 10 2 14 3 9 11 16 18 16h4l-3-2-8-6c-4-5-5-7-7-14-3-8-4-12-2-16 2-5 3-3 3 3 0 9 5 21 10 26 2 2 6 5 10 6 5 3 7 3 11 3l4-2-4-2c-9-4-13-8-17-16-3-8-4-14-2-16 2-1 3 2 4 6 1 12 12 25 22 25 4 0 4-1 0-3-5-2-12-10-15-15l-3-12c0-6-1-6-3-6l-4-2c-2-3 0-5 4-5s5-3 4-7c-2-4-4-6-7-6-6 0-11 4-13 9 0 3 0 3-3 1-3-1-4-1-9 1-4 2-5 5-4 11 1 4 1 4-1 3l-6 2c-6 3-7 8-2 11l6 3c2-1 2-1 2 2 0 8 12 20 19 20 2 0 1-1-3-5zm4-33c-1-1 1-6 2-6 2 0 4 4 4 6-1 1-6 2-6 0zm484 33c-7-8-11-17-11-28l1-7c2-2 2-2 2 8 1 9 3 17 8 22 5 6 9 8 14 8h3l-3-2c-8-6-12-11-15-20-3-7-3-13-2-16 2-5 3-3 3 3 0 9 5 21 10 26 4 4 15 9 18 9l7-2-4-2c-9-4-13-8-17-16-3-8-4-14-2-16 2-1 3 1 4 6 1 12 12 25 22 25 4 0 4-1-2-4-8-5-15-15-16-26 0-6-1-6-3-6-4 0-6-2-4-6 1-2 2-2 4-2 5 1 6-5 2-10-5-5-16 0-18 7 0 3 0 3-3 1-3-1-4-1-8 1-5 2-6 5-5 11 1 4 1 4-1 3-2 0-10 3-10 6-2 3-1 5 2 7l6 3c2-1 2-1 2 2 0 8 12 20 19 20 2 0 1-1-3-5zm4-33c-1-1 1-6 2-6 2 0 4 4 4 6-1 1-6 2-6 0zm-564 29c1-3 3-4 8-6l-4-2-12-4-7-4 1 7 1 7 10 4 3-2zm488-1l6-4 4-1-6-2-12-4-7-4 1 7 1 7 10 4 3-3zm-293-1c2 0 3-2 3-3l5-1c3 0 4 0 6-4l1-4c-4 0-9 2-11 4-3 3-11 7-14 7s-3 1 0 3c3 1 6 0 10-2zm488 0c2 0 3-2 3-3l5-1c3 0 4 0 6-4l1-4c-4 0-9 2-11 4-4 3-11 7-14 7s-2 1 0 3c3 1 6 0 10-2zm-557 0s-1-2-3-2l-9-7c-9-7-13-18-12-30l3-8 4-5h-3c-5 0-8 2-7 5l-1 8-2 9c0 13 10 27 22 31 3 1 7 1 8-1zm255-6c0-5-1-6-3-8a89 89 0 00-65-12c-14 3-30 12-37 20-2 3-2 4 4 2l10-3c4 0 8-1 10-3 17-11 53-8 73 8 7 5 8 4 8-4zm233 6s-1-2-3-2c-6-3-14-11-17-18-6-12-6-20 0-28l3-4h-3c-5 0-8 2-7 5l-1 8-2 9c0 13 10 28 22 31 3 1 7 1 8-1zm255-6c0-5-1-6-3-8a89 89 0 00-66-12c-14 3-29 12-36 20l-2 3h2l18-4 5-2c11-8 30-10 47-5l15 5 1 1c1-1 5 1 9 4 5 4 8 5 9 5l1-7zm-736 3l-6-6c-9-9-12-15-13-26 0-9 0-9-3-9s-5 4-5 11 4 16 10 22c4 4 17 10 17 8zm488 0l-4-4c-6-5-12-14-12-17l-1-2c-1 0-2-4-2-11v-7h-3c-6 1-7 12-2 22 3 8 9 13 16 17 7 3 8 4 8 2zm-471-4l-3-2c-1-1-2-1-1-2l-1-1c-1 1-7-6-10-12-4-7-6-18-6-24 1-5 1-5-1-5-3 0-5 2-4 4l-2 5c-3 2-3 3-3 7 1 8 4 15 9 21 7 7 20 13 22 9zm34 1l-5-2c-8-3-15-8-19-14-3-5-3-6-3-12l3-12c3-5 3-5 1-7l-3-4c-1-2-4-1-6 4-2 3-2 5-2 11 0 8 0 9 3 17 5 9 11 15 18 18 5 2 12 3 13 1zm454-1l-3-2c-1-1-2-1-1-2l-1-1c-1 1-7-6-10-11-4-7-6-19-6-25v-5c-4 0-6 2-5 4l-2 5c-3 1-3 3-3 6 0 4 1 7 4 15 5 10 25 22 27 16zm34 1l-5-2c-9-3-16-8-19-15-3-5-3-6-3-12l3-11c3-5 3-5 1-7l-3-4c-1-2-4-1-6 4-2 3-2 5-2 12s0 8 4 16c5 10 10 15 17 18 5 2 13 3 13 1zm-519-10c-2-2-5-6-5-8-3-5-5-18-4-23l7-14c3-2 2-3-3-3-4 1-6 1-8 4l-1 3 1 4c0 2-1 2-3 2-3 0-3 12 0 20 2 4 4 7 10 13l8 7-2-5zm41 4l-3-3c-8-4-14-14-14-21l-3-3c-3-3-3-7 1-8 4 0 4-1 0-3-3-1-5 0-9 5-3 6-4 15-1 20 5 8 14 14 23 14l6-1zm448-2c-7-10-10-17-10-29 0-7 2-13 7-17 3-3 3-3 2-4-4-1-10 1-13 4l-1 3c2 2 1 6-2 7-2 1-2 1-2 8 1 10 5 18 13 25 7 7 10 8 6 3zm40 2l-2-2c-7-4-13-12-15-20 0-2-1-4-3-5-3-3-3-7 1-8 4 0 4-1 1-3-3-1-3-1-5 1-6 4-8 9-8 17 0 7 5 14 15 18 5 3 16 4 16 2zm-690-7c0-5-4-14-11-24-15-22-27-31-42-32-9 0-12 2-11 7 1 3 1 3 4 1 4-2 12-1 18 3 10 7 27 29 31 40 2 6 4 8 9 8 2 0 2-1 2-3zm488-1c0-7-12-27-23-39-10-10-23-16-33-16-6 0-8 3-8 7 1 3 1 3 4 2 3-3 10-2 15 0 11 5 32 33 35 45 1 3 4 5 8 5 2 0 2-1 2-4zm-271 2l-5-3c-11-6-16-16-16-26 1-7 1-8 4-8s5-3 3-6c-2-2-7-1-10 2s-4 5-2 6v11c-2 2-2 3-1 7 3 8 8 14 16 17h11zm488 0l-5-3c-11-6-16-16-16-27 1-6 1-7 5-7 5-1 3-7-2-7s-11 7-8 9v11c-2 3-2 4-1 7 3 8 8 14 16 17h11zm-676-8c3-1 3-1 3-4l-2-5c-1-4-10-11-15-14-5-2-15-4-15-2l6 6c7 7 13 18 13 23v3l3-3 7-4zm488 0c3-1 3-1 3-4 0-4-2-7-8-12a31 31 0 00-24-9l6 6c7 7 13 18 13 23v3l3-3 7-4zm-291 2c2-1 3-4 1-4s-10-8-12-12c-4-8-5-17-3-23 2-4 2-8-1-8l-3 2c-2 2-2 2-1 4l2 5c0 4-3 11-6 12-2 1-2 4-1 9 2 7 8 12 15 15 6 2 7 2 9 0zm489 0l2-2-6-5c-4-3-6-6-8-10-4-7-5-17-3-22 2-4 2-8-1-8l-3 2c-2 2-2 2-1 4 4 3 2 11-3 16-3 4-3 4-1 10 1 7 7 13 14 15s7 2 10 0zm-654-11c0-3 1-6 3-8 2-4 2-6-3-12-2-3-8-5-19-7-8-1-8-1-14 2l-5 2 3 1c7 0 16 2 19 5 4 2 8 8 9 17 1 5 2 6 3 5 2 0 3-2 4-5zm305-1c-5-8-7-16-7-26 0-7 0-9 6-22 1-3-7 4-10 10-6 7-7 12-6 20l2 10c2 3 18 16 19 15l-4-7zm182 3l1-4 2-6c3-4 3-6-2-12-2-3-8-5-19-7-8-1-8-1-14 2-5 2-5 3-2 3 7 0 17 3 19 4 4 3 9 12 9 19 1 4 1 5 3 4 1 0 3-1 3-3zm307-2c-6-9-9-21-9-30l7-19c1-2-5 3-9 8-5 7-7 11-7 18 0 9 1 13 6 18l15 11-3-6zm-622 2v-2c-2 0-6-5-8-9-2-5-1-10 2-14 3-2 4-3 6 0 2 1 2 1 2-2 0-2 0-3 2-3l4 2c1 1 1 1 1-2-2-8-10-11-19-6-5 3-8 7-8 14 0 8 6 18 12 22 4 2 4 2 6 0zm488 1c1-2 1-2-2-5-7-6-9-15-4-21 3-2 4-3 6 0h2c-1-2 1-5 3-5l3 2c1 1 1 1 1-1l-3-6c-3-4-9-4-15-1s-8 5-9 13c0 5 0 6 3 12 2 4 5 8 8 10 5 3 5 4 7 2zm13-12l4-4-4-2c-3-3-9-5-11-5l-1 2-3 2c-1 0-2 0-2 2 0 3 2 6 5 9s7 2 12-4zm-488 1l4-5-4-2c-3-3-9-5-11-5l-1 2-2 2c-4-2-3 6 0 10 4 3 8 3 14-2zm-166-6l3-4 2-3-2-3c-4-6-19-13-28-13-5 0-16 5-14 6l7 2 10 2c4 1 9 6 12 11 2 2 3 3 6 3l4-1zm488 0l3-4 2-3-2-3c-5-7-19-13-28-13-3 0-7 1-10 3-6 3-6 3 5 5 9 1 15 5 20 13 2 3 3 3 6 3l4-1zm-311-5l3-3-7-4-7-4v3l-1 5c-1 2 0 2 3 4 5 2 5 2 9-1zm488 0l3-3-7-4-7-4v3l-1 5c-1 2 0 2 3 4 5 2 5 2 9-1zm-641-1c2-2 13-4 18-3 4 0 5 0 10-4l43-33c13-12 19-17 24-18 6-2 17-2 20 0l32 30 16 12 9 4 3-2c4-1 5-3 3-3l-10-6-23-20a96 96 0 00-34-25c-13-5-21-2-37 13l-27 23c-11 9-22 14-34 18a330 330 0 01-30 7l1 2 6 3 6 2h4zm488 0c2-2 13-4 18-3 5 0 2 2 30-19l25-20c13-12 19-16 26-17 6-1 14 0 16 1l32 31 16 11 9 4 3-2c4-1 5-3 3-3l-10-6c-6-4-14-11-22-20a95 95 0 00-35-25c-13-5-21-2-37 13-17 16-32 27-42 33-9 5-38 14-46 14-5 0-3 4 4 6l6 2h4zm-409-2c2 0 4-1 6-4l7-6 7-5c3-3 3-3 1-3-3 0-8 2-16 9a585 585 0 01-11 10l6-1zm488 0c2 0 4-1 6-4l7-6c3-1 6-3 7-5l3-3h-2c-4 0-10 3-17 9l-9 7c-5 3-5 5-1 3l6-1zm-659-3c3 0 7-4 9-9 2-2 7-17 7-19 0-3 8-11 12-11 3 0 4-1 4-3s-1-3-4-4c-2-2-3-2-7-1l-8 5c-4 3-6 10-12 31l-5 9c-2 4-2 4 0 4l4-2zm488 0c3 0 7-4 9-9 2-2 7-17 7-19 0-3 8-11 12-11 3 0 4-1 4-3s-1-3-4-4c-5-3-10-1-16 4-3 4-4 6-8 21-3 11-6 18-8 20-2 3-2 3 0 3l4-2zm-496-1c2-2 7-14 7-17l7-22c2-3 8-9 12-11l10-1c6 0 7 0 8-2s1-3-1-4c-5-4-15-5-22-2-6 3-9 7-16 24l-9 20c-3 6-9 13-12 13l1 2c3 3 12 3 15 0zm487 0c3-3 6-8 9-22 4-12 7-19 11-23 6-5 8-6 17-6 6 0 7 0 8-2s1-3-1-4c-5-4-15-5-22-2-5 2-9 8-13 16a253 253 0 01-20 39l-4 3 2 1c2 3 11 2 13 0zm-344-3c4-5 11-7 17-6 3 0 4 0 10-4l14-11c16-14 22-14 34-3 11 10 37 28 42 28l4-2 3-2-4-2-18-13c-21-19-27-24-33-26-6-4-8-4-16-1-9 3-14 6-31 22l-12 9c-11 7-20 14-17 14l2 1 5-4zm487 0c5-5 8-6 16-6 6 0 7-1 13-5l14-11c15-13 22-13 34-1a108 108 0 0017 14l24 13 4-2 3-2-4-2c-5-2-6-3-25-20-21-17-28-22-33-22-7 0-21 7-29 14l-23 19c-11 6-19 13-17 14s2 1 6-3zm-455 0a188 188 0 0118-14c6-3 9-4 12-1 2 1 3 2 6 1 3 0 5 0 6 2 2 2 3 2 4 1 2-1 1-2-4-8l-8-7h-9a299 299 0 00-32 26c2 3 3 3 7 0zm495-5c15-11 16-12 19-12l4 2c2 1 3 2 6 1 4 0 5 0 6 2 2 1 3 2 4 1 2-1 2-2-3-7-6-7-9-9-14-9-3 0-5 1-18 11l-15 11c-3 2-4 2-3 5l2 2 12-7zm-684 1c4-3 9-12 12-18l2-6 5-11c7-19 12-23 26-23 5 0 8 0 11 2l4 2 2-2 2-4c0-2-4-6-11-9-7-4-10-4-18 0s-12 9-21 31c-3 9-9 20-13 25-4 4-10 8-12 8-3 0-2 1 1 5 4 4 6 4 10 0zm117-3c13-3 28-9 36-14l34-30c13-13 25-17 36-13a104 104 0 0130 18l-4-9-5-8-7-4c-11-5-18-7-25-7-12 0-23 5-32 16-30 33-54 47-86 50l-9 2 4 2c5 3 2 3 28-3zm371 3c4-3 9-12 16-29 8-20 10-23 18-27 5-3 16-3 22 0l4 2 2-2 2-4c0-4-13-12-19-11-6 0-15 4-18 8s-6 10-11 23c-5 11-10 20-15 26-4 4-10 9-12 9-3 0-2 1 1 5 4 4 6 4 10 0zm118-3c14-4 29-10 38-17 7-4 19-15 30-26 14-14 26-18 38-14a100 100 0 0129 18l-4-9-5-8-7-4c-11-6-18-7-25-7-12 0-23 5-33 17-12 13-27 26-39 34-13 8-31 14-47 16-9 0-9 1-3 4 4 2 4 2 9 0l19-4zm-563-4c5-7 9-18 9-20 0-1-1-1-4 2-5 4-8 10-11 20l-2 7 2-2 6-7zm488 0c5-8 9-17 9-19s-1-2-4 1l-7 8-5 17c0 2 3-1 7-7zm-479 3l4-4c3-3 9-15 11-20 8-29 22-50 39-60 11-5 27-2 38 8 4 3 4 3 6 1s1-4-3-8c-11-10-29-15-41-10-7 4-19 12-23 17-4 4-11 15-16 25-4 7-10 24-12 32 0 3-6 15-9 19l-2 3 2-1 6-2zm489-1c3-1 4-3 8-10l6-13c8-29 23-51 40-60 10-5 28-1 38 8l3 3 2-2c2-2 2-3 0-5-2-3-7-7-15-11-6-3-9-3-15-4-9 0-14 1-26 10-11 7-18 16-27 34-4 7-10 24-12 32 0 4-6 15-9 19l-2 3 2-1 7-3zm-239-1c3-1 4-3 2-3a95 95 0 01-29-23c-6-7-13-22-15-29-2-8-2-22 0-32 2-8 8-20 13-27 4-6 18-19 26-24a227 227 0 0137-21c0-2-20-1-27 1-28 7-54 34-60 63-3 12-3 29 0 38 3 11 11 26 19 35 6 7 20 18 28 22h6zm488 0c3-1 4-3 2-3s-17-10-23-16c-7-7-13-17-19-30-2-6-2-7-2-22l1-19c2-7 8-19 11-24 4-5 20-20 27-24 7-5 29-18 33-19 7-2 5-3-6-3-20 0-36 7-54 24a87 87 0 00-23 41c-3 13-3 29 0 38 6 20 19 38 34 49l16 9 3-1zm-701-2a189 189 0 0024-3c8-2 18-7 34-18 9-6 14-10 25-22 16-18 28-24 42-24a45 45 0 0125 8l3 2v-2l-1-6c0-7-12-13-24-13-17 0-27 6-49 29-16 17-27 26-40 31-13 6-19 8-30 9l-14 1-16 9 21-1zm274-3l3-4h-5a108 108 0 01-59-26c-1 0-12-14-14-19s-2-7-2-14c0-11 1-16 6-26 4-7 6-9 13-16a125 125 0 0158-31l12-4c3 0 8-2 11-4l5-4h-7c-21-1-49 9-69 24-10 7-28 24-31 30-6 10-8 26-4 40a71 71 0 0046 50l26 7c8 1 9 1 11-3zm224 2a95 95 0 0033-10c15-9 25-17 39-31 16-16 22-20 32-23l11-2a45 45 0 0125 8l3 2v-2l-1-6c0-4-3-7-10-11-11-4-25-3-37 4-6 3-12 9-25 22-20 20-29 27-41 32-14 7-19 8-33 9-13 1-14 2-20 5l-7 5 31-2zm264-2l3-4h-5c-7 0-23-4-32-9-22-11-33-20-40-35-3-6-3-7-3-14 0-11 2-17 6-27 4-7 6-9 13-16a124 124 0 0161-32l9-3 10-3 5-3 1-1c0-2-15-1-25 1-26 4-51 18-72 41-10 11-13 16-15 27-3 17 3 37 15 52 4 5 16 15 23 18 11 5 31 11 42 12 1 0 3-1 4-4zm-861 1c10-4 18-16 24-35 4-14 6-18 10-23 4-4 9-6 16-8 5-1 6-1 12 1 5 1 8 3 10 6l5 3 2-3 2-3-6-6c-6-7-12-9-22-9s-22 8-32 21c-5 7-6 11-8 18-2 12-14 30-22 35-1 1-1 1 1 3l3 2 5-2zm488 0c5-3 7-4 12-11 6-8 9-13 14-30 4-15 11-22 24-25 5-1 6-1 12 1 5 1 8 3 10 6l5 3 2-3c2-2 2-3 0-5-2-4-9-9-14-11-15-5-29 0-42 17-6 8-8 12-10 20-2 10-9 23-16 30-7 6-7 7-5 8 3 2 2 2 8 0zm-154-2l-9-4a79 79 0 01-18-12c-8-6-17-21-21-34-4-15-1-35 7-48 5-8 17-19 28-27 10-8 28-17 39-20a112 112 0 0140-5l8 1 6-4 5-5-20-1c-28 1-37 3-59 14-18 8-32 18-43 29a79 79 0 00-21 34c-6 16-4 32 6 51 4 7 7 10 13 17 14 13 22 16 32 15l7-1zm241-6l3-4 5-14 5-9c5-13 9-19 16-26 8-7 9-8 18-7 5 0 11 3 14 7 3 3 3 3 4 1l2-2c0-2-8-9-14-12-5-3-5-3-12-2-9 1-14 4-21 12-13 14-15 18-30 57l-2 5-1 1c0 1 8-3 13-7zm-497 5c5-2 12-7 12-8l15-37 11-12c7-7 8-8 12-8 10-1 14 1 19 6 4 4 4 4 6 2l1-2c0-2-8-9-14-12-5-3-5-3-12-2s-13 4-17 8c-8 7-20 23-22 30a2325 2325 0 00-11 35zm-88-5c7-4 15-16 18-30a55 55 0 0138-43 40 40 0 0126 3c1 0 4 2 7 6l6 5v-2c0-6-9-17-16-20l-11-3c-10 0-18 2-30 11a79 79 0 00-26 27l-3 8-3 11c-3 10-5 13-12 19l-4 4 3 3c3 2 3 2 7 1zm488 0c7-4 14-16 19-31l6-18c4-6 14-16 20-19 11-6 21-7 32-4 5 2 8 4 12 8l6 5v-2c0-6-9-17-16-20l-11-3c-10-1-18 2-29 11-19 13-25 21-30 35-6 20-7 23-13 28l-5 6 2 3c3 2 3 2 7 1zm-97-2c10-3 11-5 3-6-11 0-25-3-33-6-22-9-37-20-42-30l-1-13c0-13 2-18 11-28 18-18 40-28 75-33 14-2 38 1 50 7 14 7 19 14 19 28l1 5 3-2c7-2 8-7 3-17s-14-18-28-23c-16-6-48-9-60-7-27 6-49 17-64 33-13 13-18 24-17 38 1 9 2 14 6 18l2 3a63 63 0 0022 20c8 5 22 11 33 12 11 2 12 2 17 1zm-270-1c11-2 21-6 31-11 9-6 14-10 30-25 23-22 28-26 42-32 6-2 8-2 14-2 8 1 17 4 20 7 3 2 3 1 3-4v-5l-5-3c-6-4-18-6-25-6-7 1-15 4-18 6l-4 2-7 5-9 9a295 295 0 00-30 31l-5 4c-4 4-13 9-14 8l-1 1c1 1-8 6-17 8-10 2-12 3-15 6-3 2-3 2 10 1zm488 0c11-2 21-6 31-11 9-6 13-9 29-24 25-24 30-28 44-33 5-2 7-2 13-2 8 1 17 4 20 7 3 2 3 1 3-4v-5l-5-3c-12-7-27-7-41-1-8 4-22 16-33 28-15 17-23 24-30 28-4 3-7 5-8 4l-1 1c1 1-8 6-17 8-10 2-12 3-15 6-3 2-3 2 10 1zm-617-7c2-2 9-12 10-16a187 187 0 005-21c1-2 1-2-2-1s-3 2-6 9c-4 14-7 18-16 24l-5 3 4 2c4 3 6 3 10 0zm486 1c2-1 5-4 7-8 6-8 6-8 8-19l3-11c0-2 0-2-3-1s-3 2-6 9c-4 14-7 18-16 24l-5 3 4 2 4 3 4-2zm-362-6c4-4 6-8 9-14l8-12c3-3 4-4 8-4l6 2 3 2 3-2 3-4c1-2-5-8-9-8-12-3-18 2-28 18-4 8-12 26-12 29l9-7zm488 0c4-4 6-8 9-14l8-12c3-3 4-4 8-4l6 2 3 2 3-2c4-3 4-5 1-8-7-7-19-6-27 2a125 125 0 00-20 41l9-7zm-646 0c4-1 7-3 12-8 4-3 9-8 10-11l3-4-3 1-7 6c-8 7-15 11-21 15-4 1-7 3-7 4l13-3zm462 1c8-2 22-7 26-10l11-8c10-8 25-16 34-19 6-2 8-3 12-7l5-4-5 1a94 94 0 00-42 20 85 85 0 01-28 16 118 118 0 01-85-5c-13-8-17-14-17-26 0-7 0-8 2-12 5-9 11-14 23-23a75 75 0 0128-10c9-3 23-5 31-5s22 3 28 6c4 2 10 8 11 12 2 3 1 11-1 15-3 6-13 14-29 20-9 3-18 5-32 6l-19-1c-5-3-8-5-9-8-1-2-1-2-2 0-1 8 16 15 34 14 16-1 37-8 50-16 19-13 25-19 23-27-2-17-26-29-56-28a113 113 0 00-30 4c-19 4-43 17-53 30-6 8-7 12-7 21-1 10 1 14 9 22 5 5 14 11 17 11l5 3c5 3 12 5 32 8 8 2 27 2 34 0zm22 0l9-3c4-2 14-12 17-17 4-5 3-5-10 5-5 5-13 10-17 12-11 6-11 6 1 3zm-311-2c14-5 27-15 40-29 23-25 31-32 46-39 13-6 26-5 39 1l6 3c1 1 1-1 2-3l2-6c0-2-10-7-19-9-15-4-28-1-41 8-8 5-24 21-32 30-16 20-28 31-44 38-8 4-13 9-8 9l9-3zm488 0a119 119 0 0041-31c23-24 30-30 45-37 13-6 26-5 39 1l6 3c1 1 1-1 2-3l1-6c1-1-7-6-15-8-12-4-24-3-35 2-10 4-29 20-41 36-16 19-29 30-44 37-8 4-13 9-8 9l9-3zm-640-1c9-6 11-8 14-15 4-7 6-13 5-13l-5 2c-3 1-5 3-8 8-4 7-9 13-15 18l-4 3h5c3-1 6-1 8-3zm492-3c5-4 7-6 10-11l5-14-5 2c-3 1-4 3-7 8-5 7-11 14-17 18l-3 3h5c4-1 6-1 12-6zm-342-5l6-4 8-5c4-3 4-3 2-5-3-4-9-2-14 5l-5 10 3-1zm286-1c5 0 11-2 14-3 9-2 26-11 35-18 13-9 29-17 39-18l11-4 2-3-5-1c-15 0-32 7-45 17-12 11-19 15-26 18a116 116 0 01-67 7l-3-1c-4 0-17-8-23-13-5-6-5-6-5-10 0-6 5-16 10-20s18-12 24-14c8-3 17-5 31-5 15 0 19 1 26 5 5 2 7 9 3 15-1 2-10 9-16 11-11 5-31 8-38 5-3-1-3-2-3-4 0-6 0-6 17-8 6 0 16-4 17-7 0-2-3-4-6-4-9 0-28 8-34 13-4 5-5 11-1 14l5 2 4 1c2 2 25-1 39-5 11-4 21-10 26-15 4-4 4-4 4-10-1-11-10-17-27-20l-7-1c-4-1-24 2-34 5-17 5-26 10-34 18-21 22-16 39 16 50l17 4 11 1c1 1 14 0 23-2zm202 1l6-4 8-5c4-3 4-3 2-5-4-5-11-1-16 10-3 5-3 6 0 4zm-197-11l10-4 4-1c1 1 26-16 34-22 6-5 19-11 28-13l17-1c9 0 10 0 12-2l2-2-4-1c-5-1-23-1-29 1-7 2-22 10-29 15-9 7-23 16-28 18-4 3-19 7-27 9l-20 1h-14l-7-3c-12-6-16-13-13-20 5-11 23-20 45-22h14c8 3 6 9-5 13l-15 4c-11 1-12 2-11 3 1 2 9 2 18 1 12-2 24-8 28-13s4-6 1-9c-5-4-25-6-38-4-23 5-37 13-43 25-5 9-3 13 7 20 6 4 10 6 25 8 9 2 28 2 38-1zm-240-39l-1-4h-1l-1-1c-1-3-14-11-21-14-12-4-25-3-38 3-4 2-19 14-20 17-1 2 0 6 2 6l8-5 14-9c7-3 8-3 17-4 7 0 10 1 15 3 8 2 15 8 18 14l2 3 3-3 3-6zm488 1c0-3-4-8-11-13-16-11-32-12-52-4-4 2-20 17-20 19l1 3c2 2 4 1 12-6 4-2 9-6 13-7 6-3 8-3 16-4 14 0 24 5 32 15l4 5 2-3 3-5zm-568-9c7-6 14-12 22-15 5-2 7-2 20-2h14l7 3 15 11c6 6 7 8 8 7l4-5 3-3-4-5c-6-8-12-12-25-19-6-3-26-4-34-2-11 3-32 18-38 27l-3 4 2 3 3 2 6-6zm488 0c7-6 14-12 22-15 5-2 7-2 20-2s14 0 20 3c4 2 10 6 15 11 8 7 9 8 10 6l4-4 2-3-5-6-5-6-4-3-15-9c-6-3-26-4-35-2-11 4-30 17-37 27l-3 4 2 3 3 2 6-6zm-44-5l10-7c9-7 15-10 18-10l5-2c2-3 2-3 0-3-1-1-3-2-3-4-4-5-8-2-23 11l-16 14c-6 5-5 7 3 3l6-2zm-491 1c4-1 10-5 15-9 10-8 12-9 15-9l6-2c2-3 2-3 0-3-1-1-3-2-3-4-4-5-8-3-24 12l-16 14c-7 5-4 5 7 1zm-45 0l9-4c7-3 23-14 33-23 11-11 19-17 24-19 4-2 13-2 17 0l5 2c5 1 6 8 2 10-3 0-4-1-4-3 0-3-3-2-5 1-1 3-1 3 1 6l4 3c3 0 10-5 12-9s2-5 1-10c-1-6-6-12-11-14-5-3-13-2-20 0-10 4-13 6-49 35-7 5-23 15-27 16l-2 3c0 3 3 8 5 8l5-2zm80-2c4-7 25-24 29-24l5-2c10-5 26-6 42-1 10 3 17 7 27 17l7 9 4-3 3-4a117 117 0 00-42-28l-16-2c-16-1-27 3-43 13l-24 23c-1 3-1 4 1 5 2 2 3 1 7-3zm408 2c15-6 27-13 42-27 11-11 19-17 24-19 4-2 13-2 17 0l5 2c5 1 6 8 2 10-3 0-4-1-4-3 0-3-3-2-5 1-1 3-1 3 1 6s5 4 10 0c11-7 10-19-1-28-5-5-14-5-22-2-7 3-23 13-35 23-18 15-34 26-41 28-3 1-3 2-2 4 0 3 3 7 4 7l5-2zm80-3l9-9c8-7 18-14 20-14l5-2c10-5 26-6 42-1 10 2 17 7 27 17l7 9 4-3 3-4a122 122 0 00-42-28l-16-2c-16-1-27 3-43 13l-24 23c-1 3-1 4 1 5 2 2 4 1 7-4zm-535 1c4-2 13-10 21-18 6-6 16-13 20-13l3-4 2-4c2-1 0-3-5-3s-13 4-20 10c-16 15-31 27-39 31l-3 2h7a605 605 0 0114-1zm488 0c4-3 20-16 23-20 4-4 12-10 16-11 2 0 3-1 4-3l3-4c5-6-11-5-19 1l-21 19-23 16-4 3h7a681 681 0 0114-1zm-451-6c7-9 3-8-7 2l-4 4 3 1c3 0 4-1 8-7zm488 0c7-9 4-8-8 2l-3 4 3 1c3 0 4-1 8-7zm-297-4c1-6 12-24 22-36l11-15c11-15 16-19 27-22 7-2 16-2 31 3l9 2 6-3 5-3-11-6c-8-4-15-7-21-8-9-2-9-2-16 0-13 3-23 10-32 22a482 482 0 00-43 59l-4 6h3l6 4 4 2 3-5zm488 0c1-6 13-25 21-35l8-11 13-16c5-6 11-10 18-11 7-2 16-2 31 3l9 2 6-3 5-3-11-6c-14-7-27-11-34-9l-7 2c-4 0-17 8-21 12l-10 12a2851 2851 0 01-38 54l-6 8h3l6 4 4 2 3-5zm-741-9l46-37c6-5 14-8 22-9 8 0 13 1 19 5 5 4 7 9 7 18l1 8 7-5c1-4 0-14-2-18-7-13-20-19-37-15-16 3-25 9-51 31-12 9-33 24-35 24l2 4 2 4 7-3 12-7zm207 1c6-5 10-11 17-23a865 865 0 0120-36c18-35 38-52 66-56 11-1 27 2 49 11a122 122 0 0029 8c22 6 50 4 72-4a290 290 0 0070-38 443 443 0 0165-37c6-2 29-3 36-2 11 2 26 11 32 19 4 5 8 14 8 17s2 3 6 0l4-2-3-6c-5-13-9-17-19-26-14-12-18-14-35-14-18-1-27 1-49 12a367 367 0 00-70 46l-8 4c-17 11-40 20-58 24-15 2-31 3-41 1a128 128 0 01-37-13l-27-9-17-1c-16 0-23 2-34 9l-28 23a267 267 0 00-39 60c-7 15-12 23-20 32l-5 5 2 2 2 3 4-2 8-7zm282-2c10-7 18-13 45-36 6-5 14-8 23-9 7 0 9 0 13 2l8 6c3 4 5 13 5 19-1 5-1 5 4 2 4-2 5-6 3-14-3-18-19-26-39-22-16 3-25 9-51 31-12 9-33 24-35 24l2 4 2 4 7-3 13-8zm-249-3a481 481 0 0029-39c8-12 17-23 22-28 4-3 13-9 19-11s8-2 15-2c9 1 19 4 24 7l9 4 9 3c3 2 3 2 10-1 11-6 11-7 5-7-10-1-23-6-40-14-12-6-26-7-39-3-11 4-18 10-27 21l-4 3v1l-4 7-8 12a291 291 0 01-17 28c-3 5-15 23-18 25-1 1-1 2 3 3l4 1 8-10zm488 0a498 498 0 0029-39l21-27 19-12c6-2 7-2 16-2 10 1 15 2 24 7l10 4 7 3 4 2 7-3 9-5c1-2 1-2-2-2l-14-3c-10-3-16-5-28-11a52 52 0 00-65 17c-2 3-5 5-5 4v1l-4 8-9 13a467 467 0 01-34 52l3 2 4 1 8-10zm-506 4l17-22a145 145 0 0110-17 275 275 0 0131-46c12-11 25-16 40-15 10 0 17 2 32 9 12 5 15 6 25 8 13 2 21 2 28 0 6-1 14 0 20 2h24c15-2 18-3 38-13 15-7 49-29 61-38 6-6 18-14 25-17 7-4 22-10 29-12 16-3 31 0 43 11l13 18c1 4 3 4 7 0 5-3 5-3-1-13-6-13-16-21-30-25-13-4-35-1-52 6s-16 7-54 32a476 476 0 01-66 36 118 118 0 01-40 7h-19c-13-1-36-7-45-10-15-7-26-10-33-11-14-2-31 2-40 8-13 8-25 22-36 41a3893 3893 0 01-36 60l-4 6h4c4 0 5-1 9-5zm-26-8l2-2-2 1-7 4c-3 3-4 3-3 5 1 1 2 0 5-2l5-6zm489 0c1-2 1-2-1-1l-7 4c-3 3-4 3-3 5 1 1 2 0 5-2l6-6zm-702 0a576 576 0 0042-32l12-8a82 82 0 0134-10c13-1 20 2 29 10 5 6 6 7 7 12v10c-1 5-1 6 3 4 3-1 4-5 4-13-2-14-10-26-22-30-7-3-22-4-30-2-9 3-20 7-27 12-12 7-33 22-40 28-9 8-17 13-25 16l-5 3 3 3c5 3 9 2 15-3zm486 2a745 745 0 0044-34l12-8c6-4 23-10 32-11 7 0 9 0 15 2 17 5 26 18 23 31-1 5-1 5 2 5 4-1 5-7 5-15-1-9-5-17-11-22-7-6-13-9-25-10-11 0-17 1-30 6-8 3-38 23-50 33a131 131 0 01-33 21l3 3c4 2 9 2 13-1zm-286 0c4-1 20-13 24-17 3-4 7-13 6-14s-7 3-20 13a211 211 0 01-20 14l7 5 3-1zm493-3c9-6 17-12 19-15 3-3 7-12 6-13s-7 3-15 9l-23 16c-3 1-3 2 1 5 5 3 6 3 12-2zm-709-6a97 97 0 0021-13c2-1 0-3-3-3s-8 2-10 4l-16 11c-5 1-5 2-2 4 2 1 3 1 10-3zm488 1l20-13c4-3-1-5-6-3-2 0-6 3-10 6l-11 7c-6 3-6 3-3 4 2 3 3 2 10-1zm-280-2l13-9c13-11 18-15 24-18l8-6c3-5 3-6-2-6-8 1-15 5-24 11a1564 1564 0 01-36 25l10 6 7-3zm488 0l13-9c14-12 18-15 24-18 5-2 7-4 8-6 3-5 3-6-2-6-8 1-15 5-24 11a1401 1401 0 01-36 25l10 6 7-3zm-706-3l13-9c12-9 15-10 21-8 4 2 4 2 9-1l3-4c-1-2-7-4-12-4-6 0-12 3-26 12-10 7-13 9-21 12-3 2-3 3 1 4s7 0 12-2zm488 0l13-9c12-9 15-10 21-8l4 2 5-3 3-4c-1-2-7-4-12-4-6 0-12 3-26 12-10 7-13 9-21 12-3 2-3 3 1 4s7 0 12-2zm-504-5l18-11 15-10c10-6 22-7 29-1 5 3 5 3 7 1s2-2 1-4c-2-6-14-10-25-9-9 1-25 10-41 23l-12 9c-5 3-5 4-2 5l3 1 7-4zm488 0l18-11c15-10 19-12 24-14 8-2 18-1 23 4 1 2 2 2 4 0l3-2-2-3c-5-8-23-10-36-4-9 4-20 11-30 19l-12 9c-5 3-5 4-2 5l3 1 7-4zm-270-1l11-8 20-14c16-11 23-14 32-14 5 0 5 0 7-4l5-8 2-3-8-1c-8 1-15 4-25 10a227 227 0 01-30 18l-26 14c-23 11-22 10-6 12l8 1c1 2 3 1 10-3zm487 1l8-6 13-9 19-13c8-6 17-9 24-9 5 0 5 0 7-4 1-3 3-6 5-7l2-4-6-1c-10 0-18 4-43 21l-6 3-8 4a596 596 0 01-43 24l10 1 9 2c1 2 3 1 9-2zm-222-10c18-14 38-25 46-28 6-2 9-2 14-1l9 2c3 1 8 6 10 10h3c2-1 3-2 2-3-1-6-3-9-7-12-10-7-21-7-38 0l-36 22a446 446 0 01-30 18l10 2c2 0 7-3 17-10zm-294 3l17-10a331 331 0 0058-34c7-6 13-8 25-8 10 0 10 0 12-2 3-3 3-4-2-5-15-3-30 1-50 15l-12 7-13 7a198 198 0 01-29 17c-13 7-17 9-17 11l-1 5v3l4-2 8-4zm480 4l8-4 16-9a389 389 0 0059-35c7-6 13-8 25-8l12-1c3-3 2-5-2-6-9-2-17-1-26 2l-11 5-7 4c-2 1-6 3-7 5l-11 6-13 8-15 8c-23 12-31 17-31 19l-1 5c0 4 0 4 4 1zm-312-13l9-6c4-4 8-7 10-7h19c6 2 6 2 9 0 4-2 4-3 0-4l-13-3-11-2-7 2c-8 3-13 7-25 21l-9 12 7-5 11-8zm486 2l11-9c4-3 8-6 10-6 6-1 14-1 20 1 5 1 5 1 8-1 4-2 4-4 0-4a1357 1357 0 01-26-5c-5 1-14 6-18 9l-20 23-3 4 7-5 11-7zm-649-11a208 208 0 0030-16l25-16c19-12 37-17 54-14l7 1 4-4 4-4c0-1-7-4-13-5-12-2-25 0-38 7a852 852 0 00-90 57c1 2 2 2 17-6zm488 0a200 200 0 0029-16l10-6 29-17c14-7 28-9 41-7l7 1 4-4 4-4c0-1-7-4-12-4-15-3-22-2-36 5a514 514 0 00-58 33l-27 17c-7 4-9 6-8 8s2 2 17-6zm-264 2l36-19c9-4 10-4 17-4 10 0 13 1 20 8l5 5 3-2 3-3c0-2-11-10-17-13-9-5-16-5-28-2-9 3-20 9-27 13-12 8-27 18-29 18-2 1-1 1 5 3 2 1 5 0 12-4zm-34 0l11-1c2-1-7-3-13-3-5 0-10 2-12 5-1 1-1 1 1 1l13-2zm488 0l11-1c2-1-7-3-13-3-5 0-8 1-11 4l-3 2h3l13-2zm-432-2c5 0 9-2 17-6l13-5 10 4c7 3 9 4 10 3 2-1 2-1 0-4-5-9-21-13-29-9l-8 4-7 3-11 7c-9 5-9 5-5 5l10-2zm42 1c1-2 1-2-2-4-4-2-5-2-10-2-4 0-11 3-11 4l6 1 9 1h8zm-299-7a274 274 0 0042-26l26-16c24-14 30-16 44-16 12 1 15 1 22 5l6 2 5-5 5-4c0-2-12-7-18-9-8-1-12-1-24 1-15 3-22 6-35 14a51235 51235 0 01-78 49l-6 3c-1 1 2 5 3 5l8-3zm488 0a358 358 0 0053-33l9-6 13-7c13-9 24-12 37-12 12 1 15 1 22 5l6 3 4-5 5-4 1-1c0-1-11-7-18-9-7-1-12-1-24 1-15 3-22 6-35 14a22865 22865 0 01-80 50l-4 2c-1 1 2 5 3 5l8-3zm-576-7c9-5 10-7 2-3l-8 4c-4 1-5 2-3 3 1 1 0 2 9-4zm488 0l8-5-4 1-4 1-1 1-4 2c-5 2-6 3-4 4 1 1 0 2 9-4zm-408-1l9-4a310 310 0 0052-35l18-11c16-10 24-14 34-15 18-3 34 0 46 8 3 2 3 2 7 0l3-2c0-2-16-9-25-12s-11-3-22-3c-20 0-30 3-52 20a475 475 0 01-78 50l-5 1 3 3 3 3 7-3zm488 0l7-3a403 403 0 0054-35l18-12c15-9 23-14 31-15 9-2 24-2 29 0l20 8c3 2 3 2 7 0l3-2c0-2-17-10-26-13-7-2-10-2-21-2l-18 1c-7 2-18 8-23 11a1112 1112 0 01-58 41c-13 9-25 15-31 17l-5 1 3 3 3 3 7-3zm-558-9a127 127 0 0023-16l13-10 24-16c10-7 26-3 29 7 1 3 2 4 4 1 3-2 2-8-1-13-4-5-11-8-21-8l-10 2-33 23c-13 10-35 25-46 30l-8 4 2 2 1 3 7-3 16-6zm488 0a127 127 0 0023-16l13-10 24-16c8-6 20-5 26 2l3 5c0 3 2 3 4 2 3-2 3-8-1-14-4-5-11-8-21-8l-10 2-32 23a308 308 0 01-49 31l-6 2 3 6 7-3 16-6zm-565 2l17-6c18-3 36-12 62-30a1412 1412 0 0163-40c6-2 8-3 13-2l16 5c5 3 17 16 18 20 0 4 1 4 6 0s4-7-4-17c-5-7-9-10-17-14-5-2-7-2-17-2-12 0-15 0-32 8-13 6-25 13-37 23a220 220 0 01-99 49h-4l-4 1 10 10 9-5zm488 0l17-6c15-2 32-10 49-22l53-37c5-4 13-8 22-11 8-2 9-3 14-2l16 5c6 3 16 15 18 20 0 4 1 4 6 0 4-3 4-6 0-12-6-9-11-14-19-18-7-3-8-4-18-3-13 0-16 0-33 8-13 6-24 13-40 25a217 217 0 01-96 47h-4l-4 1 10 10 9-5zm-403 0l12-3c11-1 14-3 28-17 8-9 11-11 15-12 5-1 11 0 14 4 2 2 2 2 4 1 6-2 5-8 0-13-2-3-4-3-7-3-9 0-19 6-26 14l-9 6-13 10-15 9c-9 6-9 6-3 4zm51-1a290 290 0 0054-33l15-11c23-18 36-25 50-27a67 67 0 0127 0c3 0 15 3 21 7l13 7c5 3 6 3 10 2l3-1c-1-2-21-18-25-19-10-5-29-7-43-5-13 2-23 6-36 14a10004 10004 0 00-74 50l-23 13c-6 2-6 2-4 4s6 1 12-1zm437 1l12-3c11-1 14-3 28-17 8-8 12-11 15-12 5-1 11 0 14 4 2 2 5 2 7-1 2-1 2-2 1-5-1-4-5-9-8-9-9-1-17 2-28 12l-14 11a603 603 0 00-27 20zm51-1a290 290 0 0054-33l15-10c30-24 45-31 66-29s25 3 40 12c10 6 11 6 15 5h4l-4-4-18-14a84 84 0 00-84 8l-31 21a451 451 0 01-69 45c2 2 6 1 12-1zm-555-12l21-14a694 694 0 0137-27c10-8 27-10 38-5 5 3 12 11 12 14s1 3 5 1c3-1 3-2 2-4-1-8-7-16-16-20-7-4-17-6-23-4-7 2-31 15-39 22a705 705 0 01-53 36l-16 7 5 3 4 2 7-3 16-8zm488 0l17-11a426 426 0 0132-24l9-7c6-4 18-7 26-7 11 2 20 8 24 17l1 3 4-2c3-1 3-2 2-4-1-9-8-16-17-21-6-3-8-3-15-3s-8 0-16 4c-13 6-24 13-33 20-21 17-32 24-49 33l-17 9 5 2 4 2 7-3 16-8zm-429 3l15-7c7-5 8-5 7-7-2-3-8-4-12-2-3 2-19 19-17 19l7-3zm493-2l13-7c4-3 5-3 4-5l-5-3c-5-1-8 2-18 12-7 7-7 8-4 8l10-5zm-179-27c12-9 17-27 12-39-5-11-14-18-29-22-12-4-22-3-36 2-7 3-8 4-6 6h5l12-3h17c10 3 14 5 22 10 5 4 7 6 9 10 2 6 3 10 0 18-2 7-7 13-16 18-7 3-7 3-5 4 7 2 9 1 15-4zm13 2c4-2 6-4 9-9l6-11c4-16-5-36-21-48-8-5-9-6-20-8-14-2-25 0-56 12l-7 2 5-6 11-13c11-16 20-24 29-26h9c4 2 4 2 6 0 3-2 3-2 1-4-1-3-9-6-14-6l-9 2c-8 3-17 12-32 33l-12 16 3 3c3 2 4 3 9 2 5 0 10-1 16-4 9-3 12-3 22-4 14 0 21 1 30 7 7 4 15 14 18 21 3 6 3 23 1 28-3 6-7 10-11 13l-5 3h4l8-3zm14-2c7-9 13-24 13-32 0-5-2-15-5-20-3-6-18-21-25-25-14-7-33-11-47-8-11 2-17 5-21 10l-4 6 9-4 17-5c9-2 10-2 17-1 17 3 24 6 35 15 6 6 9 8 11 14 9 16 7 35-3 49-4 4-4 5-1 4l4-3zm-47-1c9-4 16-8 19-14 4-8 5-12 2-19-3-6-8-11-18-16-8-3-8-3-19-3-10 1-12 1-16 3-3 1-5 3-5 4l-2 5c-2 3-2 5-1 5 8 6 13 7 23 7 5 0 7 0 8-2 4-3 2-4-9-4-9 0-9 0-12-3s-3-3-2-5c3-4 7-6 16-5l9 1 6 2c5 2 13 9 16 13 4 9-2 19-14 25-5 3-7 3-12 3h-5l11 5 5-2zm-421-2c6-5 11-17 13-29 1-7 0-11-2-20-3-13-6-18-17-29-10-10-12-12-16-9l-3 2 4 3 13 11c8 9 9 10 12 18s3 9 3 19c0 13-3 22-10 33-4 5-2 6 3 1zm489 0c5-5 10-17 12-28l1-7-4-19c-4-11-7-15-16-24-10-11-12-12-16-9l-3 2 3 2 19 17 7 13c3 8 3 9 3 19l-2 16c-2 7-7 16-10 19s2 2 6-1zM45 580c5-8 6-16 6-26s-1-15-7-23c-4-6-16-17-22-21-3-2-4-2-7 0l-3 2 8 6c10 8 17 16 22 27 3 7 3 8 3 16 0 9-3 22-7 27-3 5-3 6 0 2l7-10zm488 0c8-14 9-31 2-44-3-6-16-20-23-25-4-3-5-3-8-1l-4 2 8 6c10 8 16 15 21 26 4 8 4 9 4 17 0 11-3 21-8 29l-2 4 3-4 7-10zm-467 4l6-3-6-1h-6l-6 9 3-1 9-4zm488 0l6-3-6-1h-6l-2 4-3 4c0 1 3 0 11-4zm-89 1c10-3 15-8 16-15 1-3 1-4-2-8-3-5-5-6-3-1 4 7 0 14-9 18-5 2-7 2-18 2-13-1-14-1-21-4l-8-4 5 4c7 6 17 9 31 10l9-2zm488 0c8-3 10-4 13-8 4-6 5-10 1-15-3-5-5-6-3-1 4 7 0 14-9 18-5 2-7 2-18 2-13-1-14-1-21-4l-8-4 5 4c6 6 17 9 31 10l9-2zm-381-11l5-3-3-1c-4-2-15-2-19-1-3 1-4 2-5 4l-1 4h6l8 1h3l6-4zm-489 1l6-4-3-1c-4-2-15-2-19-1-3 1-4 2-5 4l-1 4h7l8 1 7-3zm335 1l-5-8c-4-7-5-15-2-16 2 0 4 4 2 5-2 3 1 7 8 11 8 6 15 8 26 9 10 1 11 1 16-1 11-4 14-10 8-17-4-6-10-9-18-10-8 0-12 1-12 3 0 3 3 3 12 3 8 1 9 1 11 3 2 1 3 3 3 5 0 3-1 3-5 5s-6 2-14 2c-10-1-14-3-21-8l-6-4c-2 0-5-3-5-5l2-3c2-1 2-1 4 1l3 2c2 0 3-8 0-11-2-3-7-4-10-2-4 2-4 2-4 0 0-3-5-6-8-6s-5 2-4 5c0 3-1 5-4 3-2-2-1-6 2-8 7-6 10-11 20-23 11-15 21-26 28-31 10-7 23-7 31 1l3 2 2-2c1-2 1-2-1-7l-7-7c-3-2-4-2-11-2-13 1-19 5-35 22a661 661 0 00-33 39c2 2 2 3 1 4-1 2-3 2-9 0-1 0-2 0-4 3-5 8 4 31 15 39l4 2-5-7c-8-11-11-17-8-22 1-2 3-2 5-1v4c-2 4 0 9 5 16 5 6 10 10 11 9l-3-4c-4-5-8-13-8-17 0-2 3-7 5-7s3 3 2 5l-2 4c0 3 7 15 11 20 5 5 6 5 4 2zm484-6c-3-6-4-9-4-13l1-5c2 0 4 4 2 5-2 3 1 7 8 12 8 5 14 7 25 8 10 1 15 1 21-3 7-3 9-7 6-13-4-7-12-12-22-12-7 0-10 1-10 3s3 3 13 3c7 1 8 1 11 3l2 5c0 3-1 3-5 5s-6 2-14 2c-10-1-14-3-21-8l-6-4c-2 0-5-4-5-6l2-2c2-1 2-1 4 1s4 3 4 0c3-8-5-15-12-11l-2 1c1-2-6-7-9-7s-5 2-5 6c1 3-2 4-3 1-2-3 0-7 4-10 3-1 9-8 15-17 14-18 22-27 29-32 12-9 24-9 32-2l4 3 2-2c1-2 1-2-1-7l-7-7c-3-2-4-2-11-2-13 1-19 5-35 21l-23 26c-11 12-11 12-9 15v4h-6c-4-1-5-1-6 1-5 5-1 21 6 32 3 4 10 10 12 10l-4-6c-6-7-10-15-10-19s2-6 5-6c2 1 3 4 1 6-3 3 5 17 12 22 4 3 5 2 1-2-3-4-8-13-8-16s2-7 4-7h3v4c-3 2-2 4 1 12 3 6 12 17 13 16l-5-8zm-522 0l-6-6c-4-7-9-21-9-27v-3l-1 2c0 3-3 4-7 4l-1 3 2 8c2 4 21 23 24 23 1 0 1-1-2-4zm14 3l-4-3-3-5v-1c-2 1-7-8-9-15l-1-14-1-9c-3-2-6 2-6 8 0 18 12 39 23 40l1-1zm474-3c-7-8-12-17-14-29l-2-5-2 4h-4c-3-1-3 2-1 7 1 5 3 7 12 16 6 7 11 11 12 11 2 0 2-1-1-4zm14 3l-4-3-3-5v-1c-2 1-7-8-9-15l-1-14-1-9c-3-2-6 2-6 8 0 18 12 39 23 40l1-1zm-785-7l4-3-4-2c-8-4-26-5-31-2l-1 4-1 3 4-1c5-1 16 0 20 2 5 2 4 2 9-1zm488 0l4-3-4-2c-8-4-26-5-31-2l-1 4-1 3 4-1c6-1 18 0 21 2s3 2 8-1zm-476-9l3-3c-1-1-16-6-23-7s-10-1-20 1c-3 0-3 1-3 4 0 2 0 3 2 3 8-3 23-1 31 3 5 2 6 2 10-1zm488 0c4-3 4-3 2-4-17-6-26-8-37-6l-8 1v4c0 3 0 3 2 3 9-2 24-1 31 3 5 2 5 2 10-1zm-309-5c9-3 13-5 18-10a153 153 0 0119-15l15-9c9-5 11-5 16-5l13 2 6 3 3-4 3-3-2-2c-4-4-13-7-19-8-6 0-8 0-18 3-11 4-23 11-29 16-2 2-3 3-4 2l-1 1c1 1-16 17-27 26l-7 7 1 2 13-6zm488 0c10-4 13-6 21-12 16-13 22-17 32-22 8-5 10-5 15-5l13 2 6 3 3-3 3-4c0-1-5-5-10-7l-11-3c-6 0-8 0-18 3-14 5-24 12-38 25a809 809 0 01-30 27l1 2 13-6zm-657-2l3-3-16-7c-15-4-29-5-39-2-4 1-4 1-3 4 1 2 2 3 3 2l12-1a71 71 0 0132 7c4 2 4 2 8 0zm234-1l-2-8c0-4 0-5 3-7 2-2 2-2 1-3-3-1-11 1-15 3-5 3-12 9-12 11l3 2c3 0 3 0 8-4 5-6 7-6 6-2 0 5 1 7 4 9 5 3 5 2 4-1zm254 1l3-3c0-1-10-5-20-7-12-4-25-5-32-3-5 2-5 2-5 4v4l5-1c6-2 24-1 33 2l10 5c2 1 2 1 6-1zm233-1l-1-8c0-4 0-5 3-7 2-2 2-2 1-3-6-2-16 2-24 10-4 4-4 4-2 5 3 2 6 1 10-4 5-5 7-5 6-1-1 5 1 7 4 9 5 3 5 2 3-1zm-560-6c8-6 17-13 29-25 6-5 11-8 19-12 14-7 19-8 29-8 8 0 10 0 15 2l9 5 3 2 4-4 3-3-4-4c-11-12-33-15-50-7-15 6-32 18-50 34l-16 13c-5 4-5 4-4 6l3 5 2 2 8-6zm488 0l26-22c10-9 14-12 23-16 13-6 18-7 28-7 8 0 10 0 15 2l9 5 3 2 4-4 3-3-4-4c-8-9-23-13-37-11-16 2-38 16-63 38l-18 15-3 2 3 4 3 5 8-6zm-426 2c0-2 0-2-2 0-2 1-2 1 0 2 3 1 3 1 2-2zm488 1c1-3 0-4-2-1-2 1-2 2-1 2 3 1 4 1 4-1zm-502-6c9-9 15-12 23-12l7 1c4 4 5 3 7-2l4-6c1-1 0-1-2-2-5-2-9-2-17 0-8 1-12 4-21 10l-20 17 6 1h6l7-7zm488 0c9-9 15-12 23-12l8 2 4 2 2-4 3-6c2-2 2-2-1-3l-8-2c-5 0-15 3-19 5-6 3-31 23-31 24l6 1h6l7-7zm-689-1l13-10c15-13 23-19 32-22 4-1 9 0 12 4 1 2 2 2 7 1l5-2c0-2-6-8-10-9-9-3-26 4-47 22l-16 12c-7 4-7 4-5 6 3 1 5 1 9-2zm488 0l12-9c17-14 25-20 33-23 4-1 10 1 12 4 1 2 2 2 6 1 6 0 7-1 4-5-3-5-5-6-10-7-10-1-23 5-42 21l-17 12c-9 6-9 6-7 8 3 1 5 1 9-2zm-496-6l14-12 17-13c19-12 21-12 31-12 7 0 8 1 12 3l7 7c2 4 3 4 5 3l3-1-4-6c-6-8-16-12-25-12-16 0-31 7-52 28l-16 12c-6 4-8 6-6 6 3 1 8 0 14-3zm488 0l14-11c11-10 30-23 37-25l11-1c7 0 8 1 12 3l7 7c2 4 3 4 5 3l3-1-4-6c-3-4-6-6-11-9-9-4-13-5-22-3-14 3-27 11-43 26l-22 18c-3 1-3 1-1 2 3 1 8 0 14-3zm-461 0l4-2c2-4 11-9 25-14 6-2 6-3 4-4-4-4-12-1-27 12a330 330 0 00-11 10l5-2zm486 2l8-6c4-4 11-8 23-12 6-2 6-3 4-4-3-4-12-1-28 12-14 12-14 12-7 10zm-366-1c1-1 0-2-4-4l-5-2 6 7 3-1zm488 0c1-1 0-2-4-4l-5-2 6 7 3-1zm-655-2c6-3 13-8 21-16 9-9 28-23 37-27 11-5 13-5 22-5 10 0 13 1 21 7 4 3 11 12 13 16 1 3 2 3 5 3l4-1-12-18c-5-5-10-8-17-11-13-5-22-4-36 2a182 182 0 00-45 30c-5 6-15 15-20 18-4 3-4 3 1 4l6-2zm488 0c6-3 13-8 21-16 9-9 27-22 37-27 11-5 13-5 22-5 7 0 10 0 14 2 7 4 16 13 20 21 1 3 2 3 5 3l4-1c0-2-9-14-14-19-6-6-16-11-25-13-12-2-26 3-49 18l-4 3-7 6-11 8c-5 6-15 15-20 18-4 3-4 3 1 4l6-2zm-503-2l16-13a385 385 0 0122-21c-5 0-15 7-32 22l-14 11-6 4h5l9-3zm490-1l19-16a322 322 0 0118-17c-5-1-15 6-32 21l-15 12-5 4h4c4 0 6-1 11-4zm-501-3l19-15c17-16 25-21 33-20 3 1 5 1 8-2l4-3-4-3c-10-6-27 3-49 23-8 8-19 17-23 18-2 1-2 1 0 4l3 3 9-5zm482 3c7-3 15-9 24-18 12-11 17-14 23-18 5-2 7-2 11-2 3 1 4 1 8-2l4-3-4-3c-10-6-27 3-51 25l-16 13-7 5 2 2c2 3 2 4 6 1zm-281-1c1-1 2-2 1-3l-12-7c-5-4-15-5-20-3l-2 2 5 4 8 3 9 3c7 3 8 4 11 1zm488 0c1-1 2-2 1-3l-12-7c-3-3-6-4-10-4-6 0-11 1-11 3s9 7 12 7l9 3c7 3 8 4 11 1zm-371-8l13-14c12-15 31-34 40-39 17-9 33-7 39 5 2 5 2 5 5 3s3-5-3-11c-10-10-19-13-32-9-9 2-13 4-21 9-9 7-23 21-32 31-5 6-11 14-15 17l-7 8 3 2 4 3 6-5zm-109 1c3-2 3-2-1-4l-9-6c-7-5-17-9-23-9l-12 4-8 5 4 2c4 2 4 2 8 0 9-4 17-4 24 2l14 8 3-2zm488 0c3-2 3-2-2-4l-9-7c-6-4-15-8-22-8-3 0-20 7-20 9l4 2c4 2 5 2 8 0 9-4 20-3 25 2 2 2 11 8 13 8l3-2zM70 511l15-13c22-20 37-25 51-18 6 3 6 3 10 1l3-2c0-2-9-7-16-8-5-2-7-2-12-1-14 3-27 11-45 28-6 6-13 13-17 15-6 4-6 4-4 6l1 2 5-3 9-7zm486 2l17-15c22-20 37-25 51-18 6 3 6 3 10 1l3-2c0-2-7-6-14-8s-9-2-14-1c-14 3-26 11-45 28-6 6-13 13-17 15-5 3-6 4-4 6 1 2 1 2 4 0l9-6zm-265 0l3-3-4-2-11-8c-11-11-17-14-25-14-7 0-23 6-31 11l-2 1 2 4 3 4 9-3c8-4 9-4 16-4 5 0 8 0 13 3l11 6c5 5 10 8 12 8l4-3zm488 0l3-3-4-2-8-6c-13-13-20-16-29-16-5 0-18 5-26 9l-6 3 2 4 3 4 9-3c8-4 9-4 15-4s9 0 14 3l11 6c5 5 10 8 12 8l4-3zm-721-7c3-2 11-9 18-17 12-11 15-13 22-17 22-11 38-10 52 2 4 3 4 3 7 2l3-2c0-1-9-8-15-11-11-5-16-6-27-5-19 2-31 9-54 31l-17 16-3 2 2 2c2 2 3 3 5 1l7-4zm486 2l19-18c13-12 16-14 23-18 22-11 37-10 51 1 5 4 5 4 8 3l3-2-14-11-11-4c-6-2-7-2-17-1-12 1-22 5-29 10l-7 5c-2 1-10 8-17 16l-18 16-3 2 2 2c3 3 4 3 10-1zm-531-2c4-1 11-6 17-11 15-10 21-12 28-12 6 1 6 1 8-2l2-3-5-2c-10-4-20-1-36 12-20 17-24 20-23 21 2 1 2 1 9-3zm488 1l18-12c16-11 20-12 27-12 5 1 6 1 8-1 3-4 3-4-3-6-10-4-20-1-36 12-21 18-24 20-23 21 2 1 2 1 9-2zm-195-5c3-2 3-2 1-2l-16-8-15-13c-11-10-14-11-26-11-8-1-8-1-28 11l-11 6 4 5 4 4 11-5c14-7 18-8 28-6l10 2 13 11c15 13 17 14 25 6zm146 2c5-2 9-3 12-6l4-4-3-1c-5-2-10 0-18 7l-7 7c0 1 1 1 12-3zm342-2c3-2 3-2 1-2-3 0-12-5-17-9l-14-12c-11-10-14-11-26-11-8-1-7-1-27 10l-12 7 4 5 4 4 10-5c13-6 18-7 25-7 12 1 13 2 29 16 13 11 15 11 23 4zm147 2c4-1 8-3 11-6l4-4-3-1c-5-2-10 0-18 7l-7 7h3l10-3zm-453 0l21-16a78 78 0 0117-13c2-2 10-4 16-5 5 0 7 0 12 2l6 3 3-3c4-3 3-5-3-8-4-2-6-2-13-2-8 0-9 0-17 4a204 204 0 00-47 34c-4 4-4 4-2 5 3 1 4 1 7-1zM54 492c5-5 4-6-3-4-5 1-20 11-19 12l5 3 3 2 5-4 9-9zm488 0c5-5 5-5 3-5l-8 2c-5 2-17 10-17 11l5 3 3 2 5-4 9-9zm-60 4c22-20 46-37 56-39 11-2 20 0 28 6 4 3 4 3 7 2l2-3c0-2-9-9-15-12s-7-3-13-3c-12 1-31 10-43 20-10 9-38 35-37 36l3 1c3 0 5-2 12-8zm-164-2l9-6c8-4 20-7 32-7 10 0 10 0 9-2-1-4 0-13 2-18 3-9 3-12 2-13-2-2-5 0-11 8-15 21-30 32-42 32-7 0-19-6-28-15s-19-16-24-18c-11-3-28 1-56 13l-12 6c-2 2-2 2 2 4l5 3 17-9c17-8 18-8 26-9 13-1 18 2 33 16 18 16 26 20 36 15zm488 0l9-6c8-4 20-7 32-7 10 0 10 0 9-2-1-4 0-13 2-19 4-10 4-14-1-13l-8 9c-15 21-30 32-42 32-7 0-19-6-27-14l-22-18c-4-2-19-2-24-1l-6 2c-13 4-38 14-41 17-2 2-2 2 2 4l5 3 17-9c17-8 18-8 26-9 13-1 18 2 30 13 22 20 28 23 39 18zm-408-3l2-3h-13l3 4 4 3 4-4zm487 1l3-4h-13l3 4 4 3 3-3zm-478-10l4-3c1-2 0-2-7-2-8 0-9 0-13-2l-7-7c-3-4-3-5-3-9l5-11c4-7 5-10 3-13s-8-3-15 1c-4 2-9 6-20 17a75 75 0 01-20 18c-8 3-12 3-19 2-10-2-17-6-30-19s-16-14-28-14l-12 1c-17 4-21 5-26 8a315 315 0 01-28 13l-10 6-8 4h9c9 1 9 1 17-3l10-5c30-13 44-17 55-14 9 2 20 9 29 19 6 5 13 11 17 12 6 3 10 2 17 0 11-4 17-9 29-25 8-11 10-13 16-13 3 0 4 0 5 2 2 3 1 8-2 14-6 12-4 20 5 23 6 3 23 2 27 0zm488 0l4-3c1-2 0-2-7-2s-9 0-12-2l-4-2-4-4c-4-6-3-12 2-21 4-7 5-10 3-13s-8-3-15 1c-5 2-8 5-26 23-8 8-16 13-23 15l-11-1c-9-2-17-7-29-19s-16-14-28-14l-12 1c-17 4-21 5-27 9l-15 6-12 6-10 6c-7 3-7 4 2 4 8 1 8 1 16-3 30-13 40-17 51-19h14c9 2 20 9 29 18 10 10 18 15 26 15 4 0 14-4 19-8 6-4 8-6 18-19 8-11 11-13 16-13 4 0 4 0 5 3 2 4 2 6-2 14-6 11-3 19 5 22 6 3 23 2 27 0zm-482-10l10-4c4-3 7-6 5-6l-14 2c-2 1-12-1-15-3s-3-8 2-17c4-8 5-13 2-18-2-4-7-7-12-7s-15 7-30 20a68 68 0 01-30 18c-7 3-11 3-19 0-4-2-7-4-14-12a81 81 0 00-23-19c-5-3-8-3-19-3-8 0-12 1-22 4a133 133 0 00-36 14c-10 5-32 19-36 23-2 1-2 1 0 4l4 2 32-16a156 156 0 0130-14l6-2 8-2c8-3 14-3 23 0 11 3 15 6 25 17 11 12 17 15 28 16 7 0 9 0 15-2 8-4 10-5 18-15l25-23c5-2 12-2 15 1 5 5 5 7-4 25-2 3-1 9 2 11 7 7 13 8 24 6zm488 0c5-1 12-5 15-8 1-2 1-2-4-1l-8 1c-2 1-8 0-13-1-7-2-8-7-2-19 4-8 5-13 2-18-2-4-7-7-12-7s-16 7-30 20a66 66 0 01-30 18c-7 3-11 3-19 0-4-2-7-4-14-12-12-13-21-19-30-21l-12-1c-22 0-49 11-84 34-13 8-13 8-10 11l4 2 33-17a146 146 0 0128-12l7-3 9-2c7-3 14-3 22 0 11 3 14 6 25 17 11 12 17 15 28 16 6 0 9 0 13-2 9-3 11-4 26-20 6-7 19-18 22-19 5-1 10-1 12 2 5 4 5 7 0 18l-5 12c0 3 3 7 8 10 6 3 10 4 19 2zM28 453l17-8c9-2 15-8 23-18 7-9 7-10 11-19 3-9 3-21 1-28l-4-9c-3-10-20-29-30-35-6-3-11-4-12-1-2 3 0 5 9 10 14 8 28 26 30 37 1 11-6 31-15 41a262 262 0 01-54 44v2c1 1 2 0 8-5l16-11zm478 6c6-4 21-11 27-13 8-3 15-9 23-18 12-17 16-34 11-50-4-12-6-15-15-27l-11-10c-10-7-16-10-19-7-2 3 1 6 10 12 14 8 26 22 28 34 2 10-2 27-10 37a345 345 0 01-58 49v3c1 1 2 0 6-3l8-7zm-9 0c13-8 27-18 40-31 15-16 19-24 19-40l-1-14c-3-5-21-23-29-28-7-5-10-9-12-14-2-6 0-9 5-12 4-2 5-2 11-1l13 4c9 4 18 13 27 26 10 14 13 22 13 30 0 5 1 5 4 7 5 2 6 1 7-3 3-8-2-18-14-31-4-5-12-12-17-15-4-4-11-10-14-15-7-8-15-15-22-19-9-5-24-1-28 7-8 16 1 31 28 49 12 8 17 18 17 33 0 8 0 9-4 17-6 12-20 25-43 41l-11 7v3l3 3 8-4zm-328-5c35-23 43-27 68-33 11-3 13-3 22-3 17 2 23 5 38 21 13 13 18 15 28 15 11 0 18-4 39-23 18-16 27-19 37-14s11 17 5 28c-5 8-5 10-3 13 3 4 12 3 27-1 23-7 41-18 64-38 11-8 14-13 17-21v-9c-2-6-7-11-17-16-9-5-19-13-22-19s-5-16-4-22l2-10c3-5 12-16 17-19l4-2h-2l-9 2c-23 2-33 29-21 54 4 7 11 13 29 24 7 4 10 8 9 14l-1 9c-5 9-19 20-34 27l-21 11c-14 7-15 7-21 7-8 1-9-1-3-12 4-7 4-9 4-14 0-6 0-7-2-10l-3-4c0-2-8-5-12-5-9 0-18 2-24 5-7 3-19 12-28 20a61 61 0 01-12 9c-4 3-11 5-16 5-8 0-15-4-27-16l-15-13a71 71 0 00-54 0c-19 6-46 19-62 30-15 9-19 13-17 14l3 2 4 2 13-8zm-73 4l4-2-6-4-11-7c-4-3-5-4-10-4l-8-1h-5c-2 2-1 3 2 3 8 0 24 8 28 14l2 3 4-2zm488 0l4-2-6-4-11-7c-4-3-5-4-10-4l-8-1h-5c-2 2-1 3 2 3 9 0 24 8 28 14l2 3 4-2zm-91-9l11-7 11-9 20-21c5-9 7-19 5-28-3-11-7-15-21-26-20-14-27-25-26-44l4-6 4-5c0-2-6 2-10 6-5 6-6 11-6 22 0 8 0 9 2 13 5 8 9 12 16 16 16 9 22 16 25 28 2 7 2 12-2 20-6 12-16 20-41 38l-9 6 3 2c3 2 4 2 14-5zm-345 2l13-9 40-23c25-11 54-17 69-13 11 2 16 5 24 14l11 11c4 4 13 8 18 8l12-3 9-4 1-1c-1-1 26-22 32-25 9-5 14-6 24-6 8 1 10 1 13 3 12 6 15 17 8 32-4 8-4 10 1 9a177 177 0 0065-36c7-7 8-16 2-21l-4-2-1 4c0 10-8 20-24 30-16 11-21 12-26 8-2-3-2-3-2-8 0-9-1-13-6-18-7-5-13-7-27-7-11 0-21 2-29 6-3 2-16 11-18 14-4 4-17 13-24 15-11 3-16 1-31-13-15-16-26-20-47-19l-18 2a250 250 0 00-51 21c-3 3-17 10-18 9l-1 1-4 4-22 16-4 2 4 2 5 1 6-4zm-21-1c2-2 1-3-2-3-10 3-33-8-38-17-1-3-1-3-4-1-2 2-3 5 0 9 2 3 10 10 14 11 8 3 26 4 30 1zm487 0c3-2 2-3-1-3-10 3-33-8-38-17-1-3-1-3-4-1-4 3-2 9 7 16 5 4 8 5 16 6 8 2 18 1 20-1zm-139-2l4-2 18-13 12-11c11-11 17-20 16-29 0-11-6-19-19-26-11-6-17-12-21-20-3-6-4-7-4-18 0-10 1-11 3-16l3-5-6 6c-6 6-10 14-10 21 0 6 4 17 8 22 3 4 12 11 21 16 13 7 18 17 13 30-3 9-23 26-49 42-10 5-10 6-1 5 6 0 9 0 12-2zm143-6l-3-1c-5 0-18-5-22-9-4-3-4-4-4-8l1-3c2 0 3 0 3 2 2 7 12 14 24 15 8 0 13-1 6-2-5-1-14-5-17-8-6-5-8-11-5-13 2-2 5 0 5 4 0 3 5 7 15 11 8 4 16 4 20 1l2-2h-2l-11-4c-9-4-20-14-18-16l-1-1c-1 1-2-2-2-6 0-3 2-2 6 4s7 8 14 13c8 5 18 7 24 5 4-1 4-3 0-3s-15-6-20-10c-5-5-7-7-7-11 0-3 3-2 5 2 3 4 10 11 15 14l8 2c10 1 18-4 9-5-9-2-18-9-21-18-1-3-2-5-4-5-6-2-10-8-9-14v-17c-3-10-15-16-31-16h-9l6 2c12 4 22 15 22 24 0 2 0 3 2 3l5 3c5 4 3 9-3 5l-5-2c-4 0-11 3-12 6v10c3 2 2 3 0 5h-8c-3 2-4 4-3 7 0 3 3 4 6 1 3-1 5 0 4 3-2 6-13 5-16-2l-4-4-6-2c-4-1-4-1-5 2-2 4-1 5 2 7s3 2 5 0c4-2 8-1 9 2 0 2-1 5-5 7-8 3-2 13 11 19 8 4 24 6 24 3zm1-46l1-4v-3c-1-2-5-1-8 2-3 2-4 3-4 0s5-7 8-7c4 0 10 3 11 6v5c-3 2-7 3-8 1zm-489 46l-3-1-10-2c-11-4-17-10-17-16 1-3 4-4 5 0 1 7 12 14 24 15 8 0 13-1 6-2-14-3-27-15-22-21 2-1 5 1 5 3 0 4 5 8 15 12 8 4 16 4 20 1l2-2h-2l-11-4c-13-6-24-19-21-24 1-2 1-2 9 8 3 5 14 13 20 15h16c3-1 2-3-1-3-6 0-23-11-26-17-4-7 1-8 4-2 3 4 10 11 15 14 6 3 21 2 21-1l-5-3a29 29 0 01-21-20l-3-2c-5 0-10-8-10-13l2-9c2-15-10-25-32-25h-9l6 2c12 4 22 15 22 24 0 2 0 3 2 3l5 3c5 4 3 9-3 5l-5-2c-4 0-11 3-12 6v10c3 2 2 3 0 5h-8c-3 2-4 4-4 7 1 2 2 3 4 3l2-1c2-2 5-1 5 1 0 7-15 6-17-1 0-2-1-3-3-4l-6-2c-4-1-4-1-5 2-2 4-1 6 2 7 2 2 3 2 5 0 4-1 8-1 9 2 0 2-1 5-5 7-2 0-3 2-3 3-1 2 1 7 5 11 3 3 11 7 15 8h18zm1-46l1-4v-3c-1-2-5-1-8 1-3 3-4 4-4 1s5-7 8-7c7 0 13 7 10 12h-7zm-55 39l-1-4c0-3-3-5-4-3l-3 4-3 4 2 1 6 1c4 0 4 0 3-3zm488 0l-1-4c0-3-3-5-4-3l-3 4c-2 3-2 3-1 5l6 1c4 0 4 0 3-3zm-235-10c2-1 3-2 4-7 4-13 17-31 29-42 19-17 33-23 62-27h11c2 0 2 0 2-6v-7h-6c-7-1-17 0-26 2l-10 3c-4 1-26 13-31 17a139 139 0 00-44 60c-2 5-2 6-1 7h10zm119-2l5-3c0-2-8-6-11-7-3 0-4 0-5 2s0 6 2 9c3 3 3 3 9-1zm369 2c2-1 3-3 5-8 4-13 16-30 28-41 15-13 30-22 45-24 14-3 25-4 28-3h2v-13h-5c-6-1-18 0-27 2l-10 3-30 16-14 12c-11 11-25 31-30 44-3 10-4 12-2 12h10zm119-2l5-3c0-2-7-6-11-7-3 0-4 0-5 2s0 6 2 9c3 3 3 3 9-1zm-858-1l5-2 4-2v-2l-3-2-3-2-2 4-4 6c-2 3 0 2 3 0zm487 0l6-2 4-2v-2l-3-2-3-2-2 4-4 6v2l2-2zm-249-7a101 101 0 0118-32c6-10 15-20 22-26a145 145 0 0130-17c14-7 25-10 41-9 9 1 11 1 11-1l1-1c-5-4-17-6-30-6-9 0-12 0-19 3-16 5-29 13-42 24-4 3-7 6-8 5v1l-9 12a127 127 0 00-26 43c-1 4-1 4 3 8l4 4 4-8zm488 0a128 128 0 0118-32c5-8 15-20 21-25a156 156 0 0134-20c11-5 18-6 34-6 17-1 20-2 13-5-6-3-15-4-27-4-9 0-12 0-19 3-16 5-30 13-43 25-3 3-6 5-7 4v1l-7 9c-14 16-25 34-28 46-1 4-1 4 3 8l4 4 4-8zm-457-2a315 315 0 0118-15c1-4 17-19 25-23 16-9 32-12 58-9l5 1-3-2-8-7c-4-5-5-5-10-5-9 0-25 3-32 6-24 9-38 20-52 39-7 11-13 23-10 23 0 0 5-3 9-8zm488 1a401 401 0 0117-16l9-10c12-12 22-17 38-21 9-2 24-3 33-1s10 1 5-2c-3-1-6-5-8-7-3-4-4-4-9-4-15 0-28 3-45 11a108 108 0 00-50 55c-1 4 2 2 10-5zm-374 1l4-2-2-3c-6-6-18-11-26-11l-5 1 2 4c2 4 3 5 6 5 5 0 11 3 14 6 2 4 2 4 7 0zm488 0l4-2-4-5c-6-5-17-9-24-9l-5 1 2 4c2 4 3 5 6 5 5 0 11 3 14 6 2 4 3 4 7 0zm-476-13c-3-6-18-13-32-17-10-2-10-2-20-1l-12 4-3 2h5l10 3c3 2 7 2 13 3 14 0 24 4 31 12l2 2 4-3c4-3 4-3 2-5zm488-1a71 71 0 00-36-17h-16l-12 4-3 1 5 1 9 3c4 2 8 2 14 3 14 0 24 4 31 12l2 2 4-3 4-3-2-3zm-659 2l1-5-5 3-5 3 3 2 4 3 2-6zm488 0l1-5-5 3-5 3 3 2 4 2 2-5zm-618 0c-8-8-11-17-11-28l1-7c2-1 2-1 3 8 0 6 0 10 2 14 3 9 11 16 18 16h3l-2-2-8-6c-4-5-5-7-7-14-3-8-4-12-2-16 2-5 3-3 3 3 0 9 5 21 10 26 4 4 15 9 18 9l5-1 2-1-5-3c-9-4-12-7-16-15-3-8-4-14-2-16 2-1 3 1 4 6 1 12 12 25 22 25 4 0 4-1 0-3-5-2-12-10-15-15l-3-12c0-6-1-6-3-6l-4-2c-2-3 0-6 4-6s5-2 4-6c-2-4-4-6-7-6-6 0-11 4-13 9 0 3 0 3-3 1-3-1-4-1-9 1-4 2-5 5-4 11 1 4 1 4-1 3-3 0-10 3-11 6v4c1 3 6 6 9 5 2 0 2 0 2 3 0 8 12 20 19 20 2 0 1-1-3-5zm4-33c-1-1 1-6 2-6 2 0 4 4 4 6-1 1-6 2-6 0zm484 33c-5-6-8-11-10-18-2-6-2-16 0-17s3 2 3 6c-1 5 1 16 5 21 4 7 11 12 16 11 2 0 1-1-4-5-6-5-9-9-12-18-2-7-3-11-1-15 2-5 3-3 3 3 0 9 5 21 10 26 4 4 15 9 18 9l5-1c2-1 2-1-3-4-9-4-12-7-16-15-3-8-4-14-2-16 2-1 3 1 4 6 1 12 12 25 22 25 4 0 4-1-2-4-8-5-15-15-16-26 0-6-1-6-3-6-4 0-6-2-4-6 1-2 2-2 4-2 2 1 3 0 4-1 2-4-2-11-7-11-6 0-11 4-13 9 0 3 0 3-3 1-3-1-4-1-8 1-5 2-6 5-5 11 1 4 1 4-1 3-2 0-10 3-10 6-2 3-1 5 2 7l6 3c2-1 2-1 2 2 0 8 12 20 19 20 2 0 1-1-3-5zm4-33c-1-1 1-6 2-6 2 0 4 4 4 6-1 1-6 2-6 0zm-564 29c1-3 3-4 7-6 2 0 1-1-3-2l-12-4-7-4 1 7 1 7 10 4 3-2zm488-1l6-4 3-1-5-2-12-4-7-4 1 7 1 7 10 4 3-3zm-293-1c2 0 3-2 3-3l5-1c3 0 4 0 6-4l1-4c-4 0-9 2-11 4-3 3-11 7-14 7s-3 1 0 3c3 1 6 0 10-2zm488 0c2 0 3-2 3-3l5-1c3 0 4 0 6-4l1-4c-4 0-9 2-11 4-4 3-11 7-14 7s-2 1 0 3c3 1 6 0 10-2zm-557 0s-1-2-3-2l-9-7c-9-7-13-18-12-30l3-8 4-5h-3c-5 0-8 2-7 5l-1 8-2 9c0 13 10 27 22 31 3 1 7 1 8-1zm254-6c0-5 0-6-3-8a89 89 0 00-64-12c-14 3-30 12-37 20-2 3-2 4 4 2l10-3c4 0 8-1 10-3 10-7 30-9 46-4l15 5 1 1c1-1 9 4 13 8 4 3 5 2 5-6zm234 6s-1-2-3-2l-9-7c-6-5-10-13-12-22-1-7 0-11 4-17l3-4h-3c-5 0-8 2-7 5l-1 8-2 9c0 13 10 28 22 31 3 1 7 1 8-1zm255-5c0-6 0-6-3-9-6-6-20-11-34-13-23-3-43 1-59 14-7 5-12 10-10 10l5-1 10-2c4-1 8-2 10-4 13-8 34-9 58-1 4 2 13 7 17 11 4 3 5 2 6-5zm-736 3l-7-8c-9-9-12-16-12-26 0-8 0-8-2-8-4 0-6 4-6 11s4 16 10 22c4 4 17 10 17 9zm488 0l-7-8c-9-9-12-16-12-26 0-8 0-8-2-8-4 0-6 4-6 11s4 16 10 21c4 5 17 12 17 10zm-471-5l-3-2c-1-1-2-1-1-2l-1-1c-1 1-7-6-10-12-4-7-6-18-6-24 1-5 1-5-1-5-3 0-5 2-4 4l-2 5c-8 7 2 28 17 36 6 3 10 4 11 1zm34 1l-5-2c-8-3-15-8-19-14-3-5-3-6-3-12l3-12c3-5 3-5 1-7l-3-4c-1-2-4-1-7 4-1 3-2 5-2 11 0 8 1 9 4 17 5 9 11 15 18 18 5 2 12 3 13 1zm454-1l-3-2c-1-1-2-1-1-2l-1-1c-1 1-7-6-10-11-4-7-6-19-6-25 1-5 1-5-1-5-3 0-4 1-4 5l-3 4-2 6c0 4 1 7 4 15 5 10 25 22 27 16zm34 1l-5-3c-9-3-15-7-19-14-3-5-3-6-3-12l3-11c3-5 3-5 1-7l-3-4c-1-2-4-1-7 4l-1 11c0 8 0 9 3 16 5 10 11 16 17 19 5 2 13 3 14 1zm-518-8c-8-10-12-23-10-32 1-5 5-13 7-15 3-2 2-3-3-3-4 1-6 1-8 4l-1 3c2 2 1 6-2 7-2 1-2 2-2 7 0 10 3 16 12 25 7 7 11 9 7 4zm40 2l-3-3c-8-4-14-14-14-21l-3-3c-3-3-3-7 1-8 4 0 4-1 0-3-8-4-16 16-10 25 5 8 14 14 23 14l6-1zm448-2c-7-10-10-17-10-29 0-7 2-13 7-17 3-3 3-3 2-4-4-1-10 1-13 4l-1 3c2 2 1 6-2 7-2 1-2 1-2 8 1 10 5 18 13 25 7 7 10 8 6 3zm40 2l-2-2c-7-4-13-12-15-20 0-2-1-4-3-5-3-3-3-7 1-8 4 0 4-1 1-3-3-1-3-1-5 1-6 4-8 9-8 17 0 7 5 14 15 18 5 3 16 4 16 2zm-690-7c0-5-4-14-11-24-15-22-30-33-45-32-6 0-8 3-8 7 1 3 1 3 3 2 3-3 11-2 16 0 10 5 32 33 35 45 1 3 4 5 8 5 2 0 2-1 2-3zm488-1c0-7-12-28-24-39-9-10-22-16-32-16-6 0-8 3-8 7 1 3 1 3 4 2 3-3 10-2 15 0 11 5 32 33 35 45 1 3 4 5 8 5 2 0 2-1 2-4zm-271 2l-5-3c-11-6-16-16-16-26 1-7 1-8 4-8s5-3 3-6c-2-2-7-1-10 2s-4 5-2 6v11c-2 2-2 3-1 7 3 8 8 14 16 17h11zm488 0l-5-3c-11-6-16-16-16-27 1-6 1-7 5-7 5-1 3-7-2-7s-11 7-8 9v11c-2 3-2 4-1 7 3 8 8 14 16 17h11zm-676-8c3-1 3-1 3-4l-2-5c-1-4-10-11-15-14-4-2-15-3-15-2l6 6c7 7 13 18 13 23v3l3-3 7-4zm488 0c3-1 3-1 3-4 0-4-2-7-8-12a31 31 0 00-24-9l6 6c7 7 13 18 13 23v3l3-3 7-4zm-291 2c2-1 3-4 1-4s-10-8-12-12c-4-8-5-17-3-23 2-4 2-8-1-8l-3 2c-2 2-2 2-1 4l2 5c0 4-3 11-6 12-2 1-2 4-1 9 2 7 8 12 15 15 6 2 7 2 9 0zm489 0l2-3-6-4c-7-6-11-13-12-22l1-10c3-4 2-8-1-7-4 1-5 2-4 5 3 4 2 11-3 16-3 4-3 4-1 10 1 7 7 13 14 15s7 2 10 0zm-655-11l4-8c2-4 2-6-3-12-2-3-8-5-19-7-8-1-8-1-14 2l-6 2 4 1c7 0 16 2 19 5 4 2 8 8 9 17 1 5 1 6 3 5 2 0 3-2 3-5zm306-1c-5-8-7-16-7-26 0-7 0-9 6-22 1-3-6 4-10 9-5 7-7 13-6 21l2 10c2 3 18 16 19 15l-4-7zm182 3l1-4 2-6c3-4 3-6-2-12-2-3-8-5-19-7-8-1-8-1-14 2l-6 2 4 1c7 0 16 2 19 5 4 2 8 10 9 18 1 4 1 5 3 4 1 0 3-1 3-3zm307-2c-3-4-5-9-7-15-3-12-3-17 5-34 1-2-5 3-9 8-5 7-7 11-7 18 0 9 1 13 6 18l15 11-3-6zm-622 3c1-2 1-2-2-5-7-6-9-15-4-21 3-2 4-3 6 0 2 1 2 1 2-2 0-2 0-3 2-3l4 2c1 1 1 1 1-2-1-4-4-8-8-8-3-1-11 1-15 5-3 2-3 3-4 9 0 5 0 7 2 11 3 6 7 11 10 13 4 2 4 2 6 1zm488 0c1-2 1-2-2-5-7-6-9-15-4-21 3-2 4-3 6 0h2c-1-2 1-5 3-5l3 2c1 1 1 1 1-1l-3-6c-3-4-9-4-15-1s-8 5-9 12c0 5 0 7 2 11 3 6 7 11 10 13 4 2 4 2 6 1zm-476-11l5-5-4-2c-3-3-9-5-11-5l-1 2-3 2c-3-1-1 9 3 11 3 2 7 1 11-3zm489 0l4-5-4-2c-3-3-9-5-11-5l-1 2-3 2c-3-1-1 9 3 11s7 1 12-3zm-654-6l3-4 2-3-2-3c-4-6-19-13-28-13-3 0-7 1-10 3-6 3-6 3 6 5l9 2c3 2 8 7 10 11 2 2 3 3 6 3l4-1zm488 0l3-4 2-3-2-3c-4-6-19-13-28-13-3 0-7 1-10 3-6 3-6 3 5 5 9 1 15 5 20 13 2 3 3 3 6 3l4-1zm-311-5l3-3-7-4-7-4v3l-1 5c-1 2 0 2 3 4 5 2 5 2 9-1zm488 0l3-3-7-4-7-4v3l-1 5c-1 2 0 2 3 4 5 2 5 2 9-1zm-641-1c2-2 13-4 18-3 4 0 5 0 10-4a3106 3106 0 0167-51c6-2 17-2 20 0l32 30 16 12 9 4 3-2c4-1 5-3 3-3l-10-6-23-20a95 95 0 00-34-25c-13-5-21-2-37 13l-27 23c-11 9-22 14-34 18a330 330 0 01-30 7l1 2 6 3 6 2h4zm488 0c2-2 13-4 17-3 5 0 7-1 14-6a523 523 0 0140-32c15-13 21-17 28-18 6-1 14 0 16 1l32 30 16 12 9 4 3-2c4-1 5-3 3-3l-10-6-23-20a95 95 0 00-34-25c-13-5-21-2-37 13-17 16-32 27-42 33-9 5-38 14-46 14-5 0-2 4 4 6l6 2h4zm-409-2c2 0 4-1 6-4l7-6 7-5c3-3 3-3 1-3-4 0-10 3-17 9l-9 7c-5 3-5 5-1 3l6-1zm488 1c2-1 4-2 6-5l7-6c3-1 6-3 7-5l3-3h-2c-4 0-10 3-17 9l-9 7c-5 3-5 4-1 3h6zm-659-4c3 0 7-5 10-10l6-19c0-3 8-10 12-10 3 0 4-1 4-3s-1-3-4-4c-7-4-17 2-21 13a612 612 0 00-11 32c-2 3-2 3 0 3l4-2zm488 0c3 0 7-4 9-9 2-2 7-17 7-19 0-3 8-11 12-11 3 0 4-1 4-3s-1-3-4-4c-4-3-9-1-15 3-4 4-5 5-10 24-3 9-5 16-7 18-2 3-2 3 0 3l4-2zm-496-1c2-2 7-14 7-17l7-22c2-3 8-9 12-11l10-1c6 0 7 0 8-2s1-3-1-4c-5-4-15-5-22-2-6 3-9 7-16 24l-9 20c-3 6-9 13-12 13l1 2c3 3 12 3 15 0zm488 0c2-2 6-12 8-22 4-12 7-18 11-23 6-5 8-6 16-6 7 0 8 0 9-2s1-3-1-4c-5-4-15-5-22-2-5 2-9 8-13 16a253 253 0 01-20 39l-4 3c-1 1 4 3 9 3 4 0 5 0 7-2zm-345-3c4-5 11-8 16-6l6-1 20-15c15-13 22-13 33-2 11 10 37 28 42 28l4-2 3-2-4-2-18-13c-29-26-35-30-43-29-6 1-19 8-26 14l-23 19c-11 7-20 14-17 14l2 1 5-4zm487 0c5-5 8-6 16-6 6 0 7 0 14-6l13-10c14-13 22-13 34-1a108 108 0 0017 14l24 13 4-2 3-2-4-2c-5-2-6-3-25-20-21-17-28-22-34-22-7 0-20 7-28 14-11 10-16 14-24 19-10 6-18 13-16 14s2 1 6-3zm-455 0a188 188 0 0118-14c6-3 9-4 12-1 2 1 3 2 6 1 3 0 5 0 6 2 2 2 3 2 4 1 2-1 1-2-4-8l-8-7h-9a289 289 0 00-29 21c-4 2-4 2-3 5 2 3 3 3 7 0zm495-5c15-11 16-12 19-12l4 2c2 1 3 2 6 1 4 0 5 0 6 2 2 1 3 2 4 1 2-1 2-2-3-7-6-7-9-9-14-9-3 0-5 1-18 11l-15 12c-4 1-4 2-2 4l2 2 11-7zm-684 1c3-2 10-14 12-18 1-5 10-27 13-30 4-8 10-10 20-10 5 0 8 0 11 2l4 2 2-2 2-4c0-4-12-11-19-11-6 0-15 4-18 8s-7 11-13 25c-5 14-14 28-19 30s-7 4-7 5c0 2 5 6 7 6l5-3zm117-3c13-3 28-9 36-15 8-5 19-14 33-29 14-13 26-17 37-13a104 104 0 0130 18l-4-9-5-9-7-3c-11-5-18-7-25-7-12 0-23 5-32 16-14 14-29 28-40 35-14 8-31 14-47 16-9 0-9 1-3 4 4 2 4 2 9 0l18-4zm371 3c4-3 9-12 16-29 8-20 10-23 17-27 6-3 17-3 23 0l4 2 2-2 2-4c0-4-13-12-20-11-5 0-14 4-17 8s-6 10-11 23c-7 18-16 29-24 34l-5 2 3 4c4 4 6 4 10 0zm117-3c14-3 29-10 39-17 7-4 18-14 30-26 14-14 26-18 38-14a100 100 0 0129 18l-4-9-5-9-7-3c-11-6-18-7-25-7-12 0-23 5-33 17-12 13-27 26-39 34-7 4-22 11-29 13l-17 2-9 2 4 2c5 3 6 3 10 1l18-4zm-562-4c5-7 9-18 9-20 0-1-1-1-4 2-5 4-8 10-11 20l-2 7 2-2 6-7zm488 0c5-8 9-17 9-19s-1-2-4 1l-7 8-5 17c0 2 3-1 7-7zm-479 3l4-4c3-3 9-15 11-20 8-29 23-51 40-60 10-5 27-2 37 8 4 3 4 3 6 1s1-4-3-8c-11-10-29-15-41-10-6 3-19 12-22 16-4 4-12 16-17 26-4 7-10 24-12 32 0 3-6 15-9 19l-2 3 2-1 6-2zm489-1c3-1 4-3 8-10l6-13 10-27c7-14 20-28 30-33s28-2 37 8l4 3 2-2c2-2 2-3 0-5-3-4-11-9-19-12-9-4-17-4-25-1-8 4-20 13-23 17-11 14-20 30-24 45-4 14-7 23-12 29-3 5-3 5 0 4l6-3zm-239-1c3-1 4-3 2-3s-14-8-21-14c-9-8-19-25-23-38-2-8-2-22 0-32 2-8 8-20 13-27 4-6 18-19 26-24a227 227 0 0137-21c0-2-20-1-27 1-28 7-54 34-60 63-3 12-3 29 0 38 3 11 11 26 19 35 6 7 20 18 28 22h6zm488 0c3-1 4-3 2-3s-17-10-23-16c-7-7-13-17-19-30-2-6-2-7-2-22 0-16 0-19 6-31 4-10 8-14 19-25a172 172 0 0151-32l-10-1c-21 0-37 7-54 24a87 87 0 00-23 41c-3 13-3 29 0 38 6 20 19 38 34 49l16 9 3-1zm-692-3a95 95 0 0034-10c17-10 26-17 40-32 16-18 28-24 42-24a45 45 0 0125 8l3 2v-2l-1-6c0-7-12-13-24-13-17 0-27 6-49 29-16 17-28 26-40 31-14 7-19 8-31 9l-14 1-15 9 30-2zm265-2l3-4h-5c-11 0-31-7-46-17-12-7-22-17-27-28-2-5-2-7-2-14 0-10 1-16 6-26 4-7 6-9 13-16a125 125 0 0158-31l12-4c3 0 8-2 11-4l5-4h-7c-21-1-49 9-69 24-10 7-28 24-31 30s-5 13-6 23c0 13 2 22 10 36 7 13 21 24 38 31l25 7c9 1 10 1 12-3zm224 2a68 68 0 0013-2c9-2 18-6 36-18 8-6 12-9 24-22 16-17 28-24 42-24a45 45 0 0125 8l3 2v-2l-1-6c0-4-3-7-10-10-8-4-14-4-23-2-12 2-19 7-39 27s-29 27-41 32c-14 7-19 8-33 9-13 1-14 2-20 5l-7 5 31-2zm264-2l3-4h-5c-11 0-30-7-46-16-12-8-21-17-27-29-4-10-3-25 4-40 4-7 6-9 13-16a124 124 0 0160-32l10-2 11-5 5-4h-7c-22-1-50 9-71 26-11 8-27 24-29 29-6 10-7 26-4 39 2 9 8 21 14 28s18 16 29 20c13 5 26 9 36 10 1 0 3-1 4-4zm-861 1c10-4 18-16 24-36 4-13 6-17 10-22 4-4 9-6 16-8 5-1 6-1 12 1 5 1 8 3 10 6l5 3 2-3 2-3-6-6c-6-7-12-9-22-9s-22 8-32 21c-5 7-6 11-8 18-2 9-9 23-15 29l-7 6c-1 1-1 1 1 3l3 2 5-2zm488 0c5-3 7-4 12-11 6-8 9-13 14-30 4-15 11-22 24-25 5-1 6-1 12 1 5 1 8 3 10 6l5 3 2-3c2-2 2-3 0-5-2-4-9-9-14-11-15-5-29 0-42 17-6 8-8 12-10 20-2 10-9 23-16 30-7 6-7 7-5 8 3 2 2 2 8 0zm-154-1l-9-5a83 83 0 01-18-12c-8-6-17-21-21-34l-1-17c0-18 6-31 21-45 27-26 64-41 94-38l7 1 7-4 5-5-32-1c-31 3-67 20-90 43a79 79 0 00-24 51c0 11 3 22 9 34 4 7 7 10 13 17 14 13 22 16 32 15h7zm241-7l3-4 5-13 4-9c7-15 9-19 17-27 8-7 9-8 18-7 5 0 11 3 14 7 3 3 3 3 4 1l2-2c0-2-9-10-14-12s-6-3-12-2c-9 1-14 4-21 12-13 14-15 18-30 57l-2 5-1 1c0 1 8-3 13-7zm-497 5c6-2 12-7 12-9l1-4 5-11c9-20 12-25 20-33 7-7 8-8 12-8 10-1 14 1 19 6 4 4 4 4 6 2l1-2c0-1-10-10-14-12s-5-2-11-2l-12 3c-7 4-25 24-28 35a2320 2320 0 00-11 35zm-88-5c7-4 15-16 18-30 4-15 8-22 16-29 9-9 20-15 30-15l12 2c6 2 9 4 13 8l6 5-2-8c-2-5-10-12-14-14l-11-3c-10 0-18 2-30 11a79 79 0 00-26 27l-3 8-3 11c-3 10-5 13-12 19l-4 4 3 3c3 2 3 2 7 1zm488 0c7-4 14-16 19-31 4-15 7-21 15-29 6-6 12-10 21-12 12-4 27 0 35 9 4 5 5 5 5 2 0-6-9-17-16-20l-11-3c-10 0-19 2-30 11-18 13-24 21-29 35-6 20-7 23-13 28l-5 6 2 3c3 2 3 2 7 1zm-97-2c10-3 11-5 3-6-11 0-25-3-33-6-22-9-37-20-42-30l-1-13c0-13 2-18 11-28 18-18 40-28 75-33 14-2 38 1 50 7 14 7 19 14 19 28 0 5 1 5 2 4 9-2 10-10 3-21-8-13-20-19-42-24-36-7-58-3-91 16-11 7-25 21-29 29s-5 15-5 23c1 9 2 14 6 18l2 3a63 63 0 0022 20c8 5 22 11 33 12 11 2 12 2 17 1zm-270-1c12-2 23-6 32-12 10-7 13-9 29-24 23-22 29-27 43-32 5-2 7-2 13-2 8 1 17 4 20 7 3 2 3 1 3-4v-5l-5-3c-6-4-18-6-25-6-7 1-15 4-18 6l-4 2c-2 0-22 19-33 31a269 269 0 01-19 19l-8 5c-9 6-16 9-25 11-7 1-11 3-13 6-3 2-3 2 10 1zm488 0c11-2 21-6 31-11 9-6 13-9 26-21 27-27 32-31 47-36 5-2 7-2 13-2 8 1 17 4 20 7 3 2 3 1 3-4v-5l-5-3c-2-2-8-4-12-5-21-4-38 5-66 36-14 16-18 19-28 26-10 6-15 9-24 11-10 2-12 3-15 6-3 2-3 2 10 1zm-619-6l8-8c4-7 5-8 7-20l2-10c1-2 1-2-2-1s-3 2-6 11c-4 11-7 16-15 21-6 3-7 5-5 5l4 2c3 2 2 2 7 0zm487 0c3-1 6-4 8-8 6-8 6-8 8-20l3-10c0-2 0-2-3-1s-3 2-6 9c-4 14-7 19-17 24-4 3-5 4-3 4l4 2c3 2 2 2 6 0zm-361-6l9-14 8-12c3-3 4-4 8-4l6 2 3 2 3-2 3-4c1-2-5-8-9-8-12-3-18 2-28 18-4 8-12 26-12 29l9-7zm488 0c4-4 7-8 9-14l8-12c3-3 4-4 8-4l6 2 3 2 3-2c4-3 4-5 1-8-7-7-19-6-27 2a125 125 0 00-20 41l9-7zm-646 0l12-8c7-6 15-16 11-14l-6 4a137 137 0 01-30 21l13-3zm462 1c15-3 26-9 36-17 11-9 25-17 35-20 6-2 8-3 12-7l5-4-5 1a94 94 0 00-42 20 85 85 0 01-28 16c-17 5-29 6-50 5-24-2-44-12-51-26l-1-10c-1-8 1-13 7-20a83 83 0 0146-25c9-3 23-5 31-5s22 3 28 6c4 2 10 8 11 12 2 3 1 11-1 15-3 6-13 14-29 20-9 3-18 5-32 6l-19-1c-5-3-8-5-9-8-1-2-1-2-2 0-1 8 16 15 34 14 16-1 38-9 50-17 14-8 18-12 21-17 3-4 3-5 2-9 0-6-2-9-7-14-10-9-28-15-49-14a113 113 0 00-31 4c-7 1-21 7-29 11-7 4-19 14-23 19-6 8-7 12-7 21-1 10 1 14 9 22 5 5 14 11 17 11l5 3c5 3 14 5 32 8 9 2 27 2 34 0zm26-1l12-8c7-6 15-16 11-14l-11 8a134 134 0 01-25 17l13-3zm-315-1c14-5 27-15 40-29 23-25 31-32 46-39 12-6 26-5 39 1l6 3c1 1 1-1 2-3l2-6c1-3-22-11-31-11-6 0-14 2-19 4-11 5-31 23-45 40s-25 27-41 34c-8 4-12 9-8 9l9-3zm488 0a119 119 0 0041-31c22-23 30-30 45-37 12-6 26-5 39 1l6 3c1 1 1-1 2-3l2-6c0-2-10-7-19-9-16-4-28-1-43 9-7 5-22 20-30 30-16 19-29 30-44 37-8 4-13 9-8 9l9-3zm-636-4c5-4 7-6 10-11l5-14-5 1-8 9c-4 7-9 13-15 18l-4 3h5c4-1 6-1 12-6zm488 0c5-4 7-6 10-11l5-14-5 2c-3 1-4 3-7 8-5 7-11 14-17 18l-3 3h5c4-1 6-1 12-6zm-342-5l6-4 8-5c4-3 4-3 2-5-3-4-9-2-14 5-4 7-6 12-2 9zm283 0c18-3 37-10 53-22 11-9 28-17 38-18l11-4 2-3-5-1c-15 0-32 7-45 17-12 11-19 15-26 18a116 116 0 01-67 7l-3-1c-4 0-17-8-23-13-5-6-5-6-5-10 0-6 5-16 10-20l24-14c8-3 17-5 31-5 15 0 19 1 26 5 5 2 7 9 3 15-1 2-10 9-16 11-10 5-29 7-37 5-3 0-4-1-4-4 0-4 1-6 7-6l10-2c6 0 15-4 16-6 2-2 0-4-4-5-7-1-28 7-35 13-3 3-5 9-3 12 1 2 7 5 13 6 7 0 28-3 38-7 11-3 19-8 24-13 5-4 5-5 5-10 0-4-1-6-3-9-4-7-11-10-24-12l-7-1c-4-1-24 2-34 5-17 5-26 10-34 18-19 19-17 35 6 46 12 6 17 7 27 8l11 1 20-1zm205 0l6-4 8-5c4-3 4-3 2-5-2-3-6-2-10 1-5 5-11 18-6 13zm-197-11l10-4 4-1c1 1 25-15 33-22 12-9 30-14 46-14 9 0 10 0 12-2l2-2-4-1c-5-1-23-1-30 1-10 3-23 10-32 18l-24 15c-4 3-19 8-26 9l-21 1c-14 0-15 0-20-3-8-3-14-9-15-13-3-12 19-26 46-29h14c8 3 6 9-5 13-2 1-9 3-15 3-11 2-12 3-11 4 1 2 9 2 18 1 12-2 24-8 28-13s4-6 1-9c-5-4-25-6-38-4-10 3-22 6-27 9-11 7-18 16-18 24 0 5 1 7 9 12 6 4 9 5 22 8 12 2 30 2 41-1zm-240-38c0-5-12-15-22-19-18-7-36-3-51 10-9 8-11 10-9 13s3 3 10-3l14-9c7-3 8-3 17-4 7 0 10 1 15 3 8 2 15 8 18 14l2 3 3-3 3-5zm488 0c0-5-13-16-24-20-12-4-27-3-40 4-4 2-19 16-19 18l1 3c2 2 4 1 12-6 4-2 9-6 13-7 6-3 7-3 16-3 8 0 12 0 16 2 6 2 14 8 17 14l2 3 3-3 3-5zm-568-9c7-6 14-12 22-15 5-2 7-3 20-3h14l7 4 15 11c6 6 7 8 8 7l4-5 3-3-4-5c-5-6-11-12-17-15-13-7-12-6-25-7-9 0-14 0-18 2-11 3-32 17-38 26l-2 4 2 3 3 2 6-6zm488 0c7-6 14-12 22-15 5-2 7-3 20-3s14 1 20 4c4 2 10 6 15 11 8 7 9 8 10 6l4-4 2-3-5-6-5-6-4-3-16-9c-5-3-25-4-34-2-11 4-30 17-37 27l-3 4 2 3 3 2 6-6zm-535-4c4-1 10-5 15-9 10-8 12-9 15-9l6-2c2-3 2-3 0-3-1-1-3-2-3-4l-4-2c-4 0-8 3-31 24l-6 4c-6 5-3 5 8 1zm488 0c4-1 10-5 15-9 9-7 13-9 16-9l5-2c2-3 2-3 0-3-1-1-3-2-3-4-4-5-8-2-23 11l-16 14c-7 6-5 6 6 2zm-533 0c10-4 14-6 22-12 10-6 12-8 22-17 8-8 17-15 21-16 6-3 12-3 17-1l6 2c5 1 6 8 2 10-3 0-4-1-4-3 0-3-3-2-5 1-1 3-1 3 1 6l4 3c3 0 10-5 12-9s2-5 1-10c-1-6-6-12-11-14-5-3-13-2-20 0-10 4-13 6-49 35-7 5-23 15-27 16l-2 3c0 3 3 8 5 8l5-2zm80-2c4-7 25-24 29-24l5-2c11-5 26-6 42-1 10 2 17 7 27 17l7 9 4-3 3-4c0-2-21-18-32-23-12-6-11-6-26-7-16-1-28 3-43 13l-24 23c-1 3-1 4 1 5 2 2 4 1 7-3zm408 2c15-6 27-14 41-27 12-11 20-17 25-19 4-2 13-2 17 0l5 2c5 1 6 8 2 10-3 0-4-1-4-3 0-3-3-2-5 1-1 3-1 3 1 6l4 3c3 0 10-5 12-9s2-5 1-10c-3-13-16-19-31-14-6 3-22 13-34 23-18 15-34 26-41 28-3 1-3 2-3 4l4 7 6-2zm80-3l9-9c8-7 18-14 20-14l5-2c6-3 17-5 24-4l19 3c9 2 16 7 26 17l7 9 4-3 3-4a122 122 0 00-45-29l-13-1c-10 0-13 0-19 2-8 2-16 6-24 11l-24 23c-1 3-1 4 1 5 2 2 4 1 7-4zm-535 1c4-2 13-10 21-18 7-7 13-11 18-13 2 0 4-1 4-3l3-4c2-2 1-4-3-4-7-1-13 2-29 16-15 14-24 20-31 24l-5 2 8 1a605 605 0 0114-1zm488 0c4-3 20-16 23-20 4-4 12-9 16-11 2 0 4-1 4-3l3-4c5-6-11-5-19 1l-9 8a367 367 0 01-34 27l-5 2 7 1a681 681 0 0114-1zm-451-6c5-6 5-8 0-4l-12 11h4c3 0 4-1 8-7zm488 0c7-9 4-8-8 2l-3 4 3 1c3 0 4-1 8-7zm-297-4c1-6 12-24 21-36l11-15c12-15 17-19 28-22 7-2 16-2 31 3l9 2 6-3 5-3-11-6c-8-4-15-7-21-8-9-2-9-2-16 0-13 3-23 9-32 22a385 385 0 00-31 43l-12 16-4 5 3 1 6 4 4 2 3-5zm488 0l4-9a478 478 0 0129-43c10-13 17-18 27-21 7-2 16-2 31 3l9 2 6-3 5-3-11-6c-14-7-28-11-34-9l-7 2c-5 1-17 8-21 13l-10 11a409 409 0 01-18 25 492 492 0 01-20 29l-6 7 3 1 6 4 4 2 3-5zm-741-9l46-37c6-5 14-8 22-9 8 0 13 1 19 5 5 4 7 9 7 18l1 8 7-5c1-4 0-14-2-18-7-13-20-19-37-15-16 3-25 9-51 31-12 9-33 24-35 24l2 4 2 4 7-3 12-7zm205 3c6-5 12-13 19-26a839 839 0 0120-36c18-34 38-51 66-55 11-1 25 2 47 10a175 175 0 0069 12c13-1 23-3 34-7a290 290 0 0055-29l22-15c14-10 47-28 58-31 6-2 29-3 36-2 11 2 26 11 32 19 4 5 8 14 8 17s2 3 6 0l4-2-3-6c-5-13-9-17-19-26-14-12-18-14-35-14-13-1-15-1-29 3a273 273 0 00-79 48l-11 7-7 4c-11 7-27 14-45 20-16 5-42 7-55 5a128 128 0 01-37-13l-27-9-17-1c-16 0-23 2-34 9l-28 23a283 283 0 00-39 59c-7 16-12 24-20 33l-5 5 2 2c3 4 5 3 12-4zm284-4a490 490 0 0045-36c6-5 14-8 23-9 7 0 9 0 13 2l8 6c3 4 5 13 5 19-1 5-1 5 4 2 8-5 3-23-7-31-11-8-28-8-46 1-9 4-15 9-34 25-12 9-33 24-35 24l2 4 2 4 7-3 13-8zm-249-3a481 481 0 0028-38c17-25 26-34 42-40 6-2 7-2 15-2 10 1 15 3 24 7l10 4 7 3 4 2 7-3c11-6 11-7 5-7-10-1-23-6-40-14-16-7-36-6-50 2-6 4-14 13-21 22a375 375 0 01-12 18 275 275 0 01-17 29c-4 7-11 17-16 22l-2 3 3 1a58 58 0 015 1l8-10zm488 0a570 570 0 0029-39c8-11 17-24 21-27l19-12c6-2 7-2 16-2 10 1 15 2 24 7l10 4 7 3 4 2 7-3 9-5c1-2 1-2-2-2-6 0-24-6-35-11-14-6-17-7-27-8-11 0-17 1-27 6-11 5-23 20-36 41a512 512 0 01-34 53l2 2 5 1 8-10zm-506 4l17-23a145 145 0 0110-16c0-1 7-13 17-27 16-25 33-36 54-34 11 0 17 2 32 9 12 5 15 6 25 8 13 2 21 2 28 0 6-1 14 0 20 2h24c15-2 18-3 38-13 16-7 47-28 66-43 10-7 26-16 38-20 23-8 39-6 54 7l13 18c1 4 3 4 7 0 5-3 5-3-1-13-6-13-16-21-30-25-9-3-24-3-36 1-16 4-30 10-46 21l-25 17a462 462 0 01-65 35c-11 4-20 6-27 6l-14 1c-15 2-43-3-60-9-25-10-29-11-36-12-14-2-31 2-40 8-13 8-25 22-36 41a3893 3893 0 01-36 60l-4 6h4c4 0 5-1 9-5zm-26-8c2-2 2-2 0-1l-7 4c-3 3-4 3-3 5 1 1 2 0 5-2l5-6zm489 0c1-2 1-2-1-1l-7 4c-3 3-4 3-3 5 1 1 2 0 5-2l6-6zm-702 0l16-12c33-26 39-30 52-34 9-4 12-4 20-4 13-1 20 2 29 10 5 6 6 7 7 12v10c-1 5-1 6 3 4 3-1 4-5 4-14-2-13-10-25-22-29-8-3-21-4-30-2-10 3-22 8-29 13l-38 27a110 110 0 01-30 19l3 3c5 3 9 2 15-3zm488 0a560 560 0 0051-38c12-9 36-15 47-12 9 3 18 8 24 15 2 3 3 12 2 17s-1 5 2 5c4-1 5-7 5-15-1-9-5-16-11-22-7-6-13-9-25-10-11 0-17 1-30 6-8 3-38 23-50 33a131 131 0 01-33 21l3 3c5 3 9 2 15-3zm-279-3c12-9 16-13 19-20l2-6c-1-1-7 3-15 9a170 170 0 01-25 18l3 3c5 3 7 2 16-4zm480 5l21-16c4-3 9-13 8-15-1-1-7 3-15 9l-23 16c-3 1-3 2 1 5 4 2 5 2 8 1zm-705-9a97 97 0 0021-13c2-1 0-3-3-3s-8 2-10 4l-16 11c-5 1-5 2-2 4 2 1 3 1 10-3zm488 1l20-13c4-3-1-5-6-3-2 0-6 3-10 6l-11 7c-6 3-6 3-3 4 2 3 3 2 10-1zm-280-2l13-9c13-11 18-15 24-18l8-6c3-5 3-6-2-6-8 1-15 5-24 11a1564 1564 0 01-36 25l10 6 7-3zm488 0l13-9c14-12 18-15 24-18 5-2 7-4 8-6 3-6 3-6-3-6-9 2-14 5-36 20a382 382 0 00-23 16l10 6 7-3zm-706-3l13-9c12-9 15-10 21-8l4 2 5-3 3-4c-1-2-7-4-12-4-6 0-12 3-26 12-10 7-13 9-21 12-3 2-3 3 1 4s7 0 12-2zm488 0l13-9c12-9 15-10 21-8 4 2 4 2 9-1l3-4c-1-2-7-4-12-4-6 0-12 3-26 12-10 7-13 9-21 12-3 2-3 3 1 4s7 0 12-2zm-504-5l20-12c18-13 20-14 30-14 7 0 8 1 12 4 5 3 5 3 7 1s2-2 1-4c-2-6-14-10-25-9-9 1-25 10-41 23l-12 9c-5 3-5 4-2 5l3 1 7-4zm488 0l18-11c15-10 19-12 24-14 8-2 18-1 23 4 1 2 2 2 4 0l3-2-2-3c-5-8-23-10-36-4-9 4-20 11-30 19l-12 9c-5 3-5 4-2 5l3 1 7-4zm-271 0l11-7c2-3 12-9 20-15 17-12 24-15 33-15 5 0 5 0 7-4l5-8 2-3-8-1c-8 1-15 4-25 10a227 227 0 01-30 18l-26 14c-23 11-22 10-6 12l8 1c1 2 3 1 9-2zm488 0l8-6 13-9 19-13c8-6 17-9 24-9 5 0 5 0 7-4 1-3 3-6 5-7l2-4-6-1c-10 0-18 4-43 21l-6 3-8 4a596 596 0 01-43 24l10 1 9 2c1 2 3 1 9-2zm-222-10c18-14 38-25 46-28 6-2 9-2 14-1l9 2c3 1 9 8 10 10h3c2-1 3-2 2-3-1-6-3-9-7-12-10-7-21-7-38 0l-36 22a446 446 0 01-29 18c-1 0 4 2 9 2 2 0 7-3 17-10zm-302 7l8-4 16-9a355 355 0 0059-35c7-6 13-8 25-8 10 0 10 0 12-2 3-3 3-4-2-5-15-3-30 1-50 15l-12 6-14 9a200 200 0 01-28 16c-13 7-17 9-17 11l-1 5c0 4 0 4 4 1zm488 0l8-4 16-9a389 389 0 0059-35c7-6 13-8 25-8l12-1c3-3 2-5-2-6-15-3-30 1-50 15l-12 7-13 8-15 8c-23 12-31 17-31 19l-1 5c0 4 0 4 4 1zm-312-13l9-6c4-4 8-7 10-7h19c6 2 6 2 9 0 4-2 4-3 0-4l-13-3-11-2-7 2c-8 3-13 7-25 21l-9 12 7-5 11-8zm486 2l11-9c4-3 8-6 10-6 6-1 14-1 20 1 5 1 5 1 8-1 4-2 4-4 0-4a938 938 0 01-25-5c-6 1-15 6-19 9l-20 23-3 4 7-5 11-7zm-649-11a208 208 0 0030-16l26-17c20-12 36-16 53-13l7 1 4-4 4-4c0-1-7-4-13-5-12-2-26 1-38 7a1021 1021 0 00-90 57c1 2 2 2 17-6zm488 0a200 200 0 0029-16l10-6 29-17c14-7 28-9 41-7l7 1 4-4 4-4-12-5c-20-3-29 0-62 20a1127 1127 0 01-59 36c-7 4-9 6-8 8s2 2 17-6zm-265 3l41-22c8-3 9-3 15-3 8 1 11 2 18 9l5 5 3-2 3-3c0-2-11-10-17-13-9-5-16-5-28-2-12 4-22 10-44 24l-12 7c-2 0 0 1 3 3 4 1 6 1 13-3zm-33-1l11-1c2-1-7-3-13-3-5 0-10 2-12 5-1 1-1 1 1 1l13-2zm488 0l11-1c2-1-7-3-13-3-5 0-10 2-12 5-1 1-1 1 1 1l13-2zm-432-2c5 0 9-2 17-6l13-5 10 4c7 3 9 4 10 3 3-1 2-3-4-8-7-6-18-8-25-5l-7 4-8 3-11 7c-9 5-9 5-5 5l10-2zm42 1c1-2 1-2-2-4-4-2-5-2-11-2-3 0-10 3-10 4l6 1 9 1h8zm-299-7a274 274 0 0042-26l26-16c24-14 30-16 44-16 12 1 15 1 22 5l6 2 5-5 5-4c0-1-9-6-17-8s-12-3-25 0c-15 3-23 6-34 13a4429 4429 0 01-85 53c-1 1 2 5 3 5l8-3zm488 0a366 366 0 0053-33l9-6 13-7c13-9 24-12 37-12 12 1 18 2 23 5l4 3 5-5 5-4 1-1c0-1-11-7-18-9-8-1-12-1-24 1-15 3-22 6-35 14a22865 22865 0 01-80 50l-4 2c-1 1 2 5 3 5l8-3zm-576-7c9-5 10-7 2-3l-8 4c-4 1-5 2-3 3 1 1 0 2 9-4zm488 0l8-5-4 1-4 1-1 1-4 2c-5 2-6 3-4 4 1 1 0 2 9-4zm-410 0l9-4a351 351 0 0054-36l18-11c21-13 28-16 46-16 11-1 19 1 30 7 7 4 7 4 11 2l3-2c0-1-15-9-25-12-9-3-10-3-23-3-20 0-29 3-51 20a684 684 0 01-66 45l-12 5-5 1 3 3 3 3 5-2zm490-1l7-3a556 556 0 0072-47c15-9 23-14 32-15 8-2 25-2 29 0l19 8c3 2 3 2 7 0l3-2c0-2-17-10-26-13-7-2-10-2-21-2-20 0-30 3-52 20a663 663 0 01-47 33c-13 9-25 15-31 17l-5 1 3 3 3 3 7-3zm-558-9a127 127 0 0023-16l13-10 24-16c10-7 26-3 29 7 1 3 2 4 4 1 3-2 2-8-1-13-4-5-11-8-21-8l-10 2c-7 4-20 13-32 23-14 10-36 25-47 30l-8 3 2 3 1 3 7-3 16-6zm488 0a127 127 0 0023-16l12-9c7-6 15-11 25-17 8-6 20-5 26 2l3 5c0 3 2 3 4 2 3-2 3-8-1-14-4-5-11-8-21-8l-10 2c-7 4-21 13-31 22a183 183 0 01-23 16l-27 16-6 2 3 6 7-3 16-6zm-565 2l17-6c18-3 36-12 62-30a1412 1412 0 0163-40c6-2 8-3 13-2l16 5c5 3 17 16 18 20 0 4 1 4 6 0s4-7-4-17c-5-7-9-10-17-14-5-2-7-2-17-2-12 0-15 0-32 8-13 6-25 13-37 23a220 220 0 01-99 49h-4l-4 1 10 10 9-5zm488 0c7-3 11-5 18-6a68 68 0 0020-6c6-2 20-10 29-16l46-33c10-7 17-11 28-15 8-2 9-3 14-2 10 2 18 5 22 10 5 4 11 12 12 15 0 4 1 4 6 0 4-3 4-6 0-12-6-9-11-14-19-18-7-3-8-4-18-3-13 0-15 0-32 8-13 5-28 14-41 25a232 232 0 01-77 42 152 152 0 01-27 6l10 10 9-5zm-403 0l12-3c11-1 14-3 28-17 8-9 11-11 15-12 5-1 11 0 14 4 2 2 2 2 4 1 6-2 5-8 0-13-2-3-4-3-7-3-9 0-17 5-27 14l-12 9a555 555 0 00-27 20zm51-1a290 290 0 0054-33l15-11c23-18 36-25 50-27 8-2 18-2 23 0l6 1c7 0 14 3 26 10 11 6 12 6 16 5h4l-4-4c-18-16-25-19-44-21-14-2-26 0-38 4-8 3-10 5-44 27a718 718 0 01-76 50c2 2 6 1 12-1zm437 1l12-3c11-1 14-3 28-17 8-9 12-11 15-12 5-1 11 0 14 4 2 2 5 2 7-1 2-1 2-2 1-5-1-4-5-9-8-9-9-1-17 2-28 12l-14 11a603 603 0 00-27 20zm51-1a319 319 0 0060-37l11-8c9-8 21-16 31-21 11-5 21-7 33-6 21 2 25 3 40 12 10 6 11 6 15 5h4l-4-4c-15-14-21-17-33-19-24-5-45-2-63 9l-28 19a485 485 0 01-78 51c2 2 6 1 12-1zm-555-12l21-14a694 694 0 0137-27c10-8 27-10 38-5 5 3 12 11 12 14s1 3 5 1c3-1 3-2 2-4-3-16-23-28-39-24-7 2-32 16-40 23-9 7-32 24-38 27l-28 14c-2 1-2 1 2 3l5 3 7-3 16-8zm488 0l17-11a430 430 0 0140-30c7-5 18-9 27-8 11 2 20 8 24 17l1 3 4-2c3-1 3-2 2-4-1-9-8-16-17-21-6-3-8-3-15-3s-8 0-16 3c-13 7-24 14-33 21-21 17-32 24-49 33l-17 8 5 3 4 2 7-3 16-8zm-424 1l13-7c4-3 5-4 4-5l-5-3c-5-1-8 2-18 12-7 7-7 8-4 8l10-5zm488 0l13-7c4-3 5-3 4-5l-5-3c-5-1-8 2-18 12-7 7-7 8-4 8l11-5zM490 94c12-9 17-27 12-39-5-10-12-16-26-21-13-5-24-4-39 1-7 3-8 4-6 6h5c6-3 18-4 23-4 16 3 31 11 36 21 3 6 4 10 1 18-2 7-7 13-16 18-7 3-7 3-5 4 7 2 9 1 15-4zm27 0l12-22c2-10 1-21-4-30-3-6-15-18-22-23-14-9-35-13-50-10-11 2-17 5-21 10l-4 6 9-4 17-5c9-2 11-2 17-1 16 3 25 7 36 16 18 15 21 42 7 61-3 5-3 5-1 5l4-3zm-47-1c9-4 16-8 19-14 4-8 5-12 2-19-3-6-8-11-18-16-8-3-8-3-19-3-10 1-12 1-16 3-3 1-5 3-5 4l-2 5c-2 3-2 5-1 5 8 6 13 7 23 7 5 0 7 0 8-2 4-3 2-4-9-4-9 0-9 0-12-3s-3-3-2-5c3-4 7-6 16-5l9 1 6 2c5 2 13 9 16 13 4 9-2 19-14 25-5 3-7 3-12 3h-5l11 5 5-2zM48 91c7-6 13-24 13-36 0-4-1-13-3-17-4-12-6-16-16-25C32 3 30 1 26 4l-3 2 4 3c4 2 3 2 13 11 7 8 10 12 13 22 3 7 3 9 2 17 0 12-4 21-10 31-4 5-2 6 3 1zm489 0c5-5 10-17 12-29l1-6-4-20c-4-10-7-14-16-23-10-10-12-12-16-9l-3 2 4 3c11 7 21 19 25 29 3 8 3 9 3 19l-2 16c-2 7-7 16-10 19s2 2 6-1zM45 80c5-8 6-16 6-26s-1-15-7-23c-4-5-15-16-22-21-3-2-3-2-6 0l-4 2 8 6c10 8 17 16 22 27 3 7 3 8 3 16 0 9-3 22-7 27-3 5-3 6 0 2l7-10zm488 0c8-14 9-31 2-44-3-6-16-20-23-25-4-3-5-3-8-1l-4 2 8 6c10 8 16 15 21 26 4 8 4 9 4 17 0 11-3 20-8 29l-2 3 3-3 7-10zM66 84l6-3-7-1h-5l-3 4-3 5 2-1 10-4zm488 0l6-3-6-1h-6l-2 4-3 4c0 1 3 0 11-4zm-89 1c10-3 15-8 16-15 1-3 1-4-2-8-3-5-5-6-3-1 4 7 0 14-9 18-5 2-7 2-18 2-13-1-14-1-21-4l-7-3c0 2 8 7 14 9 5 2 13 4 21 4l9-2zm490 0c5-2 7-4 10-7 5-6 6-10 3-16-4-5-5-6-3-2 3 8 0 15-10 19-5 2-7 2-18 2-13-1-14-1-21-4l-6-2c3 4 15 10 24 11l6 1c1 1 8 0 14-2zM573 74l5-3-3-1c-5-2-16-2-20-1-3 1-4 2-5 4l-1 4h6l8 1h3l6-4zM83 75l6-4-3-1c-4-2-15-2-19-1-3 1-4 2-5 4l-1 4h7l8 1 7-3zm297-5l-6-7c-4-6-9-20-9-27v-3l-1 3c0 3-3 5-6 4s-3 2-1 7c1 5 3 7 12 16 6 7 11 11 12 11 2 0 2-1-1-4zm14 3l-4-3-3-5v-1c-2 1-7-8-9-15l-1-14-1-9c-3-2-6 2-6 8 0 18 12 39 23 40l1-1zm474-3c-4-4-7-8-9-13-3-6-6-17-6-20s0-3-1-1c0 3-3 5-6 4s-3 2-1 7c1 5 3 7 12 16 6 7 11 11 12 11 2 0 2-1-1-4zm14 3l-4-3-3-5v-1c-2 1-7-8-9-15l-1-14-1-9c-3-2-6 2-6 8 0 18 11 39 23 40l1-1zM97 66l4-3-4-2c-8-4-26-5-31-2l-1 4-1 3 4-1c6-1 18 0 21 2s3 2 8-1zm488 0l4-3-4-2c-8-4-26-5-31-2l-1 4-1 3 4-1c6-1 18 0 21 2s3 2 8-1zm-476-9l3-3c-1-1-16-6-23-7s-10-1-20 1c-3 0-3 1-3 4s0 3 2 3c9-2 24-1 31 3 5 2 6 2 10-1zm488 0c4-3 4-3 2-4-17-6-26-8-37-6l-8 1v4c0 3 0 3 2 3 9-2 24-1 31 3 5 2 5 2 10-1zm-309-5c9-3 13-5 18-10a153 153 0 0119-15l15-9c9-5 11-5 16-5l13 2 6 3 3-4 4-3-3-2c-4-4-13-7-19-8-6 0-8 0-17 3-15 5-25 12-40 25a688 688 0 01-29 27l1 2 13-6zm488 0c10-4 13-6 20-11a167 167 0 0118-14l14-9c9-5 11-5 16-5s8 0 13 2l6 3 3-4 4-3-3-2c-4-4-13-7-19-8-6 0-8 0-18 3-11 4-23 11-29 16-2 2-3 3-4 2l-1 1c1 1-16 17-27 26l-7 7 1 2 13-6zm-657-2l3-3-16-7c-15-4-29-5-39-2-4 1-4 1-3 4s2 3 4 2a101 101 0 0135 2l10 5c2 1 2 1 6-1zm234-1l-2-8c0-4 0-5 2-7 4-2 3-3-3-3-4 0-11 3-18 9-5 5-6 6-1 7 3 0 3 0 8-4 5-6 7-6 6-2-1 5 1 7 4 9 5 3 5 2 4-1zm254 1l3-3c0-2-21-9-34-10h-16c-7 1-7 2-7 4v4l5-1c6-2 24-1 33 2l10 5c2 1 2 1 6-1zm233-1l-1-8c0-4 0-5 3-7 2-2 2-2 1-3-6-2-16 2-24 10-4 4-4 4-2 5 3 2 6 1 10-4 5-5 7-5 6-1-1 5 1 8 5 9l4 2-2-3zm-498-4c0-2 0-2-2 0-2 1-2 2-1 2 3 2 4 1 3-2zm489 1c-1-3-1-4-3-1-2 1-2 2-1 2 3 1 4 1 4-1zm-503-6c9-9 15-12 23-12l7 1c4 4 5 3 7-2l4-6c1-1 0-1-2-2-5-2-9-2-17 0-8 1-12 4-21 10l-20 17 6 1h6l7-7zm488 0c9-9 15-12 23-12l9 2 3 2 2-4 3-6c2-2 2-2-1-3l-8-2c-5 0-15 3-19 5-6 3-31 23-31 24l6 1h6l7-7zm-670-7l4-2c2-4 11-9 25-14 6-2 6-3 4-4-4-5-13-1-32 15l-8 8 7-3zm486 2l8-6c4-4 11-8 23-12 6-2 6-3 4-4-2-3-5-2-10 0-4 2-13 7-14 9l-7 6c-11 9-11 9-4 7zm-366-1c1-1 0-2-4-4l-5-2 6 7 3-1zm488 0c1-1 0-2-4-4l-5-2 6 7 3-1zm-480-6l2-3-13-7c-3-3-6-4-10-4-6 0-11 1-11 3s9 7 12 7l9 3c7 3 8 4 11 1zm488 0l2-3-13-7c-3-3-6-4-10-4-6 0-11 1-11 3s9 7 12 7l9 3c7 3 8 4 11 1zm-480-7c3-2 3-2-1-4l-9-6c-7-5-17-9-23-9l-12 4-8 5 4 2c4 2 4 2 8 0a22 22 0 0125 2c2 2 11 8 13 8l3-2zm488 0c3-2 3-3-1-4l-8-5c-7-5-9-7-15-8-8-3-12-2-21 2l-8 5 4 2c4 2 5 2 8 0 9-4 20-3 25 2 2 2 11 8 13 8l3-2zM145 996l22-11 12-1c11 0 16 2 24 10l6 5-3 1-6-2c-5-5-14-8-21-8-9 0-20 3-26 7l-9 3h-4l5-4zm22 2c6-2 19-2 24 0l4 2h-16c-15 0-15 0-12-2zm78 1h9l6 1h-9c-8 0-9 0-6-1zm100 0c3-2 21-2 24 0 2 1-1 1-12 1s-14 0-12-1zm288-3l22-11 12-1c7 0 10 0 14 2s15 12 15 13c0 2-6 1-8-1-1-1-4-4-8-5-5-3-8-3-13-3-9 0-20 3-26 7l-9 3h-4l5-4zm22 2c6-2 19-2 24 0l4 2h-16c-15 0-15 0-12-2zm78 1h9l6 1h-9c-8 0-9 0-6-1zm100 0c3-2 21-2 24 0 2 1 0 1-12 1-11 0-14 0-12-1zm68-3c9-11 24-25 31-29 17-9 33-7 39 5 2 4 2 5 3 4 2-2 3-1 3 2 0 2-2 5-10 12-9 9-10 10-13 10h-4l6-6-3-1c-4-2-11 0-15 4-2 2-3 3-6 3l-3-1 6-4c8-6 14-8 20-6 4 2 4 2 7 0 2-2 2-3 1-5-2-2-10-5-15-5-7 0-14 4-23 13l-10 8c-2 0-1-1 4-7 11-12 21-18 30-18 6 0 10 1 14 5l4 3 2-2c1-2 1-2-1-7l-6-7c-4-2-5-2-12-2-13 1-19 5-35 21-10 11-14 14-16 14s-2 0 2-4zm69-1l6-4 1 3c0 3-4 6-9 6-2 0-2 0 2-5zM0 941c0-2 0-2 2-2h1c-1 0 0-2 2-3 2 0 8-6 14-12 17-16 22-27 17-40-2-6-9-12-18-17l-12-8c-6-5-6-5-6-9s0-4 1-3c2 5 8 9 15 13 15 9 22 16 24 27 2 7 1 13-2 20-5 11-17 23-34 33-4 3-4 3-4 1zm0-14c0-2 2-4 6-8 8-6 13-11 15-16 6-14 1-23-17-31-3-1-4-3-4-4 0-2 0-2 4 0l8 5c9 5 15 12 15 20 0 10-2 13-11 23L3 927l-3 2v-2zm0-16l3-6c4-6 4-13 0-17l-3-4c0-3 0-3 3-1l5 6c2 3 2 5 2 8-1 5-5 11-8 14-2 2-2 2-2 0zm968-48c-9-8-11-13-12-26 0-8 0-9 3-15 2-5 15-19 17-19s1 10 0 12c-2 2-4 13-4 20 1 5 2 9 4 10l1 5v3l-3-4c-4-7-5-13-5-23 1-6 1-9 3-13l3-6-6 7c-6 6-10 14-10 21 0 10 6 22 14 28 4 2 6 7 3 7l-8-7zm-36-72c-23-2-43-12-50-26l-1-10c0-10 4-18 16-28 10-8 20-14 29-15l8-2c10-3 23-5 31-5 10 0 12 1 12 4 0 2 0 2-4 1l-7-1c-4-1-24 2-34 5-17 5-26 10-34 18-12 12-15 23-11 31 3 6 6 9 13 13 11 6 20 9 32 10 19 1 33 0 43-3 2 0 2 0 2 2 0 3-1 3-7 4-9 2-25 3-38 2zm3-9c-17-2-29-7-38-16-5-6-5-6-5-10 0-6 5-16 10-20s18-12 25-14c7-3 20-5 33-5s17 1 17 5c0 2 0 2-6 1-30-3-60 7-70 23l-3 10c0 5 2 7 10 13 5 3 8 4 22 7a90 90 0 0045-3c2 0 2 0 2 2s-1 3-4 4c-11 3-28 4-38 3zm-7-9c-9-1-21-10-23-16-3-12 21-27 46-30 9-1 11-1 15 1 5 2 5 6 1 9-5 4-10 6-22 7-11 2-12 3-11 4 2 4 23 1 35-5l8-3v2c0 7-32 15-44 11-3 0-4-1-4-4 0-6 0-6 17-8 7 0 16-4 17-7l-2-2c-4-5-30 3-38 11-4 5-5 10-2 13 2 2 10 5 15 5 6 0 24-3 32-6 8-2 9-3 9 0 0 4-16 8-35 9l-19-1c-5-3-8-5-9-8-1-2-1-2-2 0l1 4c3 6 20 11 33 10l29-7c2 0 2 1 2 3s-1 3-6 4l-10 3c-6 1-28 2-33 1zM0 755l7-6 12-8c4-4 5-5 5-9 0-10-7-18-19-20-4-1-5-1-5-4 0-2 0-2 3-1 12 2 17 5 22 11 4 5 5 14 2 20s-14 14-25 18c-2 1-2 1-2-1zm0-12l4-7c3-4 3-4 2-6 0-2-2-4-3-5-3-1-4-6-2-6s9 4 10 6c2 3 1 8-1 12l-6 5c-4 3-4 3-4 1zm0-160l1-7c3-5 3-10 1-15l-2-8c0-3 0-3 2-1 3 2 7 11 7 15 0 5-3 14-7 18l-2 2v-4zm0-142l2-1 1-1c-1 0 0-2 2-3a117 117 0 0029-29c3-7 3-9 3-14 0-11-5-18-19-26l-12-8c-6-5-6-5-6-9v-5l2 3c3 5 7 8 15 13 15 9 21 16 23 27 2 7 2 11-2 19-5 10-17 23-34 33-3 3-4 3-4 1zm0-14c0-2 2-4 6-8 12-9 17-17 17-25 1-9-6-16-19-22-3-1-4-2-4-4s0-3 4 0l8 5c9 5 15 12 15 20 0 9-2 13-10 21L5 426l-5 3v-2zm0-16l3-6c4-6 4-13 0-17l-3-4c0-3 0-3 3-1l5 6c2 3 2 5 2 8-1 5-5 11-8 14-2 2-2 2-2 0zm968-48c-9-8-11-13-12-26 0-8 0-9 3-15 2-5 15-19 17-19s1 10 0 12c-2 2-4 13-4 20 1 5 2 9 4 10l1 5v3l-3-4c-4-7-5-13-5-22 1-7 1-10 3-14l3-6-6 7c-6 6-10 14-10 21 0 10 6 22 14 28 4 2 6 7 3 7l-8-7zm-37-72c-22-2-42-12-49-26l-1-10c0-10 4-18 16-28 10-8 20-14 29-15l8-2c10-3 23-5 31-5 10 0 12 1 12 4 0 2 0 2-4 1l-7-1c-4-1-24 2-34 5-17 5-26 10-34 18-21 22-16 39 16 51l13 2 16 1c11 1 24 0 32-3 2 0 2 0 2 2 0 3-1 3-7 4-9 2-26 3-39 2zm4-9c-17-2-29-7-38-16-5-6-5-6-5-11l3-10c4-7 11-13 24-20 12-6 21-8 38-8 16 0 20 1 20 5 0 2 0 2-6 1-21-2-44 2-58 12-10 6-15 14-15 21 0 5 1 7 9 12 6 4 12 6 25 9 13 2 33 0 43-4 2 0 2 0 2 2s-1 3-4 4c-11 3-28 4-38 3zm-7-9c-9-1-21-10-23-16-1-4 1-9 7-14 11-11 43-19 54-15 5 2 5 6 1 9-5 4-10 6-22 8-11 1-12 2-11 3 2 4 23 1 35-5l8-3v2c0 7-32 15-44 11-3 0-4-1-4-4 0-5 1-6 7-6 14-2 17-2 22-5s6-4 3-6c-4-5-30 3-38 11-4 5-5 10-2 13 2 2 10 5 15 5 6 0 24-3 32-6 8-2 9-3 9 0 0 4-16 8-35 9l-19-1c-5-3-8-5-9-8-1-2-1-2-2 0l1 4c3 6 20 11 33 10l29-7c2 0 2 1 2 3s-1 3-6 4l-10 3c-6 1-28 2-33 1zM0 255l7-6 12-8c4-4 5-5 5-9 0-10-7-18-19-20-4-1-5-1-5-4 0-2 0-2 3-1 12 2 17 5 22 11 4 5 5 14 2 20s-14 14-25 18c-2 1-2 1-2-1zm0-12l4-7c3-4 3-4 2-6 0-2-2-4-3-5-3-1-4-6-2-6s9 4 10 6c2 3 1 8-1 12l-6 5c-4 3-4 3-4 1zM0 83l1-7c3-5 3-10 1-15l-2-8c0-3 0-3 2-1 3 2 7 11 7 15 0 5-3 14-6 17l-3 3v-4zm901-50l6-5 10-13c9-13 11-15 15-15h3l-4 3-3 4c1 1 16-4 19-6 4-1 12-2 9 0s-1 3 2 3l6-2 4-2h3l-2 2-2 3h8c2-1 2-1 2 3v4l-8-2a67 67 0 00-45 4c-3 2-10 12-8 11l27-10h15c13 2 19 4 19 6s0 2-2 2c-10-3-21-4-27-3-9 1-23 6-35 11-8 3-12 4-12 2z"/>
</svg>
