<svg xmlns="http://www.w3.org/2000/svg" fill-rule="nonzero" viewBox="0 0 24 24">
  <path d="m4.61 18.61.12.15c.14.16.35.32.62.5a6.52 6.52 0 0 0 1.96.82c.3.09.6.16.91.23 1.04.22 2.32.33 3.83.33 1.62 0 2.95-.2 4-.6.37-.14.73-.3 1.06-.51a4.36 4.36 0 0 0 1.97-2.76c.1-.44.14-.88.14-1.33 0-1.24-.25-2.2-.75-2.91a3.74 3.74 0 0 0-.94-.93 4.46 4.46 0 0 0-1.18-.57c-.92-.3-2.03-.45-3.32-.45h-1.95c-.7 0-1.28-.07-1.74-.23a2.25 2.25 0 0 1-.6-.3 1.59 1.59 0 0 1-.46-.53c-.1-.2-.18-.4-.22-.65a3.61 3.61 0 0 1-.04-1.07c.04-.48.18-.87.4-1.16.06-.08.12-.16.2-.23.27-.25.64-.43 1.1-.55.23-.05.45-.1.68-.13a12.65 12.65 0 0 1 2.47-.07c.43.02.84.06 1.21.12a7.67 7.67 0 0 1 2.46.8 4.22 4.22 0 0 1 1.38 1.2c.09.12.16.26.22.41v-.8l.55-2.22A6.03 6.03 0 0 0 16.47 4c-.74-.26-1.63-.43-2.67-.52a20.43 20.43 0 0 0-3.12-.03 9.7 9.7 0 0 0-2.82.58c-.51.2-.95.44-1.33.71a3.76 3.76 0 0 0-1.31 1.7 4.57 4.57 0 0 0-.33 1.74c0 1.63.48 2.83 1.46 3.6.1.09.22.17.34.24.98.61 2.45.91 4.4.91h1.94a6.86 6.86 0 0 1 1.76.24l.3.13c.3.14.53.37.7.65.15.25.24.56.29.93a4.59 4.59 0 0 1 .02.9c-.04.55-.16 1-.37 1.38-.16.28-.39.52-.67.69-.19.1-.38.2-.59.26l-.04.02c-.59.18-1.38.28-2.38.28l-.93-.03a9.49 9.49 0 0 1-3.17-.7 5.82 5.82 0 0 1-2.17-1.54 3.99 3.99 0 0 1-.37-.5c-.1-.17-.18-.35-.24-.54v.86l-.56 2.64Zm8.7 3.39-.02-.01a1 1 0 0 1-.15-.34l-.04-.16-.02-.09a5.75 5.75 0 0 1-.08-1.07V3.62c0-.3.03-.57.08-.8a1.68 1.68 0 0 1 .39-.74.38.38 0 0 1 .11-.08h-2.86l.02.03c.05.08.1.24.16.48l.02.09c.05.26.08.62.08 1.07v16.81c-.01.3-.04.54-.09.75a1.65 1.65 0 0 1-.35.69.42.42 0 0 1-.12.08h2.86Z"/>
</svg>
