<svg xmlns="http://www.w3.org/2000/svg" viewBox="0 0 24 24">
  <path d="M5.78 13.6V9.54c0 .06.03.1.07.14.05.04.11.06.2.09l.07.01c.19.04.48 0 .87-.13a6.53 6.53 0 0 0 .5-.19 70.82 70.82 0 0 0 2.26-.95l.66-.29a230.33 230.33 0 0 0 5.44-2.49 14.05 14.05 0 0 0 .68-.37 4.6 4.6 0 0 0 .74-.54c.2-.2.33-.35.37-.45a.22.22 0 0 0 .02-.06l.52 3.34c0-.09-1.58.57-2.1.8a22.2 22.2 0 0 1-1.3.56 115.43 115.43 0 0 1-2 .8l-2.3.91c-.78.31-1.51.6-2.19.85v.03l2.23.89a328.02 328.02 0 0 0 4.09 1.66l.25.1 1.28.55c.5.22 2.03.85 2.03.81l-.5 3.18c0-.1-.1-.23-.27-.4l-.08-.08a6.03 6.03 0 0 0-1.16-.72l-1.32-.66a183.66 183.66 0 0 0-4.19-1.97 56.95 56.95 0 0 0-3.14-1.3 5.04 5.04 0 0 0-1.39-.23c-.04 0-.07 0-.11.02-.12.03-.19.06-.22.1l-.01.05Z"/>
  <path d="M16.9 17.64A3 3 0 0 1 18.43 15a3 3 0 0 1 1.53-.4 3 3 0 0 1 2.64 1.5 3 3 0 0 1 .41 1.54c0 .56-.14 1.07-.4 1.53a3.13 3.13 0 0 1-2.65 1.52c-.56 0-1.07-.14-1.53-.42a3.14 3.14 0 0 1-1.1-1.1c-.28-.46-.41-.97-.41-1.53Zm1.55 0c0 .4.16.77.44 1.04v.02c.16.15.33.26.53.34a1.44 1.44 0 0 0 1.57-.33l.02-.01a1.46 1.46 0 0 0 .44-1.05 1.44 1.44 0 0 0-.44-1.06 1.46 1.46 0 0 0-1.05-.44c-.4-.01-.77.15-1.05.43h-.01a1.46 1.46 0 0 0-.45 1.05ZM16.9 5.45a3 3 0 0 1 1.52-2.64 3 3 0 0 1 1.53-.4 3 3 0 0 1 2.64 1.5A3 3 0 0 1 23 5.46c0 .56-.14 1.07-.4 1.53a3.13 3.13 0 0 1-2.65 1.52c-.56 0-1.07-.14-1.53-.42a3.14 3.14 0 0 1-1.1-1.1c-.28-.46-.41-.97-.41-1.53Zm1.55 0c0 .4.16.77.44 1.04v.02c.16.15.33.27.53.34A1.44 1.44 0 0 0 21 6.5a1.46 1.46 0 0 0 .44-1.05c0-.39-.15-.76-.43-1.04l-.01-.01a1.44 1.44 0 0 0-1.05-.44c-.4 0-.77.15-1.05.42l-.01.02a1.46 1.46 0 0 0-.45 1.05ZM1 11.55A3 3 0 0 1 2.51 8.9a3 3 0 0 1 1.54-.41 3 3 0 0 1 2.64 1.51 3 3 0 0 1 .4 1.54c0 .56-.13 1.06-.4 1.52-.27.46-.64.83-1.1 1.1-.47.28-.98.42-1.54.42s-1.07-.14-1.54-.41a3.14 3.14 0 0 1-1.1-1.1C1.14 12.6 1 12.1 1 11.54Zm1.55 0c0 .39.15.76.43 1.04l.01.01a1.46 1.46 0 0 0 1.05.45 1.44 1.44 0 0 0 1.06-.45 1.47 1.47 0 0 0 .45-1.05c0-.4-.16-.77-.43-1.04l-.02-.02a1.46 1.46 0 0 0-1.05-.45c-.4 0-.77.16-1.04.44l-.02.01a1.47 1.47 0 0 0-.44 1.05Z"/>
</svg>
