<svg xmlns="http://www.w3.org/2000/svg" viewBox="0 0 24 24">
  <path d="M17 6.85V4l1.15 1.17.04.04 1.3 1.32 1.03 1.03a11.87 11.87 0 0 0 .45.35l.07.04.07.04.16.07v2.13c-.1 0-.34.16-.75.47l-.14.12a51.53 51.53 0 0 0-2.06 1.92L17 14v-2.85l2.42-2.03L17 6.85Zm0 2.85h-4.19c-1.03 0-1.81.04-2.36.1a7.17 7.17 0 0 0-1 .18 2.3 2.3 0 0 0 .37-.69c.11-.28.17-.58.18-.9v-.1h7V9.7ZM7 12.85V10l-1.15 1.17-.04.04-1.3 1.32-1.03 1.03a11.87 11.87 0 0 1-.45.35l-.07.04-.07.04a.74.74 0 0 1-.15.07h-.01v2.13c.1 0 .34.16.75.46l.14.13a51.53 51.53 0 0 1 2.06 1.92L7 20v-2.85l-2.42-2.02L7 12.84Zm0 2.85h4.19c1.03 0 1.81.04 2.36.1a7.17 7.17 0 0 1 1 .18 2.3 2.3 0 0 1-.37-.69 2.7 2.7 0 0 1-.18-.9v-.1H7v1.41Z"/>
</svg>
