<svg xmlns="http://www.w3.org/2000/svg" viewBox="0 0 24 24">
  <path d="M17.93 5.89V2.5a154.52 154.52 0 0 1 1.42 1.43l1.54 1.57 1.22 1.22a6.59 6.59 0 0 0 .62.47l.08.04.18.08H23v2.54c-.11 0-.4.18-.89.54l-.17.15-.61.56-.25.22a175.1 175.1 0 0 0-3.15 3.04V11l2.87-2.41-2.87-2.7Zm0 3.38h-4.97c-1.22 0-2.15.04-2.8.12a8.46 8.46 0 0 0-1.2.22 2.73 2.73 0 0 0 .45-.82 3.16 3.16 0 0 0 .22-1.18h8.3v1.66ZM6.07 13V9.64a153.46 153.46 0 0 0-1.42 1.43l-1.54 1.57-1.22 1.22a8.36 8.36 0 0 1-.62.46 2.03 2.03 0 0 1-.26.13H1v2.53c.11 0 .4.19.89.55l.17.15.61.56.25.22a68.62 68.62 0 0 1 3.15 3.04v-3.38l-2.87-2.4L6.07 13Z"/>
  <path d="M6.07 16.4h4.97c1.22 0 2.15.03 2.8.11a8.52 8.52 0 0 1 1.2.22c-.15-.17-.3-.43-.43-.77l-.02-.05a3.16 3.16 0 0 1-.22-1.18h-8.3v1.66Z"/>
</svg>
