<?xml version="1.0" encoding="UTF-8" standalone="no"?><!DOCTYPE svg PUBLIC "-//W3C//DTD SVG 1.1//EN" "http://www.w3.org/Graphics/SVG/1.1/DTD/svg11.dtd"><svg width="100%" height="100%" viewBox="0 0 48 48" version="1.1" xmlns="http://www.w3.org/2000/svg" xmlns:xlink="http://www.w3.org/1999/xlink" xml:space="preserve" xmlns:serif="http://www.serif.com/" style="fill-rule:evenodd;clip-rule:evenodd;stroke-linejoin:round;stroke-miterlimit:2;"><path d="M17.375,5.071c-1.067,0.213 -2.134,1.067 -2.134,2.134l-0.214,0.64l-0.64,1.707l0,1.494c0.427,0.427 0.64,1.067 0.64,1.921l0.214,2.774l0.213,2.988l0,0.64l-2.347,0l-4.696,0.214l-4.695,0.427c-1.393,0.16 -2.457,1.353 -2.457,2.756c0,0.453 0.111,0.899 0.323,1.299l3.201,4.481c0.214,0.641 0.641,1.067 1.281,1.494l2.134,0.427l1.707,-0.213c0.854,0.426 1.708,0.426 2.561,-0l1.067,-0.214l1.281,-0.213l0.854,-0l-0,1.067c-0.168,1.418 -0.168,2.85 -0,4.268l-0,1.281c-0.236,1.126 -0.236,2.288 -0,3.414l0.426,1.494c0,0.641 0.641,1.281 1.067,1.708l2.988,1.28c0.641,0.213 1.067,0.213 1.708,0c0.822,-0.205 1.565,-0.651 2.134,-1.28l0.213,-0.641c1.267,0.192 2.51,-0.518 2.988,-1.707c0.64,-1.494 0.854,-2.774 0.854,-3.841l-0,-2.348c-0,-0.854 -0.427,-1.707 -1.067,-2.134l-0,-3.415l0.426,0c1.068,0 2.135,-0.213 2.988,-0.64c4.052,0.236 8.113,0.236 12.165,-0c1.067,-0 1.921,-0.427 2.347,-1.067l0.641,-0.64c0.853,-0.427 1.494,-1.281 2.134,-2.135c0.427,-0.853 0.427,-1.92 -0,-2.774c-0.64,-1.067 -1.494,-1.921 -2.775,-2.348l-1.707,-0.853c-0.64,-0.427 -1.494,-0.427 -2.134,-0l-3.841,-0c-1.068,-0.427 -2.135,-0.427 -3.202,-0.427l-1.494,-0l-0.426,0.213l-0.427,0l-0.641,0.214c-1.421,0.095 -2.847,0.095 -4.268,-0l0,-4.482c0.006,-0.733 -0.139,-1.46 -0.427,-2.134l0,-0.213c-0.161,-0.421 -0.304,-0.848 -0.426,-1.281l-0,-1.28c-0,-0.641 -0.214,-1.068 -0.641,-1.494c-0.213,-0.214 -0.64,-0.854 -1.494,-1.281c-0.819,-0.493 -1.675,-0.921 -2.561,-1.28l-1.707,-0.427c-0.736,-0.045 -1.472,0.102 -2.134,0.427Zm27.957,17.927c-0.213,0.64 -0.64,1.067 -1.067,1.28l-1.28,1.281c-0.503,-0.036 -1.002,-0.108 -1.494,-0.214l-1.494,-0.213l-1.067,-0l-1.067,0.853l-4.055,-0.426l-3.842,-0l-2.561,0.64l-2.561,0.427c-0.148,1.564 -0.29,3.129 -0.426,4.695l-0,1.707c0.213,0.64 0.64,1.067 1.067,1.281l-0,2.774c-0,0.64 -0,1.494 -0.641,2.561l-0.426,-0.213c-0.425,-0.226 -0.952,-0.138 -1.281,0.213l-0.64,0.854l-0.64,0.64c-0,0.427 -0.427,0.427 -0.641,0.64l-2.134,-1.067c-0.169,-0.92 -0.311,-1.846 -0.427,-2.774l0.214,-1.708c-0.35,-0.955 -0.496,-1.973 -0.427,-2.988l-0,-2.134c0.093,-0.993 0.093,-1.994 -0,-2.987l-0,-1.068l-2.134,0c-1.145,0.079 -2.285,0.222 -3.415,0.427l-1.707,0.641c-0.214,-0.427 -0.64,-0.427 -1.281,-0.427c-0.283,-0.029 -0.569,-0.029 -0.853,-0c-0.284,0.028 -0.57,0.028 -0.854,-0l-1.28,-0l-1.281,-2.561l-1.494,-2.134l4.268,-0.641l4.482,0l3.415,-0.427l1.067,0l0.427,-0.426l0.64,-0.427l-0,-2.561l-0.64,-3.201c-0.158,-1.867 -0.444,-3.721 -0.854,-5.549l0.213,-1.067l0.427,-1.067l1.708,-0.427l0.64,0.213c1.124,0.455 2.197,1.028 3.201,1.708l0,1.92c0.219,0.874 0.505,1.731 0.854,2.561l-0,2.988c-0.115,1.064 -0.115,2.137 -0,3.201l-0,1.281l0.64,0.213l0.213,0.427l3.202,-0.427l4.055,0c0.44,-0.098 0.869,-0.241 1.28,-0.427l0.64,0l2.561,0.214l2.775,0.213l2.561,-0.213l1.92,0.64l1.281,1.281l0.213,-0Z" style="fill:#c67168;fill-rule:nonzero;"/><path d="M16.064,3.76c-1.067,0.213 -2.134,1.067 -2.134,2.134l-0.213,0.64l-0.641,1.708l0,1.494c0.427,0.426 0.641,1.067 0.641,1.92l0.213,2.775l0.214,2.988l-0,0.64l-2.348,-0l-4.695,0.213l-4.695,0.427c-1.394,0.161 -2.457,1.354 -2.457,2.756c-0,0.453 0.111,0.899 0.323,1.299l3.201,4.482c0.213,0.64 0.64,1.067 1.28,1.494l2.134,0.426l1.708,-0.213c0.853,0.427 1.707,0.427 2.561,0l1.067,-0.213l1.28,-0.214l0.854,0l-0,1.067c-0.168,1.418 -0.168,2.851 -0,4.269l-0,1.28c-0.236,1.126 -0.236,2.289 -0,3.415l0.427,1.494c-0,0.64 0.64,1.28 1.067,1.707l2.988,1.28c0.64,0.214 1.067,0.214 1.707,0c0.823,-0.205 1.566,-0.651 2.134,-1.28l0.214,-0.64c1.266,0.191 2.509,-0.519 2.987,-1.708c0.641,-1.494 0.854,-2.774 0.854,-3.841l0,-2.348c0,-0.853 -0.427,-1.707 -1.067,-2.134l-0,-3.414l0.427,-0c1.067,-0 2.134,-0.214 2.988,-0.641c4.051,0.237 8.113,0.237 12.164,0c1.067,0 1.921,-0.427 2.348,-1.067l0.64,-0.64c0.854,-0.427 1.494,-1.281 2.134,-2.134c0.427,-0.854 0.427,-1.921 0,-2.775c-0.64,-1.067 -1.494,-1.92 -2.774,-2.347l-1.708,-0.854c-0.64,-0.427 -1.493,-0.427 -2.134,0l-3.841,0c-1.067,-0.427 -2.134,-0.427 -3.201,-0.427l-1.494,0l-0.427,0.214l-0.427,-0l-0.64,0.213c-1.421,0.095 -2.847,0.095 -4.268,0l-0,-4.482c0.005,-0.733 -0.14,-1.459 -0.427,-2.134l-0,-0.213c-0.162,-0.42 -0.304,-0.848 -0.427,-1.281l-0,-1.28c-0,-0.64 -0.214,-1.067 -0.64,-1.494c-0.214,-0.213 -0.641,-0.854 -1.494,-1.281c-0.819,-0.492 -1.676,-0.921 -2.561,-1.28l-1.708,-0.427c-0.736,-0.044 -1.471,0.103 -2.134,0.427Zm27.958,17.927c-0.214,0.64 -0.641,1.067 -1.067,1.28l-1.281,1.281c-0.502,-0.036 -1.002,-0.107 -1.494,-0.214l-1.494,-0.213l-1.067,0l-1.067,0.854l-4.055,-0.427l-3.841,-0l-2.561,0.64l-2.561,0.427c-0.148,1.564 -0.29,3.13 -0.427,4.695l-0,1.707c0.213,0.641 0.64,1.067 1.067,1.281l0,2.774c0,0.641 0,1.494 -0.64,2.561l-0.427,-0.213c-0.425,-0.226 -0.952,-0.138 -1.281,0.213l-0.64,0.854l-0.64,0.64c-0,0.427 -0.427,0.427 -0.64,0.64l-2.134,-1.067c-0.169,-0.92 -0.312,-1.845 -0.427,-2.774l0.213,-1.707c-0.35,-0.955 -0.495,-1.973 -0.427,-2.988l0,-2.134c0.093,-0.994 0.093,-1.994 0,-2.988l0,-1.067l-2.134,-0c-1.145,0.079 -2.285,0.221 -3.414,0.427l-1.708,0.64c-0.213,-0.427 -0.64,-0.427 -1.28,-0.427c-0.284,-0.029 -0.57,-0.029 -0.854,0c-0.284,0.029 -0.57,0.029 -0.854,0l-1.28,0l-1.281,-2.561l-1.494,-2.134l4.269,-0.64l4.482,-0l3.414,-0.427l1.067,-0l0.427,-0.427l0.64,-0.427l0,-2.561l-0.64,-3.201c-0.158,-1.867 -0.443,-3.721 -0.854,-5.549l0.214,-1.067l0.427,-1.067l1.707,-0.427l0.64,0.214c1.124,0.455 2.197,1.027 3.201,1.707l0,1.921c0.219,0.874 0.505,1.73 0.854,2.561l0,2.987c-0.115,1.064 -0.115,2.138 0,3.202l0,1.28l0.64,0.214l0.214,0.426l3.201,-0.426l4.055,-0c0.44,-0.099 0.869,-0.242 1.28,-0.427l0.641,-0l2.561,0.213l2.774,0.214l2.561,-0.214l1.921,0.64l1.28,1.281l0.214,-0Z" style="fill:#c67168;fill-rule:nonzero;"/><path d="M44.022,21.687c-0.214,0.64 -0.641,1.067 -1.067,1.28l-1.281,1.281c-0.502,-0.036 -1.002,-0.107 -1.494,-0.214l-1.494,-0.213l-1.067,0l-1.067,0.854l-4.055,-0.427l-3.841,-0l-2.561,0.64l-2.561,0.427c-0.148,1.564 -0.29,3.13 -0.427,4.695l-0,1.707c0.213,0.641 0.64,1.067 1.067,1.281l0,2.774c0,0.641 0,1.494 -0.64,2.561l-0.427,-0.213c-0.425,-0.226 -0.952,-0.138 -1.281,0.213l-0.64,0.854l-0.64,0.64c-0,0.427 -0.427,0.427 -0.64,0.64l-2.134,-1.067c-0.169,-0.92 -0.312,-1.845 -0.427,-2.774l0.213,-1.707c-0.35,-0.955 -0.495,-1.973 -0.427,-2.988l0,-2.134c0.093,-0.994 0.093,-1.994 0,-2.988l0,-1.067l-2.134,-0c-1.145,0.079 -2.285,0.221 -3.414,0.427l-1.708,0.64c-0.213,-0.427 -0.64,-0.427 -1.28,-0.427c-0.284,-0.029 -0.57,-0.029 -0.854,0c-0.284,0.029 -0.57,0.029 -0.854,0l-1.28,0l-1.281,-2.561l-1.494,-2.134l4.269,-0.64l4.482,-0l3.414,-0.427l1.067,-0l0.427,-0.427l0.64,-0.427l0,-2.561l-0.64,-3.201c-0.158,-1.867 -0.443,-3.721 -0.854,-5.549l0.214,-1.067l0.427,-1.067l1.707,-0.427l0.64,0.214c1.124,0.455 2.197,1.027 3.201,1.707l0,1.921c0.219,0.874 0.505,1.73 0.854,2.561l0,2.987c-0.115,1.064 -0.115,2.138 0,3.202l0,1.28l0.64,0.214l0.214,0.426l3.201,-0.426l4.055,-0c0.44,-0.099 0.869,-0.242 1.28,-0.427l0.641,-0l2.561,0.213l2.774,0.214l2.561,-0.214l1.921,0.64l1.28,1.281l0.214,-0Z" style="fill:#e2c049;"/></svg>