<svg xmlns="http://www.w3.org/2000/svg" xmlns:xlink="http://www.w3.org/1999/xlink" stroke-linecap="round" stroke-linejoin="round" clip-rule="evenodd" viewBox="0 0 225 225">
  <filter id="shadow">
    <feDropShadow dx="0" dy="4" stdDeviation="5" flood-opacity="0.4"/>
  </filter>
  <filter id="busShadow">
    <feDropShadow dx="0" dy="4" stdDeviation="3" flood-opacity="0.4"/>
  </filter>
  <filter id="lineShadow">
    <feDropShadow dx="0" dy="2" stdDeviation="0" flood-opacity="0.2"/>
  </filter>
  <path fill="#4caf50" filter="url(#shadow)" d="M68 35h-.9l-.7.2-.4-.3-.9.1-1 .5-1.2 1.1-1.8 1.7-.1 2.8-.5 1.4-.1 1.9.1.4.5.2.4 2.5-.2 1 1.1 3.5.2 1.8.5.4h.4l1 1.8.6 1.2.9.4.2 1.2 1 .6.6 1.1 1 1.7.4.5.2 1-.3 1V66l-.3 1.5-.3 1-.2 1v.1l-.6-.6h-1l-1.1 1.2-.3.8-.7.7.1.7-1-.2.1 1H63l-.1.7-.4.3-.1 1.2-.5.2-.3.7.1.8h-.6l-.6.7v.6l-.8.5-.2.5-.9.4-.1 1.2.2 1.3-1.9.3-.4-.3h-1.3l-1.1.5-.6.4-.4.1-.8 1-1 1.2.1 1h-.9l-.1.6-.8.3-.4 1.1-1 .6-.4.8H47l-.5.2v.7l-1 .8v.6l-.4.4.4 1.8-.2 1 .1 1.2-1 .3v.7l1 1.1.3 1.6.1.8.4.6.4-.3.4.6.4-.1.2 1.4.5.3-.4 1.3.4 1.4 1.8.8.8.3.8.1.5 1.4.3 1.1 1 1.6.1 1.2v.1l.7 1 .2.9-.2.8h.6l.1.6-.4.3v.9l.9.2-.2.4.4.5v1.3l-.5.4-.2.6.7 1 .2.9.6.9v1l.8.4h1l1 .4v.4l-.5 1.8.7 2 .2 1.5.5.2v1l.3.5h.4v.6l-.6 1 .7.7.1.3.3.5v.5l.8.6v.9l1.4 3 .1 1.2v.6l-.5 1v.3l.3 1.3v2l-.2.5v1.8l-.8 1.3v1l.1 1-.3.9.1 1.9-.4.8v1.5l-.1.4-.3 1 .2.6-.7 1.4-.3 1.4.5-.2v.8l-.4.3v.5l-.4.4.2.5-.3 2 1 3.8 1 .3.7 1.6h.5l.7 1.4.2 1.9 1.3.6.4.5.7-.2.9.4.8-.1 1 .6h.6l1.2.4.4-.3 1.3.6 1.4 1.7 2.6 1.2.5.9 1.1.6 1.3.3 1.7.8 1.6 1.3 1.3.4 1.3 1.4v1.4l.4 1-.3.5 1.5-.5.6-.7.6.1.9-1.4 1-.6.8-.4v-1l.4.1.5-.3.4-1.7v-.4l.8-.1 1 .2.5-.3-.1-.4.5-.5.1-.9 1-1.4-.2-.4 1-.6v-1.2l.1-.7 1.8-1.3.6-1 .3-4.3.5-.7h.7l.8-1.2.6-1 .8-.5h.4l1-.7-.2-1 1.8-1.1h1l.5-.4h1l1-.1.9-.6.9-1.4 1.3-1.5 1-.9.8-.9 2.4-.3 1-1 2.2-.8 1.5-1 1.1-1.8 2-1.2 1.4-1.5.4-.6 1-.8 2-.4.6.1.2-.4.6-.3.8.2 1-.1 3.5 1.4.9.2 1-.4.5.2h.5l.5-.6.5.3 2.8-.5.3-.8 1.5-.3 1.5.3.4-.7 1.4-.7.9-.8 1.9-.7.7-1 .3-.7.8-.4 3-.1 2.1-1 .8-.8 1-.7 1.8-.7 1.8-1.2 1-1.1 1.6-1.8.5-.2.8-1.4 1.9-1.4.4-.1.7-.8 1.5-1 .7-.9 4.4-3.2 1.8-2.1.9-2-.5-.1.4-1.3-.1-1h1l.3-.4-1.8-1.6-1.4-.6-.6-.5-1.2-.8h-.9l-5.2-2.6-.8-1-1-.6-.6-.9-1.5-.7-.8-.8-.2-1.2v-.5l-2.3-.8-.7-.6-.1-.5.2-1.3-.5-2 .6-1.2v-.4l-.1-1-.7-2.1-.3-.4-.7-1-.4-1-1-1v.3h-.9l-.9-.3-1 .1-.9-.3-.8.3-.4-.2-.4.4v.4l-.8 1V96l-.3-.5-.1.4-1 .8h-1l-.2-.5-.3-2-.2-.7V93l-.2-1.5.5-1.6v-.2l-.2-.8.2-1.3-.7-.8.5-1-.1-.7.4-1-.3-1.2.2-.4-.3-1-.6-.7-.2-.9-.9-.2-.5-.7-1-.4v-.1l-.5-1.6-1-1h-.4l-.6-1.9-.5.3-1-.5-2.3-2.6-2.3-1.1-.3-.1-.9-1.4-1.9-1-1.1-.3-.8-1-1-.3-1-1.3-1.5-1H128.2l-.7-.2-2-1.1h-.7l-.7-1.2-1.7-.4-.3-.2-.6-.5h-1l-1.8-.5-.4-.3-.3-.2h-.2l-.5-.7-1.6-.4-.6-.5-.2-.6-.4-.1-.3-.2-1.2-.4-1-.5-.7-.8-.8.1-1.4-.8-1.4.2-1-.6-1.2-.3-.5-.5-.4.2-.5-.3h-.7l-.3.1-1-.7-1-.5h-1l-.8-.7-1.7-.4-1 .5-2 1-.7-.5-.7-.5-.3-1h-.5v-.7l-2.5-.5-.6-.4-.5-.8-.9-.4-.1-.5-1-.4-1.1-.8-.8-.6h-1l-1.7-1.6-.8.1-.7-.4-1-.7-.4-.5.1-1.2-.2-.6-1.3-.2-.3-.2-.2-.1-.2-1-1-.2-1.5-.9-.4.4-2.1-.8H72l-.2-.3v-.5l-1.7-.2-.4-.4h-1l-.6-1z"/>
  <clipPath id="a">
    <path d="M210.5 14.5h-196v196h196v-196zm-154 110a14 14 0 100 28 14 14 0 000-28zm120 0a14 14 0 100 28 14 14 0 000-28z"/>
  </clipPath>
  <clipPath id="b">
    <path d="M191 96.6l11.2 18.9c.3.4.4.9.3 1.4l-4 20a2 2 0 01-2 1.6h-164a2 2 0 01-1.8-1l-8-15a2 2 0 01-.2-1.3l4-25 .2-.5 8-16a2 2 0 011.8-1.2h164a2 2 0 011.6 3.2l-11.2 15z"/>
  </clipPath>
  <g clip-path="url(#a)" stroke-width="4px">
    <path fill="#e1e5e8" stroke="#e1e5e8" d="M32.5 136.5l-8-15 4-24.9 8-16.1h164l-12 16 12 20-4 20h-164z"/>
    <path fill-opacity=".2" d="M202 115.1l.2.4c.3.4.4.9.3 1.4l-4 20a2 2 0 01-2 1.6h-164a2 2 0 01-1.8-1l-8-15a2 2 0 01-.2-1.3l.4-2.4 7.8 14.6c.4.7 1 1.1 1.8 1.1h164a2 2 0 002-1.6L202 115zm-150.6-17a2 2 0 01-.7-2.5l4-8a2 2 0 011.8-1.1h36a2 2 0 011.8 2.9l-.7 1.4a2 2 0 00-1.1-.3h-36a2 2 0 00-1.8 1.1l-3.3 6.6zm48 0a2 2 0 01-.7-2.5l4-8a2 2 0 011.8-1.1h36a2 2 0 011.8 2.9l-.7 1.4a2 2 0 00-1.1-.3h-36a2 2 0 00-1.8 1.1l-3.3 6.6zm102-19.4a2 2 0 01.7 3l-10.6 14.2-1.4-2.2 11.3-15zM31.3 86.5h13.2a2 2 0 011.8 2.9l-.7 1.4a2 2 0 00-1.1-.3H29.3l2-4z"/>
    <path fill="#263238" stroke="#263238" d="M188.5 92.5l12 24h-12v-24z"/>
    <g fill="#263238" stroke="#263238" clip-path="url(#b)">
      <path d="M8.5 92.5l-4 8h36l4-8h-36z"/>
      <path d="M56.5 92.5l-4 8h36l4-8h-36z"/>
      <path d="M104.5 92.5l-4 8h36l4-8h-36z"/>
    </g>
    <g fill="none" stroke="#4d74ab" stroke-linecap="square" clip-path="url(#b)" filter="url(#lineShadow)">
      <path d="M156.5 96.5v32"/>
      <path d="M140.5 112.5h32"/>
      <path d="M20.8 112.5h103.7"/>
    </g>
  </g>
  <g fill="#424242">
    <path d="M56.5 128.5a10 10 0 100 20 10 10 0 000-20z"/>
    <path d="M176.5 128.5a10 10 0 100 20 10 10 0 000-20z"/>
  </g>
</svg>
