<svg viewBox="0 0 18 18" xmlns="http://www.w3.org/2000/svg">
  <path d="M6.206 1.507c-.411.082-.822.411-.822.822l-.082.246-.246.658v.575c.164.164.246.411.246.74l.082 1.068.082 1.151v.246h-.904l-1.808.082-1.808.165a1.073 1.073 0 0 0-.822 1.561l1.233 1.726c.082.247.247.411.493.576l.822.164.658-.082c.328.164.657.164.986 0l.411-.082.493-.083h.329v.411a6.954 6.954 0 0 0 0 1.644v.493a3.201 3.201 0 0 0 0 1.315l.164.575c0 .247.247.494.411.658l1.151.493a.908.908 0 0 0 .657 0c.317-.079.603-.251.822-.493l.082-.247a1.07 1.07 0 0 0 1.151-.657c.246-.575.328-1.069.328-1.479v-.905c0-.328-.164-.657-.41-.821v-1.315h.164c.411 0 .822-.083 1.151-.247 1.56.091 3.124.091 4.684 0 .411 0 .74-.164.904-.411l.247-.246c.329-.165.575-.494.822-.822.164-.329.164-.74 0-1.069-.247-.411-.576-.739-1.069-.904l-.657-.329a.748.748 0 0 0-.822 0H13.85c-.411-.164-.822-.164-1.233-.164h-.576l-.164.082h-.164l-.247.082c-.547.037-1.096.037-1.644 0V4.958a2.03 2.03 0 0 0-.164-.821v-.083a5.583 5.583 0 0 1-.164-.493v-.493a.747.747 0 0 0-.247-.575c-.082-.082-.246-.329-.575-.493a7.032 7.032 0 0 0-.986-.493l-.658-.165a1.644 1.644 0 0 0-.822.165ZM16.973 8.41a.844.844 0 0 1-.411.493l-.493.494a4.141 4.141 0 0 1-.576-.083l-.575-.082h-.411l-.411.329-1.561-.164h-1.48l-.986.246-.986.165c-.057.602-.112 1.205-.165 1.808v.657a.844.844 0 0 0 .411.493v1.069c0 .246 0 .575-.246.986l-.165-.082a.412.412 0 0 0-.493.082l-.246.329-.247.246c0 .165-.164.165-.246.247l-.822-.411c-.065-.355-.12-.711-.165-1.069l.082-.657a2.818 2.818 0 0 1-.164-1.151v-.822a6.136 6.136 0 0 0 0-1.15v-.411h-.822c-.441.03-.88.085-1.315.164l-.657.247c-.082-.165-.247-.165-.493-.165a1.644 1.644 0 0 0-.329 0c-.109.011-.22.011-.329 0h-.493l-.493-.986-.575-.822 1.643-.246H4.48l1.315-.165h.411l.165-.164.246-.164v-.987l-.246-1.232a15.895 15.895 0 0 0-.329-2.137l.082-.411.164-.411.658-.164.246.082a6.63 6.63 0 0 1 1.233.657v.74c.085.337.194.666.329.986v1.151a5.775 5.775 0 0 0 0 1.233v.493l.247.082.082.164 1.232-.164h1.562c.17-.038.335-.093.493-.165h.247l.986.083 1.068.082.987-.082.739.246.493.493h.083Z" fill="#292e32" fill-rule="nonzero"/>
</svg>
