<svg viewBox="0 0 134 44" xmlns="http://www.w3.org/2000/svg" fill-rule="evenodd" clip-rule="evenodd" stroke-linejoin="round" stroke-miterlimit="2">
  <path d="M9.8 21.8l2.2-.4a98 98 0 014.7-.9v-.6L17 18a45.7 45.7 0 00.7-5.8l.1-1 .3-1V10a1 1 0 01-.2-.6c0-.4.2-.6.3-.8v-.5l.2-.7v-.4-.5a1 1 0 010-.5V5.5c0-.3.1-.6.3-.8l-.1-.7V2.7c0-.7.1-1.3.5-1.8.4-.6 1-.9 2-.9l1.2.3c.4.1.7.4 1 .7l.2.4v.4l.5.2 1 .7.2.4a6.9 6.9 0 01.1 2.4 5.6 5.6 0 000 1l.1.6-.1.7-.3.6v.9a17.3 17.3 0 00-.2 2 18.1 18.1 0 01-.7 3.7l.1.5c0 .5 0 1-.2 1.3V18l-.3.8v.8h.1a23.3 23.3 0 001.6-.1l.7-.2 1.2-.3a2 2 0 011.7.9l.2.4v.5a2 2 0 011.6.8l.1.4.1.4.5-.4c0-.4.2-.7.5-1l.3-.2.5-1.1a164.7 164.7 0 001.4-2.8l.4-1.5c0-.4.3-.7.6-.8l.1-.6c0-.2.1-.3.3-.5l.5-.8.5-1.3a23.5 23.5 0 011-2.5l-.1-.5.1-.5.5-.5.2-.1c.2-.5.6-.8 1.1-1 .3-.2.7-.1 1 .1.3.3.6.5.9.5l1.3.2c.3 0 .5.1.7.3.3.4.6.9.7 1.4h.3c.3 0 .5.2.7.3.4.5.7 1.1.7 1.8L46 12l.6 2.1.6 2.4c0 .3.1.7.3 1L48 19v1.9l.3.6.3.9a23.5 23.5 0 01.9 3.6h1.3l.7.1c.3 0 .5.3.6.5a2 2 0 01.2 1.1h.2l.8.1.5.5.3 1c0 .3-.1.7-.3 1 .2 0 .3 0 .4.2l.6.8c0 .2.2.3.3.4l.1.2h.3l-.1-.2-.2-.4-.2-.3a1 1 0 01-.1-.4V30v-.5l-.2-.2a1 1 0 01-.3-.6v-.3a11.9 11.9 0 01.2-2l.2-1 .3-1.1c0-.3 0-.6.2-1l.1-.8v-.6-.2l.1-.6a2 2 0 01.5-.8v-.1l.1-.1v-.2c.2-.4.2-.8.2-1.2l.2-1.5a36 36 0 01.7-2.9V14c.1-.1 0-.2 0-.2v-.4l.1-1.4.2-1.8a16.4 16.4 0 00.1-2.8v-1l.5-.8A2.5 2.5 0 0159 5c.3-.1.6-.2 1-.1l.3.1a23.1 23.1 0 012.4 1.5l.5.4c.2.2.3.4.3.7l1.3 1c.2.1.4.4.4.7v.9a47.8 47.8 0 01-.7 6.9l-.7 2v1.4c-.4.6-.7 1.3-.8 2a46 46 0 01-.9 4.7v.5c-.2.3-.2.7-.2 1l-.1.8 1.2-.9.9-.4.2-.4a1 1 0 01.8-.4c.2 0 .3-.2.5-.3v-.2l.1-.1c0-.2.2-.3.3-.4l.6-.4.3-.3.7-.8.4-.4.1-.1.1-.1a1.4 1.4 0 01.2-.5l.3-.3v-.1l.2-.3v-.2l.2-.3.1-.2.1-.1V22v-.2l.2-.3.2-.8.1-.6V20a1 1 0 010-.9l.3-.2v-.6l.2-1.6a3.2 3.2 0 01.1-.6v-.1-.1-.3c-.1-.2 0-.5.1-.7l.5-.7.6-.5a1 1 0 01.6-.2h.5c.5.1 1 .4 1.4.8l.4.4.3.2c.2 0 .3 0 .4.2.3.1.4.5.5.8l.2.2a22.2 22.2 0 00.8.6c.4.1.7.5.7.9v.3l.4.5.1.5a98.4 98.4 0 00.2 8.1c.2 0 .3-.1.4-.3.4-.4.7-1 .8-1.5 0-.2.3-.5.5-.6.2 0 .3-.2.4-.3l.3-.8.3-1c0-.3.2-.7.4-1V20c0-1.4 0-2.7-.2-4a53.1 53.1 0 01-.4-4.7l-.1-.7-.1-.5a1 1 0 01-.4-1.1v-.6-.7l-.2-1c-.1-.3 0-.6.3-.9l.3-.3c.3-.4.7-.6 1.4-.6.4 0 .7 0 1 .3l.5.4.2.2h.3c.2 0 .5 0 .7.2.3.3.6.7.8 1.2v.3h.2c.3 0 .5 0 .7.2l.8 1.2.4 1.2.4 1.1.5.8.2.6v.7l.2.7a1 1 0 01-.3 1c0 .3 0 .6-.3.8a1 1 0 010 1l-.3.4-.2.2c0 .7.2 1.3.3 2l.2 2.5-.1 1.4a42.3 42.3 0 01-.6 3.3l-.1.4-.6 1a523.5 523.5 0 011.8-2.3v-.3c0-.3.1-.5.3-.7.6-.6 1-1.3 1.1-2 .1-.4.3-.6.6-.8 0-.4.2-.7.5-1 .1 0 .2 0 .3-.2l.6-1.1a164.6 164.6 0 001.4-2.8l.4-1.5c0-.4.3-.7.6-.8v-.6l.4-.5.5-.8.5-1.3a24.2 24.2 0 011-2.5l-.1-.5v-.5l.6-.5.1-.1c.3-.5.7-.8 1.2-1 .3-.2.7-.1 1 .1.3.3.6.5.8.5l1.4.2c.2 0 .5.1.6.3.4.4.6.9.7 1.4h.4l.6.3c.5.5.8 1.1.8 1.8l.2 1.2.6 2.1.6 2.4c0 .3.1.7.3 1l.4 1.5v1.9l.3.6.4.9a23.6 23.6 0 01.8 3.6h1.4l.7.1c.2 0 .4.3.6.5a2 2 0 01.2 1.1h.2l.7.1c.3.1.5.3.6.5.2.4.2.7.2 1 0 .3 0 .7-.2 1 .1 0 .3 0 .4.2l.6.8.2.4.2.2c.2 0 .5.1.7.3l.6.9.3.3c.2.3.3.6.2 1-.1.5-.3 1-.7 1.2l-1.1.7-1.2.3a9 9 0 01-1 0h-.1l-.5.4a1 1 0 01-.7 0h-.2l-.2-.1H109.1l-.9-.1a2 2 0 01-.4-.3v-.2c-.4 0-.8 0-1.3-.4l-.9-1.1-.1-.2-.7-.4-.9-1.1-.3-.5a1 1 0 01-.7-.1l-.4-.3a19.7 19.7 0 01-3.3.5h-.5-.5a2 2 0 01-1.4.4l-.7.2h-1.3a13.6 13.6 0 01-2.2 0l-.5.6h-.2a2 2 0 01-.4.6c0 .4-.2.7-.5 1a1 1 0 00-.3.2 15.6 15.6 0 00-1 1.3l-.6.5c0 .3 0 .6-.3.8a5 5 0 01-1.2.7c-.5.3-1 .4-1.4.4-1.1 0-2-.6-2.4-1.8-.8-.2-1.3-.7-1.7-1.7v-.3a6.8 6.8 0 01.3-2H82l-2 1a1 1 0 01-.4.2H79a5.9 5.9 0 01-4.7-2l-.5-.6c-.7-.5-1.3-1.1-1.7-1.8a76.2 76.2 0 01-3 3h-.2c-.5.3-.9.7-1.2 1.1a1 1 0 01-.4.4 12 12 0 00-2.5 1.3 47.7 47.7 0 00-3.1.3c-.8 0-1.4 0-1.7-.2-.4 0-.7-.3-1-.5l-.5-.6-.6-.3a1 1 0 01-.5-.5v-.2l-.3-.3v.4c-.2.6-.4 1-.8 1.3l-1 .7-1.2.3a9 9 0 01-1.2 0l-.5.4a1 1 0 01-.7 0h-.2l-.1-.1h-.9l-1-.1a2 2 0 01-.3-.3l-.2-.2c-.3 0-.7 0-1.1-.4l-1-1.1v-.2l-.7-.4-1-1.1-.2-.5a1 1 0 01-.8-.1l-.4-.3a19.5 19.5 0 01-3.3.5h-.8-.2a2 2 0 01-1.3.4l-.8.2h-1.2a13.6 13.6 0 01-2.3 0c-.1.3-.3.4-.5.6h-.1a2 2 0 01-.4.6c0 .4-.2.7-.5 1a1 1 0 00-.4.2 15.6 15.6 0 00-1 1.3l-.5.5c0 .3-.1.6-.4.8a5 5 0 01-1.2.7c-.5.3-1 .4-1.4.4-1.1 0-1.9-.6-2.3-1.8-.8-.2-1.4-.7-1.7-1.7l-.1-.3a6.8 6.8 0 01.2-1.8 3.1 3.1 0 01.6-1.1V32c0-.4.2-.7.5-.8l1.4-1 1.1-1.5a403 403 0 012.4-3l-1.4.2-1-.1-.4-.2a30.2 30.2 0 01-2.2.2 8.7 8.7 0 00-1.5.3l-.2 3.5v3.8l.2 1.4.1 1.2a68.8 68.8 0 01.7 1.9h.1l.3.3h.3c.4.2.7.6.7 1v.1l.5.4c.1 0 .3.3.3.5l.1.9c0 .4 0 .9-.3 1.3-.2.5-.6.9-1.2 1.1a1 1 0 01-.4 0 3 3 0 01-.8 0h-.3-.2a1 1 0 01-.5-.1c-.3 0-.5-.2-.6-.4h-.1a1 1 0 01-1-.7c0-.1 0-.3-.2-.4a1 1 0 01-1-.8 1 1 0 01-.5-.5l-.2-.4a1 1 0 01-1-1.2V39l-.1-.4-.1-.1a1 1 0 01-.4-.6c-.2-.5-.2-1-.3-1.6 0-.3-.2-.7-.4-1a1 1 0 01-.1-.5c0-.5 0-1-.2-1.4a35.7 35.7 0 01-.3-2l.1-.8v-.7a11.4 11.4 0 010-1.8v-.3a1 1 0 01-.4.1c-.6 0-1.2 0-1.8.2a26 26 0 00-3.7 1l-1.4.4a21.1 21.1 0 00-.3 3.8v.5l.3.2.7.2a1 1 0 01.8 1.4l.3.1.6.2a1 1 0 01.8 1.3c0 .3-.2.7-.4 1l-.2.5c0 .3-.2.6-.5.7l-.5.5a4 4 0 01-1.1.4l-1 .1a13.1 13.1 0 01-1.6 0 1 1 0 01-1-.5l-.5-.4-.6-.8a1 1 0 01-.6-.5l-.5-.4c-.3-.2-.5-.5-.6-.9a28 28 0 01-.5-1.3L2 35a29.9 29.9 0 01-.3-1.8 27.1 27.1 0 01.2-5.1V28h-.5a1 1 0 01-.5-.4l-.7-1.2-.3-1.5.1-.9c.1-.3.3-.5.7-.6l.3-.1a1 1 0 011.3-.5h.4v-.3-.7L3 21c.2-.3.4-.6.4-1l.2-1.2v-.4-.5l.2-.8.2-.8a5.4 5.4 0 00.2-1.6L4 14V14a38.9 38.9 0 01.7-3.5l-.2-1.6c0-.7.1-1.4.3-2l-.1-1V5v-.5c0-.4.2-.7.6-1h.1l.7-.7.5-.2c.9 0 1.6.3 2.2 1 .3.2.5.6.7 1 .4 0 .7.3 1 .6.6.6.9 1.3.9 2.2 0 .5-.1 1-.3 1.4V10l-.1 2.3-.1 2v.4l-.2.6a7 7 0 01-.2 2.1l-.1.6a55.1 55.1 0 00-.3 2.8l-.2.7-.1.4zm18.7-.2v.4l-.8 1a2 2 0 01-1.2.2 2 2 0 01-.7 0l-.5-.4a27.6 27.6 0 01-2.6.3l-1.2.3c-.4 0-.7.2-1 .5-.2 1.3-.3 2.6-.3 4v4l.3 1.3v1.3l.4.7a74.4 74.4 0 01.5 1.5l.4.6h.4l.4.2v.2c0 .2.1.5.3.6l.6.4v.6c0 .4 0 .7-.2 1-.1.3-.3.5-.7.6a2 2 0 01-.5-.1 2 2 0 00-1 0l-.3-.2-.2-.2-.2-.1H20l-.5-.8a.9.9 0 00-.8-.3V39l-.1-.8-.5-.5-.3-1.5c0-.5-.2-1-.5-1.4l-.1-1.6c-.1-.5-.3-1-.3-1.6v-1a11 11 0 000-1.6v-.8l.4-.7-.3-.6v-.6-1l.1-1H17a1 1 0 00-.5.2l-.4.2h-1.4l-.7.5c-.7 0-1.3 0-2 .2a27.4 27.4 0 00-3.8 1l-2 .6a22.8 22.8 0 00-.4 4.6v1.4l.2.4.1.4v.3c0 .3.3.5.5.6l.8-.1c.3 0 .7 0 1 .2l1 .4-.4.8-.3.8h-.2l-.2.1-.1.1v.3a3 3 0 01-.8.3 7.7 7.7 0 01-1.7.2H5v-.3l-.3-.1-.2-.1-.2-.2-.4-.5a24 24 0 01-.5-1.4l-.4-.7a27.8 27.8 0 010-4.8l.1-2.3a.7.7 0 00-.6-.3h-.6c-.3-.3-.4-.6-.6-1-.2-.4-.2-.7-.2-1.1v-.6l.6-.2c.2 0 .4-.2.4-.5l.5.2.6-.1.5-.2.2-.9v-1c.3-.3.5-.8.6-1.3l.2-1.3v-.5-.4c0-.2 0-.4.2-.7a24 24 0 00.4-1.8v-1.1l-.1-.2L5 14V14a38.4 38.4 0 01.7-3.6l-.2-1.6c0-.7.1-1.4.3-2l-.1-1v-.7-.7c.2 0 .4-.2.5-.4l.4-.4a2 2 0 012 2c.1.5 0 1-.3 1.3l.1 1.3-.1 2.2v2.1c-.2.3-.3.6-.3 1a6 6 0 01-.2 1.8l-.1.8a65.8 65.8 0 00-.2 2.6l-.2.4-.1.4-.1 1.2V22l-.1.4v.7c1.7-.1 3.5-.4 5.2-.8l5.2-1c.2-.2.2-.4.2-.7v-.5l.4-1.9a46 46 0 00.7-5.8l.2-1a7.8 7.8 0 01.4-1.6l-.1-.2-.2-.1c0-.1.1-.1.1 0l.2-.6a12.5 12.5 0 00.1-1.2l.2-.5v-.4l-.2-.4a3.3 3.3 0 00.1-1l.3-.5-.2-1V2.7c0-.5.1-.9.3-1.2.3-.4.7-.5 1.3-.5l.8.1.6.5a6 6 0 01.1 2 6.5 6.5 0 000 1.4l.2.6c-.2.2-.3.5-.4.9l-.2 1a19.1 19.1 0 000 2 17.2 17.2 0 01-.8 3.7l.1.6-.1 1c-.1.4-.2.7-.1 1L21 17V18l-.1 1.1-.2 1.1c0 .1 0 .2.2.2.1 0 .1 0 0 .2l1.5-.2a79.6 79.6 0 003.2 0l.9-.3.8-.2c.4 0 .7.2 1 .4a7.8 7.8 0 010 1.3zM113 32.4l-.5.8-.8.5-1 .2h-1.4c-.2 0-.2 0-.2.2 0 .1 0 .2-.2.2a2 2 0 00-.7-.1 3 3 0 00-.5 0 3 3 0 01-.4 0h-.4s-.2 0-.2-.2l-.2-.1c0-.1-.1-.2-.3-.2-.1 0-.3-.1-.4 0 0 0-.2 0-.4-.3l-.8-.8a18.8 18.8 0 01-1.1-2.2l-.8-1h-.3c-.4 0-.7.2-.8.5l-.4-.2c-.1-.2-.2-.2-.4-.3a17.7 17.7 0 01-3.4.6h-1l-.6.2a1 1 0 01-.6.2l-.5-.1c-.2 0-.2 0-.2.2 0 .1 0 .2-.2.2H92c-.4 0-.9 0-1.4-.2l-.4.2-.2.2-.1.3-.2.2h-.3c0 .3-.2.5-.4.7-.2.2-.3.4-.3.7a2 2 0 00-.6.6 16.1 16.1 0 00-1 1.3l-.7.5v.7a4 4 0 01-1 .5l-1 .3c-.7 0-1.2-.4-1.5-1.1a5.9 5.9 0 01.2-1.6l.4-.6c.1-.2.3-.4.6-.5 0-.2-.1-.3-.3-.4-.1 0-.2-.2-.1-.4.6-.3 1.2-.7 1.6-1.2.5-.5 1-1 1.3-1.6a481.9 481.9 0 012.5-3.2v-.7c.7-.8 1.2-1.6 1.4-2.6.2 0 .4-.1.5-.3l.1-.7.3-.1c0-.1 0-.2.2-.1l.8-1.6a152.5 152.5 0 001.4-2.9c.2-.5.4-1 .5-1.7.3 0 .5-.2.5-.5l.1-.8c.4-.3.6-.7.8-1.1l.5-1.4.5-1.5c.1-.4.4-.9.7-1.2v-.1l-.1-.3c-.1 0-.2 0-.2-.2.4-.2.6-.4.7-.7l.6-.5c.5.4 1 .6 1.3.7l1.5.2c.3.3.5.7.5 1.2a39.1 39.1 0 00.8 3.6c.3.6.5 1.4.6 2.1 0 .4.2.9.4 1.3l.3 1.2v1.1c0 .4 0 .8.2 1l.2.6.3.9a22 22 0 01.8 3c.1.9.4 1.6.7 2.3l.5.5.9.1h2l.4.1.1.5c0 .3 0 .5-.3.7l-.2.6.1.3h-.4c-.6 0-1 .1-1.6.3.2.4.4.7.8 1l1 .7.7-.2c.3 0 .5 0 .8.2l.8.2c.2 0 .3 0 .4-.2l.5.7.5.6zm-58.7 0c0 .3-.2.6-.4.8l-.8.5-1 .2h-1.5c-.1 0-.2 0-.2.2 0 .1 0 .2-.2.2a2 2 0 00-.7-.1 3 3 0 00-.4 0 3 3 0 01-.5 0h-.4l-.2-.2-.2-.1-.2-.2c-.2 0-.3-.1-.4 0-.1 0-.3 0-.5-.3l-.7-.8a18.2 18.2 0 01-1.2-2.2l-.7-1h-.3c-.4 0-.7.2-.9.5l-.3-.2-.4-.3a17.7 17.7 0 01-3.5.6H38l-.7.2a1 1 0 01-.6.2l-.5-.1c-.1 0-.2 0-.2.2 0 .1 0 .2-.2.2h-2.3c-.4 0-.9 0-1.3-.2l-.4.2c-.1 0-.2 0-.2.2l-.2.3-.2.2h-.3c0 .3-.2.5-.3.7-.2.2-.3.4-.3.7a2 2 0 00-.7.6 16.1 16.1 0 00-1 1.3l-.6.5c-.1.1-.2.4-.1.7a4 4 0 01-1 .5c-.3.2-.7.3-1 .3-.7 0-1.2-.4-1.4-1.1a5.7 5.7 0 01.2-1.6l.3-.6c.1-.2.3-.4.6-.5 0-.2 0-.3-.2-.4-.2 0-.2-.2-.2-.4.6-.3 1.2-.7 1.7-1.2.4-.5.9-1 1.2-1.6a480.5 480.5 0 012.6-3.2v-.7c.7-.8 1.1-1.6 1.3-2.6.3 0 .5-.1.5-.3l.2-.7.2-.1c0-.1.1-.2.3-.1l.7-1.6a152.6 152.6 0 001.5-2.9l.4-1.7c.3 0 .5-.2.5-.5l.2-.8c.3-.3.6-.7.7-1.1l.5-1.4.5-1.5c.2-.4.4-.9.8-1.2v-.1c0-.2 0-.2-.2-.3l-.1-.2c.3-.2.5-.4.6-.7l.7-.5c.5.4.9.6 1.3.7l1.5.2c.3.3.4.7.5 1.2a40 40 0 00.8 3.6l.5 2.1c0 .4.2.9.4 1.3l.4 1.2v1.1l.1 1 .3.6.3.9a22 22 0 01.7 3l.7 2.3c.1.2.3.4.6.5l.8.1h2l.4.1.2.5c0 .3-.1.5-.3.7-.2.2-.3.3-.3.6l.1.3h-.4l-1.6.3.8 1 1 .7.7-.2c.3 0 .6 0 .8.2l.8.2c.2 0 .4 0 .5-.2l.4.7.5.6zm61.9-.5l1 1.4c.2.2.6.3.9.3.2.2.4.4.8.5.3 0 .5 0 .8-.2H120.7l.9-.1.3-.3.4-.4.6-.7a1 1 0 000-1l-.6-1.2-.4-1.1a1 1 0 00-.7-.8h-.3-.2l-.2-2.2.3-3.6.4-3.9c0-1.4-.1-2.7-.5-3.9a1 1 0 00-.3-.4l-.8-.6a3 3 0 00-.5-.3l-.1-.4a1 1 0 00-.3-.4c-.3-.3-.5-.5-.8-.6a3 3 0 00-1.1-.5 2 2 0 00-1 0l-.7.3a1 1 0 00-.7.8l-.5.8v.9l-.2.7v.4a21.4 21.4 0 00.1.4c.2.4.3 1 .3 1.5 0 .6 0 1.2-.2 1.7a50.2 50.2 0 01-.6 4l-.1.7a5.4 5.4 0 000 1v.6l.2.5.2 2.6.1.5.8 1.3c.4.5.7 1 1.1 1.3l.7.4zm10.9 0l1 1.4.9.3.8.5c.3 0 .6 0 .8-.2H131.6l1-.1.3-.3.4-.4.5-.7a1 1 0 000-1l-.6-1.2-.4-1.1a1 1 0 00-.7-.8h-.2-.2c-.2-.7-.3-1.5-.2-2.2l.3-3.6.3-3.9c.1-1.4 0-2.7-.5-3.9a1 1 0 00-.3-.4l-.7-.6a3 3 0 00-.6-.3l-.1-.4a1 1 0 00-.3-.4c-.2-.3-.5-.5-.8-.6a3 3 0 00-1.1-.5 2 2 0 00-1 0 9 9 0 00-.7.3 1 1 0 00-.6.8c-.3.2-.5.5-.6.8-.1.3 0 .6.1.9l-.2.7v.4a30.8 30.8 0 00.3 1.9l-.1 1.7a48.4 48.4 0 01-.7 4v.7a5.4 5.4 0 00-.1 1l.1.6v.5l.3 2.6.1.5.9 1.3c.3.5.6 1 1 1.3l.7.4zM85.7 12.5h-.1-.1l-.1.1v.4c0 .3 0 .5-.2.7l-.3.5c0 .1 0 .2.2.2l.1.1c0 .2-.2.3-.3.5l-.3.4.3 2.4c.2.8.2 1.6.2 2.4v1.2a40.3 40.3 0 01-.6 2.3l-.1 1.2-1 1.7a6 6 0 00-.8 1.8c-.5.3-1 .7-1.4 1.2L80.1 31c-.8.3-1.6.7-2.3 1.2h-.6a5 5 0 01-3.9-1.8l-1.2-1.8-.9-2a78.2 78.2 0 01-4.2 4.2h-.3c-.6.4-1.2.9-1.5 1.5a13 13 0 00-2.6 1.4 49.7 49.7 0 00-2.6.1l-1.4-.1c-.3 0-.5-.2-.7-.3l-.4-.5-.9-.6a28 28 0 01-.3-1l-.4-.8V30v-.5l-.2-.6-.3-.2c0-1 0-1.8.3-2.6a31.2 31.2 0 00.8-4.9l.3-.4.2-.4.2-1a15.1 15.1 0 01.5-3.3l.6-2v-.7l.1-2.6a17.3 17.3 0 00.1-4l.4-.6.6-.5a26.1 26.1 0 012.9 1.8v.8a47.3 47.3 0 01-.7 6.7 10 10 0 01-.6 2v1.2c-.5.7-.7 1.5-.9 2.3a46.8 46.8 0 01-1 4.7l.2.3c-.2.4-.3.9-.3 1.4l-.2 1.4.5 1 .5 1h1a4.5 4.5 0 001.4 0c.1-.3.3-.5.6-.6l.7-.4.7-.4c.2-.1.4-.3.5-.6h.5l.3-.3a9.6 9.6 0 00.6-.7c.1-.1.2-.2.1-.3.3 0 .6-.2.8-.4a10.1 10.1 0 001-1.3l.8-.6v-.1l.1-.5c.1-.1.2-.3.1-.7h.4V23l.2-.2.3-.2c0-.5 0-.9.3-1.3a2.8 2.8 0 00.2-1.5l-.1-.3.4-.8v-1l.1-1 .3-1c0-.1 0-.3-.2-.4l.4-.6.5-.4c.3 0 .5 0 .7.2l.6.4a26.8 26.8 0 001.2.8v.8c.2 0 .4.2.5.4a109.4 109.4 0 000 6.6c0 1 .2 1.9.4 2.8a53.1 53.1 0 001.4 1.6h.4c.8 0 1.4-.2 1.9-.8.4-.5.7-1.1 1-1.8.3-.2.6-.4.7-.7l.4-1c.2-.3.2-.7.3-1l.4-1V20l-.1-4a52 52 0 01-.4-4.8 204.8 204.8 0 00-.3-1.5l-.4-.5.1-.8v-1l-.3-.8.5-.5c.1-.2.3-.3.6-.3.1 0 .3 0 .4.2.2 0 .3.2.4.3l.4.3.4.1h.4l.6.9.4 1.1.4 1.1.6 1V12l.2.6zm32.4 21zm11 0h-.1zm2.2-3.3l-.4.5a6 6 0 00-.5.4l-.5.2a9 9 0 01-1 0h-.4a.7.7 0 01-.5-.2c0-.1-.2-.2-.5-.2h-.2l-1-1.3-.8-1.2a25.7 25.7 0 00-.5-3.9l.1-.7v-.6a50 50 0 01.7-4l.2-2c0-.6-.1-1.2-.4-1.8v-.2l.2-.5v-.4-.6c0-.1.1-.3.3-.3l.2-.4v-.3l.6-.2h.6c.3 0 .6.1.8.3l.7.5c.4 1.1.5 2.3.4 3.6l-.3 3.7a41 41 0 00-.3 3.7 8 8 0 00.5 3.4h.4c0-.2.1-.2.3-.2h.1l.5 1.4.7 1.3zm-11 0l-.4.5a6 6 0 00-.4.4l-.6.2a9 9 0 01-1 0h-.4a.7.7 0 01-.4-.2l-.5-.2h-.3l-1-1.3-.8-1.2a25.1 25.1 0 00-.4-3.9v-.7l.1-.6a51.9 51.9 0 01.7-4l.1-2c0-.6 0-1.2-.3-1.8v-.2l.1-.5.2-.4c0-.3 0-.4-.2-.6l.3-.3c.2 0 .3-.2.3-.4v-.3l.6-.2h.6c.3 0 .5.1.8.3l.6.5c.4 1.1.6 2.3.5 3.6l-.3 3.7-.4 3.7a8 8 0 00.6 3.4h.3c.1-.2.2-.2.3-.2h.2l.5 1.4.7 1.3zm-18.2-3.4l-.3-.9-.2-.6-.2-1-.2-1.2a58.3 58.3 0 00-1.2-5v-.2l-.4-.8a31.9 31.9 0 01-.6-2c-.1-.3-.3-.5-.6-.7l-.1.5v.9a1 1 0 00-.4.5c-.1.3-.3.5-.5.6l-.8 2.1a46.2 46.2 0 01-2.2 4l-.9 2.1c-.3.2-.5.5-.6.8l-.2 1 .8.2a17.8 17.8 0 001.5 0l.6.4 1-.2c.4 0 .7-.1 1-.3a4.5 4.5 0 002.3.2l.7-.2c.3 0 .4.2.5.3h.6l.2-.2c0-.1 0-.2.2-.3zm-58.7 0l-.2-.9-.3-.6-.2-1c0-.5 0-.8-.2-1.2a58.3 58.3 0 00-1.1-5v-.2l-.5-.8a34.7 34.7 0 01-.6-2c0-.3-.3-.5-.6-.7v1.4a1 1 0 00-.5.5c0 .3-.3.5-.5.6a48.5 48.5 0 01-3 6.1l-.9 2.1c-.3.2-.5.5-.6.8l-.1 1 .7.2a17.8 17.8 0 001.5 0l.7.4a5 5 0 011-.2l.9-.3a4.5 4.5 0 002.3.2l.8-.2c.2 0 .4.2.5.3h.5l.2-.2c0-.1 0-.2.2-.3zm56.1-6.5l.2.7a56.3 56.3 0 011.1 5 1 1 0 00-.4.1 7.8 7.8 0 01-1.4.2c-.4 0-.8 0-1.2-.2a1 1 0 00-.8.1l-.5.2h-.1l.5-1.2a46 46 0 012.2-4l.4-.9zm-58.6 0l.2.7a58 58 0 011 5 1 1 0 00-.4.1 8 8 0 01-1.3.2c-.5 0-.9 0-1.2-.2a1 1 0 00-.9.1 1 1 0 01-.4.2h-.2l.6-1.2a47.2 47.2 0 012.2-4l.4-.9zm15.2-.2z" fill="#000"/>
</svg>
