<svg xmlns="http://www.w3.org/2000/svg" xml:space="preserve" fill-rule="evenodd" stroke-linejoin="round" stroke-miterlimit="2" clip-rule="evenodd" viewBox="0 0 24 24">
  <path d="M7.36 20.55H2c.08-.02.23-.11.45-.28l.18-.14a10.23 10.23 0 0 0 1.28-1.26 267.27 267.27 0 0 0 3.06-3.45 1152.4 1152.4 0 0 1 3.06-3.45 277.5 277.5 0 0 1-4.89-5.51 227.94 227.94 0 0 1-1.53-1.73A9 9 0 0 0 2.84 4l-.14-.12c-.35-.27-.59-.4-.7-.43h5.56c-.18-.02-.25.1-.22.37.03.24.23.62.63 1.15l.18.25.74.98.02.03.94 1.3.95 1.3.33.45.46.63.13.18.26.34.05.06h.06c.05-.1.19-.28.4-.57.1-.11.19-.23.27-.35l.26-.32.28-.37a84.72 84.72 0 0 0 1.93-2.6c.12-.14.23-.3.34-.45l.48-.67a4.4 4.4 0 0 0 .72-1.32l.01-.06c.03-.22-.01-.33-.14-.33h5.33l-.06.02a5.21 5.21 0 0 0-.84.63 13.78 13.78 0 0 0-1 1.03 260.42 260.42 0 0 0-4.52 5.13 215 215 0 0 1-1.53 1.71 165.89 165.89 0 0 0 3.28 3.82l1.55 1.77.33.37.57.63.2.22a15.25 15.25 0 0 0 1.54 1.44 3.44 3.44 0 0 0 .51.33h-5.24c.04 0 .08-.02.1-.05.07-.06.09-.17.06-.33v-.05a5.27 5.27 0 0 0-.76-1.34l-.77-1a108.7 108.7 0 0 1-1.79-2.23l-.25-.3a39.63 39.63 0 0 1-1.3-1.63H12l-.41.55-.52.66-.28.36a132.13 132.13 0 0 0-1.98 2.55l-.4.51-.35.45-.1.14-.27.36c-.29.4-.45.71-.48.92-.02.16-.01.27.03.34.02.05.06.08.12.09Z"/>
</svg>
