<?xml version="1.0" encoding="UTF-8" standalone="no"?>
<!DOCTYPE svg PUBLIC "-//W3C//DTD SVG 1.1//EN" "http://www.w3.org/Graphics/SVG/1.1/DTD/svg11.dtd">
<svg width="100%" height="100%" viewBox="0 0 24 24" version="1.1" xmlns="http://www.w3.org/2000/svg" xmlns:xlink="http://www.w3.org/1999/xlink" xml:space="preserve" xmlns:serif="http://www.serif.com/" style="fill-rule:evenodd;clip-rule:evenodd;stroke-linejoin:round;stroke-miterlimit:2;">
    <path d="M20.94,11C20.48,6.83 17.17,3.52 13,3.06L13,1L11,1L11,3.06C6.83,3.52 3.52,6.83 3.06,11L1,11L1,13L3.06,13C3.52,17.17 6.83,20.48 11,20.94L11,23L13,23L13,20.94C17.17,20.48 20.48,17.17 20.94,13L23,13L23,11L20.94,11ZM12,19C8.13,19 5,15.87 5,12C5,8.13 8.13,5 12,5C15.87,5 19,8.13 19,12C19,15.87 15.87,19 12,19Z" style="fill-rule:nonzero;"/>
    <circle cx="12" cy="12" r="4"/>
    <path d="M19.73,21L3,4.27L4.41,2.86L21.14,19.59L19.73,21Z" style="fill-rule:nonzero;"/>
    <g transform="matrix(1,0,0,1,1.56493,-1.27477)">
        <path d="M19.73,21L3,4.27L4.41,2.86L21.14,19.59L19.73,21Z" style="fill:white;fill-rule:nonzero;"/>
    </g>
</svg>
