<svg xmlns="http://www.w3.org/2000/svg" xml:space="preserve" fill-rule="evenodd" stroke-linejoin="round" stroke-miterlimit="2" clip-rule="evenodd" viewBox="0 0 24 24">
  <path fill="none" d="M0 0h24v24H0z"/>
  <ellipse cx="12" cy="12" fill="red" rx="3" ry="2.62"/>
  <path fill="red" d="M3.03 12.76c-.64.02-1.15.05-1.55.1a7.77 7.77 0 0 0-1.08.19c.14-.15.26-.38.39-.7l.02-.04a2.84 2.84 0 0 0 .2-1.06h2A8.94 8.94 0 0 1 3.9 7.7a6.1 6.1 0 0 1 2.8-2.73c.57-.29 1.18-.5 1.81-.65a12.2 12.2 0 0 1 2.5-.3V2.6c0-.34-.15-.61-.33-.61h2.66c-.18 0-.33.27-.33.61V4.01c1.77.05 3.22.36 4.37.94a6 6 0 0 1 2.75 2.74c.33.68.57 1.4.7 2.15.08.45.14.92.16 1.4.83 0 1.45-.03 1.86-.1l.23-.03a1.55 1.55 0 0 0 .53-.16l-.15.24a4.6 4.6 0 0 0-.4 1.05c-.03.16-.05.32-.05.48v.03h-2.02c-.1 1.6-.5 2.95-1.18 4.06a6.6 6.6 0 0 1-.82 1.06c-1.06 1.11-2.61 1.79-4.67 2.03-.43.05-.87.08-1.31.1V21.38c0 .34.15.61.33.61h-2.66c.18 0 .33-.28.33-.61V19.99a15.5 15.5 0 0 1-1.72-.16 9.43 9.43 0 0 1-2.21-.6 5.96 5.96 0 0 1-2.03-1.36 7.84 7.84 0 0 1-2.01-5.1Zm8.89 5.15h.3c.44 0 .89-.02 1.33-.07a6.68 6.68 0 0 0 1.94-.5 3.74 3.74 0 0 0 1.88-1.83l.02-.04c.3-.61.49-1.38.57-2.3.04-.42.06-.83.06-1.25 0-.96-.1-1.78-.28-2.48-.08-.34-.2-.67-.36-.99a3.77 3.77 0 0 0-1.92-1.83 7.4 7.4 0 0 0-2.5-.53c-.24-.02-.5-.03-.75-.03h-.29c-.47 0-.94.03-1.4.08a7 7 0 0 0-1.91.5c-.88.37-1.54.99-1.97 1.85-.18.36-.32.74-.42 1.14-.09.37-.15.77-.2 1.21a11.83 11.83 0 0 0 .26 3.68c.09.32.2.64.36.94.43.87 1.1 1.5 1.98 1.88.41.17.84.3 1.29.39a9.61 9.61 0 0 0 2.01.18Z"/>
  <path fill="#0f1" d="M21 21h-6L3 3h6l12 18Z"/>
  <path d="M7.58 3H3.9c.12.02.34.17.66.45l.32.3a10.35 10.35 0 0 1 1.03 1.3l.66.89.28.36L8.1 7.98l.66.88a389.22 389.22 0 0 1 3.97 5.47l.55.76 1.33 1.87.51.72a50.52 50.52 0 0 1 1 1.52l.23.4c.23.44.33.76.32.98-.02.18-.06.3-.13.37a.21.21 0 0 1-.14.05h3.69a.35.35 0 0 1-.13-.03 2.17 2.17 0 0 1-.56-.39l-.3-.3a9.4 9.4 0 0 1-1.07-1.39l-.93-1.31-1.87-2.6-1.95-2.67-.29-.4A3000.52 3000.52 0 0 1 8.93 6.3l-.35-.48-.61-.85-.12-.17c-.39-.55-.58-.97-.58-1.26v-.05l.03-.17c.04-.18.13-.29.28-.32Z"/>
</svg>
