<?xml version="1.0" encoding="UTF-8" standalone="no"?><!DOCTYPE svg PUBLIC "-//W3C//DTD SVG 1.1//EN" "http://www.w3.org/Graphics/SVG/1.1/DTD/svg11.dtd"><svg width="100%" height="100%" viewBox="0 0 189 24" version="1.1" xmlns="http://www.w3.org/2000/svg" xmlns:xlink="http://www.w3.org/1999/xlink" xml:space="preserve" xmlns:serif="http://www.serif.com/" style="fill-rule:evenodd;clip-rule:evenodd;stroke-linejoin:round;stroke-miterlimit:2;"><g><path d="M5.176,12.188l-0,-0.501l0.041,-0l0.167,-0.418c0.084,-0.25 0.084,-0.542 0.125,-0.834c0.023,-0.349 0.051,-0.696 0.084,-1.044c0.096,-0.382 0.138,-0.775 0.125,-1.169l0.042,-0.333l0.042,-0.251l0.041,-1.085c0.076,-0.623 0.09,-1.252 0.042,-1.878c0.125,-0.251 0.209,-0.543 0.209,-0.835c-0.006,-0.44 -0.187,-0.861 -0.501,-1.169c-0.123,-0.118 -0.264,-0.216 -0.417,-0.292c-0.076,-0.153 -0.174,-0.294 -0.293,-0.417c-0.309,-0.338 -0.752,-0.522 -1.21,-0.501l-0.292,0.083l-0.376,0.418l-0.083,-0c-0.167,0.125 -0.292,0.334 -0.292,0.542l-0,0.71l0.041,0.542c-0.176,0.655 -0.19,1.343 -0.041,2.004l-0.209,0.918c-0.064,0.347 -0.12,0.694 -0.167,1.044c-0,0.125 -0,0.292 0.083,0.417l-0.125,-0.25c0,0.125 0.042,0.25 0.125,0.333c-0.003,0.308 -0.031,0.615 -0.083,0.919l-0.251,0.834l0,0.585l-0.083,0.709c-0.042,0.209 -0.125,0.376 -0.25,0.543l-0.084,0.334l0,0.542l-0.042,0c-0.069,0.013 -0.139,0.013 -0.208,0c-0.275,-0.114 -0.595,0.018 -0.71,0.293l-0.209,0.041c-0.167,0.084 -0.292,0.209 -0.334,0.418l-0.083,0.334c0,0.334 0.042,0.584 0.167,0.834c0.105,0.255 0.245,0.494 0.417,0.71c0.042,0.083 0.167,0.125 0.251,0.167l0.125,-0c-0,0.125 0.083,0.209 0.167,0.334c-0.027,0.641 -0.069,1.281 -0.125,1.92l-0,0.709c0.045,0.336 0.101,0.67 0.167,1.002c0.041,0.042 0.125,0.125 0.125,0.251c0.139,0.243 0.264,0.494 0.376,0.751c0.041,0.208 0.166,0.375 0.333,0.501c0.042,0.083 0.126,0.125 0.251,0.167c0.031,0.097 0.089,0.184 0.167,0.25c0.115,0.212 0.289,0.386 0.501,0.501c0.089,0.216 0.309,0.352 0.542,0.334l0.919,-0l0.542,-0.084c0.167,0 0.418,-0.083 0.584,-0.208c0.126,-0.042 0.209,-0.126 0.251,-0.251c0.209,-0.125 0.292,-0.25 0.334,-0.417c-0,-0.125 -0,-0.209 0.083,-0.292c0.125,-0.167 0.209,-0.376 0.251,-0.585c0.011,-0.044 0.017,-0.09 0.017,-0.136c0,-0.257 -0.183,-0.48 -0.435,-0.531c-0.086,-0.019 -0.17,-0.047 -0.25,-0.084c0.005,-0.029 0.007,-0.059 0.007,-0.089c0,-0.269 -0.2,-0.499 -0.466,-0.537c-0.146,-0.017 -0.287,-0.059 -0.418,-0.125c-0.131,-0.074 -0.271,-0.131 -0.417,-0.167l0,-0.501c-0.004,-0.699 0.052,-1.397 0.167,-2.087c0.608,-0.146 1.207,-0.328 1.795,-0.543c0.791,-0.235 1.601,-0.402 2.421,-0.5l0.166,-0.084l0.042,0.251l-0.083,0.333c-0.048,0.333 -0.048,0.67 -0,1.002l-0,0.418c-0,0.166 -0,0.292 -0.084,0.417l0,0.25l0.209,0.919l0.083,0.751c0,0.125 0,0.209 0.084,0.292c0.083,0.167 0.167,0.334 0.167,0.543l0.167,0.834c-0,0.167 0.125,0.293 0.25,0.376l0.042,0.084l0.042,0.166l-0,0.084c-0.01,0.042 -0.016,0.085 -0.016,0.128c0,0.298 0.245,0.543 0.543,0.543c0.019,-0 0.038,-0.001 0.057,-0.003l0.084,0.167c-0,0.002 -0,0.004 -0,0.006c-0,0.298 0.244,0.543 0.542,0.543c0.028,-0 0.056,-0.002 0.084,-0.007l0.125,0.209c0.083,0.25 0.292,0.376 0.501,0.376l0.041,-0c0.126,0.125 0.209,0.208 0.334,0.25c0.126,0 0.209,0.042 0.334,0l0.292,0l0.418,0.084l0.208,-0c0.293,-0.167 0.543,-0.334 0.668,-0.627c0.204,-0.384 0.249,-0.834 0.126,-1.252c-0,-0.125 -0.084,-0.208 -0.209,-0.292l-0.251,-0.167l0,-0.083c0,-0.251 -0.125,-0.459 -0.417,-0.543l-0.167,-0.042l-0.083,-0.041l-0,-0.084c-0.131,-0.365 -0.27,-0.727 -0.418,-1.085c-0.067,-0.493 -0.164,-0.98 -0.292,-1.461l0.042,-2.087c-0,-0.668 0.042,-1.252 0.125,-1.92l0.209,-0.083c0.433,-0.132 0.883,-0.202 1.335,-0.209l0.459,-0.042l0.251,0.126l0.584,0.083c0.343,0.003 0.678,-0.099 0.96,-0.292c0.276,-0.204 0.492,-0.478 0.626,-0.793l0.042,-0.251l-0,-0.125c0.009,-0.265 -0.005,-0.53 -0.042,-0.793c0,-0.083 -0.083,-0.167 -0.125,-0.209c-0.125,-0.208 -0.334,-0.375 -0.584,-0.417l-0,-0.083l-0.084,-0.209c-0.213,-0.32 -0.576,-0.509 -0.96,-0.501l-0.668,0.125l-0.417,0.167l-0.417,0c-0.279,0.008 -0.557,0.008 -0.835,0l-0,-0.042l0.042,-0.584c-0,-0.167 0.041,-0.292 0.125,-0.417l-0,-0.292l0.042,-0.334l0.125,-0.752l-0.042,-0.292c0.155,-0.676 0.281,-1.358 0.376,-2.045c0.029,-0.375 0.043,-0.751 0.041,-1.127l0.084,-0.501c-0,-0.125 0.083,-0.208 0.125,-0.334c0.084,-0.083 0.125,-0.25 0.084,-0.417c-0.027,-0.167 -0.055,-0.334 -0.084,-0.501l0,-0.376c0.049,-0.417 0.035,-0.839 -0.042,-1.252c0,-0.125 -0.041,-0.208 -0.125,-0.25c-0.125,-0.209 -0.334,-0.334 -0.542,-0.417l-0,-0.084l-0.126,-0.209c-0.167,-0.208 -0.334,-0.334 -0.584,-0.417c-0.196,-0.096 -0.408,-0.153 -0.626,-0.167l-0.042,-0c-0.542,-0 -0.876,0.209 -1.127,0.501c-0.202,0.294 -0.304,0.645 -0.292,1.002l0.042,0.709l0.042,0.418c-0.078,0.125 -0.122,0.269 -0.126,0.417l0,0.334c-0.032,0.109 -0.032,0.225 0,0.334l0,0.459l-0.083,0.417l-0,0.251c-0.125,0.125 -0.167,0.25 -0.167,0.417c-0,0.125 -0,0.25 0.083,0.376l0,0.041l-0.167,0.585l-0.083,0.584c-0.128,0.718 -0.211,1.443 -0.25,2.17c-0.087,0.813 -0.213,1.621 -0.376,2.421c-1.373,0.199 -2.737,0.449 -4.09,0.752Zm24.583,3.422l-0.083,-0.083c-0.042,-0.126 -0.167,-0.251 -0.292,-0.292l-0.251,-0.042c-0.017,-0.146 -0.059,-0.287 -0.125,-0.418c-0.083,-0.083 -0.209,-0.208 -0.334,-0.25c-0.136,-0.037 -0.277,-0.051 -0.417,-0.042l-0.167,0c-0.25,-0.008 -0.501,-0.008 -0.751,0c-0.165,-0.935 -0.402,-1.856 -0.71,-2.755l-0.167,-0.333c0,-0.084 -0.042,-0.209 0,-0.334c0.032,-0.25 0.032,-0.502 0,-0.752l-0.292,-0.834c-0.08,-0.173 -0.136,-0.355 -0.167,-0.543l-0.292,-1.294c-0.181,-0.619 -0.334,-1.245 -0.459,-1.878c-0,-0.376 -0.167,-0.71 -0.418,-0.96c-0.083,-0.125 -0.208,-0.167 -0.375,-0.167c-0.084,-0.209 -0.167,-0.417 -0.334,-0.543c-0.084,-0.125 -0.209,-0.167 -0.334,-0.208c-0.334,-0 -0.584,-0 -0.751,-0.084c-0.167,0 -0.334,-0.125 -0.501,-0.292c-0.167,-0.125 -0.376,-0.167 -0.543,-0.083c-0.292,0.125 -0.501,0.333 -0.626,0.584l-0.083,0.083c-0.126,0.042 -0.251,0.126 -0.293,0.251l-0.083,0.292l0.042,0.25l-0.251,0.585c-0.212,0.503 -0.394,1.019 -0.542,1.544c-0.068,0.158 -0.168,0.3 -0.293,0.417l-0.166,0.334l-0.042,0.293c-0.167,0.083 -0.292,0.25 -0.334,0.417l-0.209,0.835c-0.125,0.292 -0.209,0.542 -0.375,0.793c-0.287,0.532 -0.579,1.06 -0.877,1.586c-0.167,0.083 -0.292,0.25 -0.292,0.459l-0,0.083c-0.167,0.042 -0.292,0.209 -0.334,0.376c-0.1,0.439 -0.316,0.842 -0.626,1.169c-0.084,0.083 -0.167,0.208 -0.167,0.334l-0,0.208l-0.584,0.71c-0.448,0.582 -0.894,1.166 -1.336,1.753c-0.209,0.209 -0.417,0.417 -0.751,0.542c-0.167,0.084 -0.293,0.251 -0.293,0.418c-0.028,0.138 -0.028,0.279 0,0.417l0,0.084c-0.125,0.125 -0.208,0.334 -0.292,0.501c-0.09,0.326 -0.132,0.663 -0.125,1.001l0,0.209c0.209,0.417 0.417,0.751 0.835,0.876c0.155,0.498 0.606,0.849 1.127,0.877c0.25,-0 0.542,-0.042 0.835,-0.167c0.25,-0.125 0.459,-0.25 0.626,-0.417c0.125,-0.084 0.208,-0.251 0.208,-0.418l0.293,-0.292c0.213,-0.235 0.409,-0.486 0.584,-0.751c-0,-0.084 0.083,-0.125 0.167,-0.167c0.167,-0.084 0.292,-0.251 0.292,-0.459l0.209,-0.334l0.083,-0.042l0.292,-0.292l0,-0.042l0.71,0.084l0.542,-0l0.501,-0.042l0.209,-0c0.167,-0 0.292,-0.084 0.417,-0.125l0.084,-0c0.25,-0 0.417,-0.084 0.626,-0.209l0.125,-0.084l0.459,0c0.622,0.021 1.243,-0.063 1.837,-0.25l0.208,0.167c0.168,0.097 0.375,0.097 0.543,0l0.292,0.584c0.184,0.32 0.442,0.592 0.752,0.793c0.125,0.209 0.292,0.418 0.459,0.543c0.25,0.209 0.459,0.25 0.667,0.25l0.042,0.042l0.251,0.167c0.083,0.084 0.25,0.125 0.459,0.125l1.127,0l0.25,-0.167l0.125,0l0.501,-0.041c0.251,-0 0.459,-0.084 0.668,-0.167c0.25,-0.084 0.417,-0.209 0.626,-0.376c0.125,-0.083 0.209,-0.25 0.292,-0.417l0.042,-0c0.125,0.083 0.25,0.125 0.292,0.208l0.334,0.334c0.125,0.125 0.292,0.209 0.543,0.292l0.918,0.084c0.588,-0 1.175,-0.056 1.753,-0.167c0.426,-0.27 0.873,-0.508 1.336,-0.71c0.125,-0.041 0.208,-0.125 0.292,-0.25c0.125,-0.25 0.375,-0.417 0.626,-0.626l0.125,-0c0.102,-0.046 0.2,-0.102 0.292,-0.167c0.262,-0.253 0.513,-0.518 0.751,-0.793l0.668,-0.751c0.271,0.439 0.609,0.834 1.002,1.168l0.167,0.209c0.334,0.334 0.668,0.626 1.085,0.835c0.418,0.25 0.918,0.334 1.503,0.334l0.459,-0l0.209,-0.084c0.333,-0.25 0.709,-0.417 1.126,-0.584c0.195,-0.195 0.39,-0.39 0.585,-0.585l0.042,0.293l-0.042,0.083c-0.125,0.125 -0.209,0.334 -0.251,0.501c-0.104,0.324 -0.16,0.661 -0.167,1.002l0,0.208c0.209,0.418 0.46,0.752 0.835,0.877c0.199,0.508 0.708,0.83 1.252,0.793c0.251,-0 0.501,-0.042 0.793,-0.167c0.251,-0.125 0.46,-0.25 0.626,-0.417c0.167,-0.084 0.209,-0.251 0.209,-0.418l0.292,-0.292c0.216,-0.248 0.411,-0.513 0.585,-0.793l0.167,-0.167c0.167,-0.083 0.292,-0.25 0.292,-0.459l0.208,-0.334l0.126,-0.042l0.25,-0.292l0,-0.042l0.71,0.084l0.584,-0l0.501,-0.042l0.167,0c0.167,0 0.292,-0.083 0.417,-0.125l0.084,-0c0.25,-0 0.459,-0.084 0.667,-0.209l0.084,-0.083l0.459,-0c0.622,0.021 1.243,-0.064 1.837,-0.251l0.25,0.167c0.157,0.082 0.344,0.082 0.501,0l0.292,0.585c0.184,0.32 0.442,0.591 0.751,0.793c0.126,0.208 0.292,0.417 0.459,0.542c0.251,0.209 0.501,0.251 0.668,0.251l0.042,0.041l0.25,0.167c0.084,0.084 0.251,0.126 0.501,0.126l1.085,-0l0.293,-0.167l0.083,-0l0.543,-0.042c0.208,-0 0.417,-0.084 0.626,-0.167c0.25,-0.084 0.417,-0.209 0.626,-0.376c0.209,-0.167 0.334,-0.417 0.417,-0.709c0,-0.167 0,-0.376 -0.167,-0.501l-0.167,-0.209l-0.292,-0.459c-0.125,-0.125 -0.208,-0.167 -0.334,-0.167l-0.041,-0.083l-0.334,-0.459c-0.167,-0.167 -0.418,-0.251 -0.585,-0.167l0,-0.084c0.126,-0.167 0.251,-0.417 0.251,-0.709c-0,-0.126 -0.042,-0.334 -0.167,-0.501c-0.042,-0.126 -0.167,-0.251 -0.292,-0.292l-0.251,-0.042c-0.017,-0.146 -0.059,-0.287 -0.125,-0.418c-0.084,-0.083 -0.167,-0.208 -0.334,-0.25c-0.136,-0.037 -0.277,-0.051 -0.417,-0.042l-0.167,0c-0.251,-0.008 -0.501,-0.008 -0.752,0c-0.164,-0.935 -0.401,-1.856 -0.709,-2.755l-0.167,-0.333l-0,-0.334c0.031,-0.25 0.031,-0.502 -0,-0.752l-0.292,-0.834c-0.08,-0.173 -0.137,-0.355 -0.167,-0.543c-0.042,-0.417 -0.167,-0.876 -0.292,-1.294l-0.334,-1.21l-0.125,-0.668c-0,-0.376 -0.167,-0.71 -0.418,-0.96c-0.083,-0.125 -0.209,-0.167 -0.334,-0.167c-0.083,-0.209 -0.208,-0.417 -0.375,-0.543c-0.084,-0.125 -0.209,-0.167 -0.334,-0.208c-0.334,-0 -0.543,-0 -0.752,-0.084c-0.167,0 -0.292,-0.125 -0.5,-0.292c-0.167,-0.125 -0.376,-0.167 -0.543,-0.083c-0.292,0.125 -0.501,0.333 -0.626,0.584l-0.084,0.083c-0.125,0.042 -0.208,0.126 -0.292,0.251l-0.042,0.292l0,0.25l-0.25,0.585c-0.213,0.503 -0.394,1.019 -0.543,1.544c-0.067,0.158 -0.167,0.3 -0.292,0.417l-0.167,0.334l-0.041,0.293c-0.167,0.083 -0.293,0.25 -0.334,0.417c-0,0.334 -0.126,0.626 -0.209,0.835l-0.334,0.793c-0.301,0.531 -0.607,1.06 -0.918,1.586c-0.167,0.083 -0.292,0.25 -0.292,0.459l-0,0.083c-0.167,0.042 -0.293,0.209 -0.334,0.376c-0.1,0.439 -0.316,0.842 -0.626,1.169c-0.084,0.083 -0.126,0.208 -0.126,0.334l0,0.208c-0.25,0.209 -0.459,0.459 -0.667,0.752c-0.434,0.582 -0.865,1.167 -1.294,1.753l-0.125,0.083l0.166,-0.25c0.084,-0.293 0.167,-0.585 0.334,-0.835c0.249,-0.403 0.472,-0.821 0.668,-1.252l0,-0.585c0.1,-0.42 0.211,-0.838 0.334,-1.252l0.084,-0.793c-0,-0.459 -0.042,-0.96 -0.126,-1.419l-0.167,-1.043l0.084,-0.167l0.125,-0.167c0.14,-0.161 0.173,-0.391 0.084,-0.585c0.083,-0.125 0.167,-0.292 0.167,-0.5l0.041,-0.042c0.084,-0.125 0.126,-0.292 0.126,-0.418l-0.126,-0.417l0,-0.417c0,-0.126 -0.041,-0.251 -0.125,-0.334c-0.125,-0.126 -0.209,-0.292 -0.25,-0.418l-0.209,-0.626l-0.292,-0.668c-0.096,-0.247 -0.237,-0.473 -0.418,-0.667c-0.083,-0.084 -0.167,-0.126 -0.292,-0.126l-0.292,-0.459c-0.083,-0.125 -0.167,-0.208 -0.292,-0.25l-0.376,-0l-0.167,-0.167l-0.25,-0.209c-0.292,-0.167 -0.751,-0.167 -1.044,0c-0.078,0.044 -0.148,0.101 -0.208,0.167l-0.084,0.125l-0.167,0.167c-0.083,0.084 -0.125,0.167 -0.125,0.292l0,0.293l0.125,0.501l0,0.5l-0.041,0.167c-0.025,0.192 0.054,0.384 0.208,0.501l0,0.042c0.125,0.25 0.125,0.501 0.167,0.793c0.02,0.099 0.048,0.197 0.084,0.292l-0,0.334c0.022,0.586 0.064,1.17 0.125,1.753c0.101,1.012 0.143,2.03 0.125,3.047l0,0.083c-0.083,0.132 -0.153,0.272 -0.209,0.418l-0.083,0.334l-0.084,0.417l-0.208,0.417l-0.251,0.209c-0.083,0 -0.167,0.125 -0.208,0.209l-0.042,0.167c-0.07,0.241 -0.183,0.467 -0.334,0.668c-0.057,0.081 -0.127,0.152 -0.209,0.208c-0.104,0.051 -0.218,0.079 -0.334,0.084l-0.167,-1.211c-0.071,-1.195 -0.071,-2.394 0,-3.589l0,-0.251l-0.292,-0.333l0,-0.167c0,-0.209 -0.125,-0.418 -0.375,-0.501l-0.167,-0.084l-0.126,-0.125c0,-0.167 -0.125,-0.334 -0.25,-0.417l-0.209,-0.126c-0.083,0 -0.125,-0.041 -0.167,-0.125l-0.292,-0.167l-0.501,-0.334c-0.172,-0.067 -0.357,-0.096 -0.542,-0.083l-0.292,0.042l-0.084,0.083l0.084,-0.042l-0.042,0l-0.042,0.042c-0.128,0.093 -0.241,0.206 -0.334,0.334l-0.292,0.376c-0.082,0.157 -0.082,0.344 0,0.501l0,0.083c-0.039,0.122 -0.067,0.248 -0.083,0.376l-0,0.584l-0.084,0.501c0,0.083 -0.083,0.125 -0.125,0.209c-0.084,0.121 -0.114,0.272 -0.084,0.417l0.042,0.209l0,0.25l-0.209,0.543c-0.02,0.096 -0.034,0.194 -0.041,0.292l-0.084,0.083l-0.042,0.126l-0.083,0.125l0,0.083l-0.083,0.042l-0.084,0.167l0,0.042l-0.167,0.208c-0.055,0.076 -0.098,0.161 -0.125,0.251l-0,0.041l-0.209,0.209l-0.626,0.71c-0.125,0.125 -0.292,0.125 -0.417,0.25l-0.125,0.209l-0,0.083l-0.084,0.084l-0.209,0.167c-0.122,0.003 -0.24,0.047 -0.334,0.125c-0.083,-0 -0.125,0.083 -0.125,0.125l-0.125,0.167l-0.417,0.209l-0.418,0.25c-0.108,0.07 -0.206,0.155 -0.292,0.251l0,0.041c-0.111,0.014 -0.223,0.014 -0.334,0l0.042,-0.667c-0,-0.209 0.042,-0.418 0.125,-0.543c0.042,-0.125 0.084,-0.25 0.042,-0.334c-0.023,-0.099 -0.05,-0.196 -0.084,-0.292l0.084,-0.292l0.209,-0.626l0.25,-1.378c0.083,-0.417 0.209,-0.793 0.417,-1.127l0.084,-0.292l-0,-0.501l0.334,-1.085c0.305,-1.27 0.445,-2.575 0.417,-3.881l0,-0.46c0,-0.167 -0.083,-0.334 -0.209,-0.417l-0.5,-0.376c-0,-0.125 -0.084,-0.208 -0.167,-0.292l-0.251,-0.209c-0.393,-0.3 -0.812,-0.566 -1.252,-0.793l-0.25,-0.125l-0.376,0c-0.042,0 -0.125,0 -0.167,0.084c-0.196,0.099 -0.367,0.242 -0.501,0.417l-0.167,0.292l-0.083,0.167l-0,2.004l-0.167,1.043l-0,1.085l-0.042,0.209c-0.238,0.791 -0.406,1.601 -0.501,2.421c0,0.209 0,0.459 -0.083,0.668l-0,0.125l-0.042,-0l-0.042,0.083c-0.119,0.114 -0.206,0.259 -0.25,0.418l-0.042,0.417l0,0.084l-0.042,0.25l-0.083,0.543l-0.084,0.375c0,0.251 -0.083,0.501 -0.167,0.752c0,0.25 -0.083,0.417 -0.125,0.667l-0.083,0.835l0.041,0Zm34.769,3.381l0.417,0.584c0.125,0.126 0.334,0.209 0.542,0.167l0.042,0c0.167,0.167 0.334,0.292 0.585,0.334c0.167,0.042 0.333,0 0.5,-0.083l0.668,-0c0.251,-0 0.459,-0 0.626,-0.126c0.084,0 0.167,-0.083 0.209,-0.125l0.292,-0.334l0.418,-0.459c0.125,-0.167 0.125,-0.417 -0,-0.584c-0.18,-0.285 -0.347,-0.578 -0.501,-0.877l-0.292,-0.834c-0,-0.251 -0.209,-0.418 -0.418,-0.418l0,-0.042l-0.125,-0.041l-0.084,-0l-0.083,-0.251c-0,-0.167 -0.083,-0.25 -0.209,-0.334c-0.083,-0.417 -0.083,-0.834 -0.083,-1.252c-0,-0.835 0.125,-1.753 0.209,-2.671c0.125,-0.96 0.25,-1.878 0.292,-2.838c0.041,-1.002 -0.084,-1.962 -0.376,-2.838c0,-0.084 -0.083,-0.167 -0.167,-0.251l-0.501,-0.417l0,-0.042l-0.167,-0.25l-0.584,-0.418c-0.209,-0.167 -0.501,-0.25 -0.793,-0.292c-0.209,-0.042 -0.417,-0.042 -0.668,0l-0.459,0.167c-0.25,0.083 -0.417,0.334 -0.376,0.584c-0.167,0.084 -0.334,0.251 -0.417,0.501c-0.084,0.209 -0,0.418 0.083,0.543l0,0.167l-0.167,0.459l0,0.25c0.065,0.474 0.135,0.947 0.209,1.419c0.006,0.447 -0.022,0.894 -0.083,1.336c-0.113,0.994 -0.266,1.982 -0.459,2.963c-0.029,0.35 -0.071,0.698 -0.126,1.044l0,0.083l0.084,0.501c0.035,0.138 0.063,0.277 0.083,0.418c0.127,0.717 0.21,1.442 0.251,2.17c0.454,0.644 0.913,1.284 1.377,1.92c0.042,0.083 0.125,0.167 0.251,0.167Zm7.137,-0l0.417,0.584c0.167,0.126 0.376,0.209 0.543,0.167l0.083,0c0.125,0.167 0.334,0.292 0.585,0.334c0.167,0.042 0.333,0 0.459,-0.083l0.709,-0c0.251,-0 0.418,-0 0.626,-0.126c0.084,0 0.126,-0.083 0.209,-0.125l0.292,-0.334l0.418,-0.459c0.083,-0.167 0.083,-0.417 -0,-0.584c-0.18,-0.285 -0.347,-0.578 -0.501,-0.877c-0.167,-0.292 -0.251,-0.584 -0.292,-0.834c-0.042,-0.251 -0.209,-0.418 -0.418,-0.418l0,-0.042l-0.167,-0.041l-0.083,-0l-0.042,-0.251c-0,-0.167 -0.125,-0.25 -0.25,-0.334l-0.084,-1.252l0.251,-2.671c0.125,-0.96 0.208,-1.878 0.25,-2.838c0.083,-1.002 -0.042,-1.962 -0.376,-2.838l-0.125,-0.251l-0.543,-0.417l0,-0.042c0,-0.083 -0.083,-0.167 -0.166,-0.25l-0.543,-0.418c-0.251,-0.167 -0.501,-0.25 -0.835,-0.292c-0.167,-0.042 -0.417,-0.042 -0.668,0l-0.417,0.167c-0.292,0.083 -0.417,0.334 -0.417,0.584c-0.167,0.084 -0.293,0.251 -0.418,0.501c-0.042,0.209 0,0.418 0.125,0.543l-0.041,0.167l-0.167,0.459l-0,0.25c0.065,0.476 0.148,0.95 0.25,1.419c-0.008,0.448 -0.049,0.895 -0.125,1.336c-0.1,0.993 -0.239,1.982 -0.417,2.963c-0.028,0.378 -0.07,0.753 -0.126,1.127c0,0.167 0,0.293 0.084,0.501l0.042,0.418c0.126,0.717 0.21,1.442 0.25,2.17c0.454,0.644 0.913,1.284 1.377,1.92c0.084,0.083 0.167,0.167 0.251,0.167Zm-25.168,-2.087l-0.418,0.334c0.127,-0.126 0.267,-0.238 0.418,-0.334Zm8.013,-6.887l0,0.084l0.042,0.375l0.417,1.252c0.236,0.924 0.431,1.857 0.585,2.797l-0.209,-0c-0.26,0.066 -0.525,0.108 -0.793,0.125c-0.209,0 -0.417,0 -0.626,-0.083c-0.167,-0.084 -0.376,-0.042 -0.501,0.041l-0.25,0.084l-0.418,0.042l-0.334,-0.126l-0.208,0l0.417,-1.085c0.381,-0.757 0.799,-1.495 1.252,-2.212c0.209,-0.417 0.376,-0.793 0.459,-1.21l0.167,-0.084Zm-32.138,0l0.083,0.084l0,0.375l0.418,1.252c0.236,0.923 0.431,1.857 0.584,2.797l-0.25,-0c-0.247,0.064 -0.498,0.106 -0.752,0.125c-0.208,0 -0.417,0 -0.668,-0.083c-0.167,-0.084 -0.333,-0.042 -0.459,0.041l-0.25,0.084l-0.418,0.042l-0.333,-0.126l-0.209,0l0.417,-1.085c0.382,-0.757 0.8,-1.495 1.252,-2.212c0.209,-0.417 0.334,-0.793 0.418,-1.21l0.167,-0.084Zm8.306,1.211l-0,-0.042l-0,0.042Z" style="fill:#c67168;fill-rule:nonzero;"/><path d="M15.861,12.021l-0,0.25c-0.167,0.209 -0.293,0.417 -0.46,0.501c-0.166,0.125 -0.417,0.167 -0.667,0.167l-0.376,-0l-0.292,-0.209c-0.471,0.066 -0.944,0.108 -1.419,0.125l-0.71,0.167c-0.209,0.042 -0.417,0.167 -0.542,0.293l-0.167,2.212l-0,2.212l0.167,0.751l0.041,0.751l0.209,0.418c0.087,0.263 0.17,0.527 0.25,0.793l0.251,0.334l0.209,-0l0.25,0.083l-0,0.084c-0,0.167 -0,0.292 0.125,0.375l0.334,0.251l0.042,0.334c-0,0.167 -0,0.334 -0.125,0.501c-0.084,0.166 -0.209,0.292 -0.418,0.333l-0.292,0c-0.178,-0.044 -0.364,-0.044 -0.543,0c-0.05,-0.032 -0.092,-0.075 -0.125,-0.125l-0.25,-0.167l-0.209,0c-0.055,-0.154 -0.14,-0.296 -0.25,-0.417c-0.126,-0.167 -0.251,-0.209 -0.418,-0.209l0,-0.125c0,-0.167 0,-0.292 -0.083,-0.417l-0.251,-0.334l-0.167,-0.835c0,-0.251 -0.125,-0.501 -0.25,-0.751c-0.124,-0.58 -0.222,-1.165 -0.292,-1.753l0.083,-0.585c0.005,-0.279 -0.009,-0.558 -0.041,-0.835l-0,-0.459l0.167,-0.417l-0.126,-0.334l0,-0.918l0.084,-0.501l-0.125,-0l-0.251,0.042l-0.25,0.125l-0.292,-0l-0.501,0.042c-0.125,0.041 -0.292,0.125 -0.418,0.25l-1.085,0.125c-0.705,0.104 -1.403,0.258 -2.087,0.459l-1.085,0.293c-0.172,0.851 -0.256,1.718 -0.25,2.587l-0,0.793l0.125,0.209l0.083,0.251c0,0.083 0,0.125 -0.083,0.166c0.083,0.126 0.208,0.251 0.375,0.334l0.418,-0.083c0.167,-0 0.375,0.042 0.542,0.167l0.543,0.167l-0.209,0.417c-0.09,0.153 -0.147,0.324 -0.167,0.501l-0.125,0l-0.167,0.084l0,0.208c-0.131,0.074 -0.271,0.131 -0.417,0.167c-0.318,0.05 -0.64,0.064 -0.96,0.042l-0.418,-0l-0.083,-0.125l-0.083,-0.084l-0.167,-0.042c-0.047,-0.02 -0.089,-0.048 -0.126,-0.083l-0.167,-0.292c-0.118,-0.262 -0.229,-0.526 -0.334,-0.793c0,-0.125 -0.083,-0.251 -0.166,-0.334c-0.147,-1.333 -0.133,-2.678 0.041,-4.007c-0.087,-0.089 -0.209,-0.135 -0.334,-0.125l-0.334,-0.042l-0.333,-0.543l-0.126,-0.626l0.042,-0.334l0.334,-0.083c0.125,-0.042 0.167,-0.125 0.167,-0.25l0.292,0.041l0.334,-0.041l0.292,-0.084l0.125,-0.501l0,-0.542c0.167,-0.209 0.251,-0.418 0.293,-0.71l0.125,-0.793l-0,-0.459l0.125,-0.417c0.082,-0.318 0.151,-0.638 0.209,-0.96l-0,-0.626l-0.042,-0.126c0.075,-0.728 0.186,-1.453 0.334,-2.17c-0.089,-0.269 -0.131,-0.552 -0.125,-0.835c-0,-0.417 0.083,-0.835 0.208,-1.21l-0.125,-0.501l0.042,-0.418l-0,-0.292l0.292,-0.25l0.25,-0.251c0.293,0 0.585,0.126 0.835,0.334c0.167,0.251 0.292,0.501 0.292,0.835c0,0.251 -0.083,0.459 -0.208,0.71l0.083,0.709l-0.083,1.169c-0.084,0.417 -0.084,0.835 -0.084,1.252l-0.083,0.543c0.008,0.338 -0.034,0.675 -0.125,1.001l-0.084,0.418c-0.052,0.486 -0.094,0.973 -0.125,1.461l-0.084,0.25l-0.083,0.167c-0.042,0.25 -0.084,0.459 -0.042,0.71l0,0.709l-0.083,0.209l-0,0.417c0.96,-0.083 1.961,-0.25 2.921,-0.417c0.96,-0.251 1.92,-0.418 2.922,-0.543l0.084,-0.417l-0,-0.292l0.208,-1.086c0.206,-1.061 0.345,-2.135 0.418,-3.213l0.083,-0.543c0.05,-0.314 0.134,-0.622 0.25,-0.918l-0.083,-0.084c-0.083,0 -0.125,-0.041 -0.125,-0.083l0.042,-0.042l0.041,0l0.084,-0.292c0.039,-0.221 0.067,-0.444 0.083,-0.668l0.125,-0.25c0,-0.084 0,-0.167 -0.083,-0.209l-0,-0.251c0.023,-0.166 0.023,-0.334 -0,-0.5c-0,-0.167 0.083,-0.251 0.209,-0.334c-0.083,-0.413 -0.125,-0.832 -0.126,-1.252c0,-0.251 0,-0.46 0.167,-0.668c0.126,-0.167 0.376,-0.292 0.668,-0.292c0.167,-0 0.334,0.041 0.459,0.125l0.376,0.25c0.079,0.371 0.093,0.752 0.042,1.127c-0.027,0.25 -0.027,0.502 -0,0.751l0.083,0.334c-0.125,0.126 -0.167,0.293 -0.208,0.501l-0.084,0.543c-0.047,0.374 -0.075,0.75 -0.083,1.127c-0.048,0.707 -0.174,1.407 -0.376,2.087l0.042,0.334c-0,0.167 -0,0.375 -0.084,0.542l0,0.585c-0.125,0.166 -0.167,0.417 -0.167,0.584l-0.083,0.584l-0,0.626c-0,0.209 -0.042,0.418 -0.125,0.585c-0,0.041 0.041,0.083 0.125,0.083c0.041,0 0.083,0.042 0.041,0.125c0.272,-0.074 0.554,-0.102 0.835,-0.083c0.571,-0.002 1.141,-0.016 1.712,-0.042l0.5,-0.167l0.501,-0.083c0.209,-0 0.418,0.083 0.501,0.25c0.049,0.234 0.077,0.471 0.084,0.71Zm14.399,6.052c0,0.167 -0.125,0.292 -0.25,0.417c-0.125,0.125 -0.251,0.209 -0.417,0.251c-0.175,0.065 -0.357,0.107 -0.543,0.125l-0.459,0.041l-0.376,0c-0.083,0 -0.083,0 -0.083,0.084c-0,0.083 -0.042,0.125 -0.126,0.125c-0.132,-0.055 -0.274,-0.083 -0.417,-0.083l-0.209,-0l-0.25,0.041l-0.25,0l-0.084,-0.125l-0.125,-0.083l-0.125,-0.125l-0.251,-0c-0.042,-0 -0.125,-0 -0.25,-0.126l-0.418,-0.459c-0.237,-0.402 -0.446,-0.821 -0.626,-1.252c-0.113,-0.199 -0.254,-0.382 -0.417,-0.543l-0.167,0c-0.25,0 -0.417,0.126 -0.501,0.293c-0.059,-0.037 -0.115,-0.079 -0.167,-0.126l-0.209,-0.167c-0.627,0.175 -1.27,0.287 -1.92,0.334l-0.542,0c-0.125,0 -0.251,0.084 -0.376,0.167l-0.334,0.084c-0.083,-0 -0.167,-0 -0.292,-0.084c-0.042,0 -0.083,0.042 -0.083,0.126c-0,0.041 -0.042,0.083 -0.126,0.083l-0.709,-0l-0.543,0.042c-0.25,-0 -0.501,-0 -0.751,-0.084c-0.077,0.04 -0.165,0.054 -0.25,0.042l-0.084,0.125l-0.083,0.167l-0.126,0.125l-0.167,0c0,0.167 -0.083,0.293 -0.208,0.418c-0.084,0.083 -0.167,0.208 -0.167,0.417c-0.125,0.042 -0.251,0.125 -0.334,0.251c-0.207,0.24 -0.402,0.491 -0.584,0.751l-0.334,0.292c-0.084,0.042 -0.084,0.167 -0.084,0.376l-0.501,0.292l-0.584,0.125c-0.417,0 -0.668,-0.209 -0.835,-0.584c0.019,-0.285 0.075,-0.565 0.167,-0.835c0,-0.167 0.084,-0.292 0.167,-0.417c0.084,-0.084 0.167,-0.167 0.334,-0.209c0,-0.125 -0.042,-0.209 -0.125,-0.251c-0.084,-0.041 -0.125,-0.125 -0.084,-0.25c0.334,-0.167 0.668,-0.417 0.919,-0.668c0.456,-0.6 0.915,-1.198 1.377,-1.795c0.209,-0.333 0.417,-0.584 0.71,-0.834l-0,-0.418c0.417,-0.417 0.667,-0.876 0.793,-1.419c0.125,0 0.208,-0.083 0.25,-0.208c0.083,-0.084 0.083,-0.209 0.083,-0.376c0.084,-0 0.126,-0 0.126,-0.084c-0,-0.041 0.083,-0.041 0.167,0c0.417,-0.828 0.82,-1.663 1.21,-2.504c0.125,-0.292 0.209,-0.626 0.25,-0.96c0.167,0 0.293,-0.125 0.293,-0.292l0.083,-0.417c0.167,-0.209 0.334,-0.418 0.417,-0.668l0.293,-0.752l0.25,-0.834c0.084,-0.251 0.251,-0.501 0.417,-0.71c0,-0.083 0,-0.125 -0.083,-0.167c-0.042,0 -0.083,-0.042 -0.083,-0.125c0.208,-0.125 0.292,-0.209 0.417,-0.376c0.042,-0.125 0.167,-0.25 0.334,-0.292c0.25,0.209 0.501,0.334 0.709,0.418l0.835,0.083c0.167,0.167 0.251,0.417 0.251,0.626c0.123,0.66 0.277,1.315 0.459,1.962c0.167,0.417 0.25,0.835 0.334,1.252c-0,0.25 0.083,0.501 0.208,0.709l0.209,0.668l-0,0.626c-0,0.251 -0,0.418 0.083,0.585l0.126,0.334l0.167,0.417c0.182,0.573 0.321,1.159 0.417,1.753c0.083,0.459 0.209,0.835 0.417,1.252c0.042,0.125 0.126,0.209 0.293,0.251l0.417,0.125l1.377,-0l0.084,0.292c-0,0.167 -0.042,0.292 -0.167,0.417c-0.094,0.07 -0.155,0.176 -0.167,0.293l0.083,0.208l-0.208,0c-0.334,0 -0.626,0 -0.877,0.125c0.084,0.251 0.209,0.418 0.418,0.585l0.542,0.417c0.125,-0.125 0.251,-0.167 0.418,-0.167c0.166,0 0.292,0 0.417,0.125l0.417,0.084l0.292,-0.042c0.126,0.125 0.209,0.209 0.251,0.334l0.25,0.376Zm32.139,-0c-0.042,0.167 -0.125,0.292 -0.251,0.417c-0.125,0.125 -0.292,0.209 -0.459,0.251c-0.161,0.062 -0.329,0.104 -0.501,0.125l-0.5,0.041l-0.376,0c-0.042,0 -0.084,0 -0.084,0.084c0,0.083 0,0.125 -0.083,0.125c-0.132,-0.055 -0.274,-0.083 -0.417,-0.083l-0.251,-0l-0.25,0.041l-0.209,0l-0.125,-0.125l-0.125,-0.083l-0.126,-0.125l-0.208,-0c-0.084,-0 -0.167,-0 -0.292,-0.126l-0.418,-0.459c-0.237,-0.402 -0.446,-0.821 -0.626,-1.252c-0.114,-0.199 -0.254,-0.382 -0.417,-0.543l-0.167,0c-0.209,0 -0.418,0.126 -0.459,0.293c-0.074,-0.035 -0.144,-0.077 -0.209,-0.126l-0.209,-0.167c-0.627,0.175 -1.27,0.287 -1.92,0.334l-0.542,0c-0.126,0 -0.251,0.084 -0.334,0.167l-0.376,0.084c-0.083,-0 -0.167,-0 -0.25,-0.084c-0.084,0 -0.126,0.042 -0.126,0.126c0,0.041 0,0.083 -0.125,0.083l-0.709,-0l-0.543,0.042c-0.25,-0 -0.501,-0 -0.751,-0.084c-0.065,0.032 -0.137,0.046 -0.209,0.042c-0.083,-0 -0.125,0.083 -0.125,0.125l-0.084,0.167l-0.125,0.125l-0.167,0c0,0.167 -0.083,0.293 -0.208,0.418c-0.084,0.083 -0.167,0.208 -0.167,0.417c-0.126,0.042 -0.251,0.125 -0.334,0.251c-0.193,0.241 -0.374,0.492 -0.543,0.751l-0.376,0.292c-0.083,0.042 -0.083,0.167 -0.041,0.376l-0.543,0.292l-0.584,0.125c-0.418,0 -0.626,-0.209 -0.793,-0.584c0.005,-0.283 0.047,-0.563 0.125,-0.835c-0,-0.167 0.083,-0.292 0.167,-0.417l0.334,-0.209c-0,-0.125 -0,-0.209 -0.125,-0.251c-0.084,-0.041 -0.084,-0.125 -0.084,-0.25c0.334,-0.167 0.668,-0.417 0.918,-0.668c0.458,-0.6 0.917,-1.198 1.378,-1.795c0.208,-0.333 0.459,-0.584 0.751,-0.834l0,-0.418c0.376,-0.417 0.626,-0.876 0.751,-1.419c0.126,0 0.251,-0.083 0.293,-0.208l0.041,-0.376c0.084,-0 0.125,-0 0.125,-0.084c0,-0.041 0.084,-0.041 0.167,0c0.419,-0.827 0.823,-1.662 1.211,-2.504c0.125,-0.292 0.209,-0.626 0.25,-0.96c0.167,0 0.292,-0.125 0.292,-0.292l0.084,-0.417c0.209,-0.209 0.334,-0.418 0.417,-0.668l0.292,-0.752l0.251,-0.834l0.417,-0.71c0,-0.083 0,-0.125 -0.083,-0.167l-0.042,-0.125c0.167,-0.125 0.292,-0.209 0.334,-0.376c0.083,-0.125 0.209,-0.25 0.376,-0.292c0.25,0.209 0.5,0.334 0.709,0.418l0.835,0.083c0.167,0.167 0.25,0.417 0.292,0.626c0.123,0.661 0.277,1.315 0.459,1.962l0.292,1.252c0,0.25 0.084,0.501 0.209,0.709l0.209,0.668l-0,0.626c-0,0.251 -0,0.418 0.083,0.585l0.125,0.334l0.167,0.417c0.182,0.573 0.322,1.159 0.418,1.753c0.083,0.459 0.208,0.835 0.417,1.252c0.042,0.125 0.167,0.209 0.292,0.251l0.418,0.125l1.377,-0c0.084,0.125 0.084,0.25 0.084,0.292c-0,0.167 -0.042,0.292 -0.167,0.417c-0.079,0.077 -0.124,0.182 -0.126,0.293c0,0.041 0,0.125 0.084,0.208l-0.251,0c-0.292,0 -0.584,0 -0.876,0.125c0.083,0.251 0.25,0.418 0.417,0.585l0.543,0.417c0.125,-0.125 0.292,-0.167 0.417,-0.167c0.167,0 0.292,0 0.418,0.125l0.459,0.084l0.25,-0.042c0.125,0.125 0.209,0.209 0.251,0.334l0.25,0.376l0.042,-0Zm5.217,-0.126l-0.292,0.418l-0.334,0.334l-0.417,0.083l-0.418,0c-0.125,-0.009 -0.25,-0.009 -0.375,0c-0.091,0 -0.179,0.03 -0.251,0.084c-0.167,-0 -0.25,-0.084 -0.334,-0.209c-0.041,-0.083 -0.167,-0.125 -0.375,-0.167c-0.069,-0.018 -0.141,-0.018 -0.209,0l-0.71,-0.918l-0.584,-0.96c-0.039,-0.953 -0.151,-1.902 -0.334,-2.838l0.042,-0.543l0.083,-0.417c0.099,-1.007 0.238,-2.01 0.418,-3.005c0.125,-0.418 0.125,-0.919 0.125,-1.42c0,-0.5 -0.083,-0.96 -0.209,-1.377l0,-0.125c0,-0.167 0,-0.292 0.084,-0.376l0.083,-0.334c0.042,-0.167 0,-0.334 -0.125,-0.417c0.042,-0.125 0.125,-0.209 0.25,-0.251c0.126,-0.041 0.209,-0.166 0.209,-0.292l0,-0.208l0.418,-0.167c0.136,-0.036 0.28,-0.036 0.417,-0c0.25,-0 0.459,0.083 0.626,0.208l0.501,0.418c0.292,0.834 0.417,1.669 0.334,2.629c-0.05,0.935 -0.133,1.868 -0.251,2.797l-0.25,2.754c-0,0.877 0.125,1.712 0.417,2.505l0.084,-0c0.083,-0 0.125,-0 0.208,-0.084c0,-0.083 0.126,-0.125 0.209,-0.083l0.125,0.042c0.042,0.333 0.167,0.667 0.334,1.001l0.501,0.918Zm7.179,0l-0.334,0.418l-0.334,0.334l-0.417,0.083l-0.417,0c-0.112,-0.007 -0.223,-0.007 -0.334,0c-0.105,-0.01 -0.209,0.02 -0.293,0.084c-0.125,-0 -0.25,-0.084 -0.292,-0.209c-0.083,-0.083 -0.208,-0.125 -0.417,-0.167c-0.055,-0.011 -0.112,-0.011 -0.167,0l-0.71,-0.918l-0.626,-0.96c-0.026,-0.952 -0.123,-1.901 -0.292,-2.838l0,-0.543l0.084,-0.417c0.112,-1.008 0.265,-2.01 0.459,-3.005c0.083,-0.418 0.125,-0.919 0.125,-1.42c0,-0.5 -0.083,-0.96 -0.25,-1.377l-0,-0.125l0.083,-0.376l0.125,-0.334c0,-0.167 0,-0.334 -0.167,-0.417c0.084,-0.125 0.167,-0.209 0.292,-0.251c0.126,-0.041 0.167,-0.166 0.209,-0.292l0,-0.208l0.418,-0.167c0.136,-0.036 0.28,-0.036 0.417,-0c0.25,-0 0.417,0.083 0.626,0.208l0.501,0.418c0.25,0.834 0.376,1.669 0.334,2.629c-0.064,0.936 -0.161,1.868 -0.292,2.797l-0.209,2.754c-0.042,0.877 0.083,1.712 0.417,2.505l0.042,-0c0.084,-0 0.167,-0 0.209,-0.084c0.041,-0.083 0.125,-0.125 0.208,-0.083l0.126,0.042l0.334,1.001l0.542,0.918Zm-27.631,-10.977l-0.167,0l0,0.292c0,0.167 0,0.293 -0.125,0.418c-0.083,0.083 -0.167,0.167 -0.167,0.25l0.084,0.126l0.125,0.041l-0.209,0.251c0,0.083 -0.083,0.167 -0.167,0.25c0,0.417 0.084,0.877 0.167,1.336c0.084,0.417 0.125,0.834 0.125,1.294l-0.041,0.667c-0.085,0.435 -0.182,0.866 -0.292,1.294c-0.084,0.209 -0.084,0.418 -0.084,0.668l-0.543,0.96c-0.208,0.292 -0.333,0.626 -0.417,1.002c-0.302,0.173 -0.571,0.4 -0.793,0.668l-0.626,0.834c-0.459,0.126 -0.877,0.334 -1.252,0.585l-0.334,-0c-0.832,0.03 -1.633,-0.324 -2.17,-0.96c-0.293,-0.292 -0.501,-0.626 -0.668,-1.002l-0.501,-1.169c-0.334,0.209 -0.584,0.46 -0.835,0.752c-0.489,0.526 -0.99,1.041 -1.503,1.544l-0.166,0.083c-0.418,0.209 -0.668,0.501 -0.877,0.835c-0.514,0.194 -1.004,0.446 -1.461,0.752c-0.474,0.014 -0.947,0.042 -1.419,0.083l-0.793,-0.042l-0.334,-0.208l-0.25,-0.251l-0.501,-0.334l-0.167,-0.501l-0.251,-0.459l0,-0.668l-0.083,-0.292l-0.209,-0.167c0,-0.459 0.084,-0.96 0.167,-1.419c0.239,-0.889 0.407,-1.797 0.501,-2.713c0,-0.083 0.042,-0.125 0.125,-0.208c0.084,-0 0.126,-0.126 0.126,-0.209l0.125,-0.626c0.035,-0.607 0.133,-1.208 0.292,-1.795l0.292,-1.169l0,-0.25c0,-0.501 0,-1.002 0.084,-1.461c0.099,-0.733 0.113,-1.476 0.041,-2.212l0.251,-0.334l0.334,-0.292c0.55,0.299 1.08,0.633 1.586,1.002l-0,0.459c-0.035,1.259 -0.16,2.515 -0.376,3.756c-0.083,0.418 -0.209,0.793 -0.376,1.127l0,0.626c-0.208,0.418 -0.417,0.835 -0.459,1.294c-0.136,0.871 -0.317,1.735 -0.542,2.588l0.083,0.209c-0.125,0.208 -0.167,0.459 -0.167,0.751l-0.125,0.793l0.584,1.085l0.585,0c0.249,0.037 0.502,0.037 0.751,0c0.042,-0.125 0.167,-0.25 0.292,-0.334l0.835,-0.417l0.25,-0.334l0.293,-0l0.125,-0.167c0.146,-0.132 0.285,-0.271 0.417,-0.417l0,-0.126c0.154,-0.055 0.296,-0.14 0.417,-0.25c0.231,-0.232 0.44,-0.483 0.627,-0.751l0.417,-0.293l-0.042,-0.083c0,-0.125 0,-0.209 0.084,-0.292c0.083,-0.042 0.083,-0.167 0.083,-0.334l0.167,-0l0.084,-0.167c-0,-0.042 -0,-0.125 0.083,-0.167l0.125,-0.084c0,-0.25 0.042,-0.5 0.167,-0.709c0.119,-0.261 0.162,-0.55 0.125,-0.835l-0.083,-0.209c0.125,-0.125 0.209,-0.25 0.25,-0.417l0.042,-0.543l0,-0.542c0.042,-0.167 0.084,-0.376 0.209,-0.543c-0,-0.125 -0.042,-0.208 -0.167,-0.25l0.25,-0.334l0.292,-0.25c0.167,-0 0.293,0.041 0.418,0.125l0.292,0.208l0.292,0.251l0.376,0.209l-0,0.417c0.125,0.042 0.209,0.167 0.292,0.292c-0.039,1.21 -0.039,2.421 0,3.631c0,0.501 0.084,1.044 0.209,1.545l0.417,0.417c0.167,0.167 0.251,0.334 0.334,0.501l0.25,-0c0.418,-0 0.835,-0.167 1.044,-0.417c0.25,-0.334 0.417,-0.668 0.542,-1.044c0.209,-0.083 0.334,-0.209 0.418,-0.417c0.125,-0.126 0.209,-0.334 0.25,-0.501l0.167,-0.626c0,-0.167 0.125,-0.376 0.209,-0.501l-0,-0.96c-0,-0.751 -0,-1.544 -0.084,-2.296c-0.122,-0.858 -0.205,-1.722 -0.25,-2.588l0,-0.417l-0.125,-0.417c-0.042,-0.125 -0.125,-0.209 -0.209,-0.251l0.042,-0.501l-0.042,-0.5l-0.125,-0.501l0.292,-0.292c0.042,-0.084 0.167,-0.126 0.334,-0.126c0.083,0 0.167,0 0.209,0.084l0.417,0.334c0.104,0.087 0.244,0.118 0.376,0.083l0.083,0c0.125,0.125 0.251,0.292 0.334,0.501l0.251,0.584l0.208,0.668l0.334,0.543l0,0.584c0.084,0.125 0.125,0.209 0.125,0.334l0,-0.042Zm-22.956,7.931c-0.041,-0.209 -0.083,-0.376 -0.167,-0.418l-0.125,-0.417l-0.125,-0.585c-0,-0.208 -0,-0.417 -0.084,-0.584c-0.167,-0.955 -0.376,-1.902 -0.626,-2.838l0,-0.084c-0.125,-0.125 -0.208,-0.292 -0.25,-0.459c-0.122,-0.358 -0.234,-0.72 -0.334,-1.085c-0.083,-0.167 -0.167,-0.292 -0.334,-0.417l-0.083,0.292l0.041,0.25l0,0.251c-0.083,0.042 -0.208,0.167 -0.25,0.292c-0.042,0.125 -0.167,0.25 -0.292,0.334c-0.084,0.417 -0.251,0.835 -0.418,1.169c-0.381,0.757 -0.799,1.495 -1.252,2.212c-0.208,0.417 -0.375,0.751 -0.459,1.168c-0.17,0.092 -0.302,0.239 -0.376,0.418l-0.083,0.584c0.125,0.084 0.25,0.084 0.417,0.125c0.278,0.012 0.557,0.012 0.835,0l0.376,0.209l0.542,-0.083c0.209,-0 0.376,-0.084 0.501,-0.167c0.417,0.14 0.863,0.169 1.294,0.083l0.417,-0.083c0.167,-0 0.251,0.041 0.293,0.125l0.292,0.083l0.125,-0.167c0,-0.083 0.042,-0.125 0.125,-0.167l0,-0.041Zm32.097,-0c0,-0.209 -0.083,-0.376 -0.125,-0.418l-0.167,-0.417l-0.084,-0.585c0,-0.208 -0.083,-0.417 -0.125,-0.584c-0.166,-0.955 -0.375,-1.902 -0.626,-2.838l0,-0.084c-0.125,-0.125 -0.209,-0.292 -0.25,-0.459c-0.122,-0.358 -0.234,-0.72 -0.334,-1.085c-0.084,-0.167 -0.167,-0.292 -0.334,-0.417l-0.042,0.292l0,0.25l0.042,0.251c-0.125,0.042 -0.209,0.167 -0.292,0.292c-0.042,0.125 -0.126,0.25 -0.292,0.334c-0.084,0.417 -0.251,0.835 -0.418,1.169c-0.382,0.757 -0.799,1.495 -1.252,2.212c-0.192,0.373 -0.346,0.764 -0.459,1.168c-0.154,0.099 -0.271,0.246 -0.334,0.418c-0.084,0.208 -0.084,0.417 -0.084,0.584c0.084,0.084 0.251,0.084 0.418,0.125c0.278,0.012 0.557,0.012 0.835,0l0.334,0.209l0.542,-0.083c0.209,-0 0.418,-0.084 0.501,-0.167c0.416,0.14 0.863,0.169 1.294,0.083l0.459,-0.083c0.125,-0 0.209,0.041 0.292,0.125c0.042,0.042 0.125,0.083 0.292,0.083l0.084,-0.167c-0,-0.083 0.042,-0.125 0.125,-0.167l0,-0.041Z" style="fill:#e2c049;fill-rule:nonzero;"/></g><text x="78.465px" y="17.85px" style="font-family:'RedRose-Medium', 'Red Rose';font-weight:500;font-size:18.161px;fill:#292e32;">BUS PLUS</text><path d="M178.853,1.65c-0.321,0.064 -0.642,0.321 -0.642,0.643l-0.065,0.193l-0.192,0.514l-0,0.45c0.128,0.128 0.192,0.321 0.192,0.578l0.065,0.836l0.064,0.9l-0,0.192l-0.707,0l-1.414,0.065l-1.414,0.128c-0.42,0.049 -0.74,0.408 -0.74,0.83c-0,0.137 0.033,0.271 0.097,0.391l0.964,1.35c0.065,0.193 0.193,0.321 0.386,0.45l0.643,0.129l0.514,-0.065c0.257,0.129 0.514,0.129 0.771,0l0.321,-0.064l0.386,-0.064l0.257,-0l0,0.321c-0.05,0.427 -0.05,0.859 0,1.286l0,0.385c-0.071,0.339 -0.071,0.689 0,1.029l0.129,0.449c-0,0.193 0.193,0.386 0.321,0.515l0.9,0.385c0.193,0.065 0.321,0.065 0.514,0c0.248,-0.062 0.472,-0.196 0.643,-0.385l0.064,-0.193c0.382,0.057 0.756,-0.156 0.9,-0.514c0.193,-0.45 0.257,-0.836 0.257,-1.157l0,-0.707c0,-0.257 -0.129,-0.514 -0.321,-0.643l-0,-1.028l0.128,-0c0.322,-0 0.643,-0.065 0.9,-0.193c1.22,0.071 2.443,0.071 3.664,-0c0.321,-0 0.578,-0.129 0.707,-0.322l0.192,-0.192c0.258,-0.129 0.45,-0.386 0.643,-0.643c0.129,-0.257 0.129,-0.579 0,-0.836c-0.193,-0.321 -0.45,-0.578 -0.835,-0.707l-0.515,-0.257c-0.192,-0.128 -0.449,-0.128 -0.642,0l-1.157,0c-0.322,-0.128 -0.643,-0.128 -0.964,-0.128l-0.45,-0l-0.129,0.064l-0.128,-0l-0.193,0.064c-0.428,0.029 -0.858,0.029 -1.286,0l0,-1.349c0.002,-0.221 -0.042,-0.44 -0.128,-0.643l-0,-0.064c-0.049,-0.127 -0.092,-0.256 -0.129,-0.386l0,-0.386c0,-0.193 -0.064,-0.321 -0.193,-0.45c-0.064,-0.064 -0.192,-0.257 -0.449,-0.385c-0.247,-0.149 -0.505,-0.278 -0.772,-0.386l-0.514,-0.128c-0.222,-0.014 -0.443,0.03 -0.643,0.128Zm8.42,5.399c-0.064,0.193 -0.193,0.321 -0.321,0.386l-0.386,0.385c-0.151,-0.011 -0.302,-0.032 -0.45,-0.064l-0.45,-0.064l-0.321,-0l-0.321,0.257l-1.222,-0.129l-1.157,0l-0.771,0.193l-0.771,0.129c-0.045,0.471 -0.087,0.942 -0.129,1.414l0,0.514c0.065,0.193 0.193,0.321 0.322,0.385l-0,0.836c-0,0.193 -0,0.45 -0.193,0.771l-0.129,-0.064c-0.127,-0.068 -0.286,-0.042 -0.385,0.064l-0.193,0.257l-0.193,0.193c0,0.129 -0.128,0.129 -0.193,0.193l-0.642,-0.321c-0.051,-0.278 -0.094,-0.556 -0.129,-0.836l0.064,-0.514c-0.105,-0.288 -0.149,-0.594 -0.128,-0.9l-0,-0.643c0.028,-0.299 0.028,-0.6 -0,-0.899l-0,-0.322l-0.643,0c-0.345,0.024 -0.688,0.067 -1.028,0.129l-0.515,0.193c-0.064,-0.129 -0.192,-0.129 -0.385,-0.129c-0.086,-0.009 -0.172,-0.009 -0.257,-0c-0.086,0.009 -0.172,0.009 -0.257,-0l-0.386,-0l-0.386,-0.771l-0.45,-0.643l1.286,-0.193l1.35,0l1.028,-0.128l0.321,-0l0.129,-0.129l0.193,-0.128l-0,-0.772l-0.193,-0.964c-0.048,-0.562 -0.134,-1.12 -0.257,-1.671l0.064,-0.321l0.129,-0.322l0.514,-0.128l0.193,0.064c0.338,0.137 0.661,0.31 0.964,0.514l-0,0.579c0.066,0.263 0.152,0.521 0.257,0.771l-0,0.9c-0.035,0.32 -0.035,0.643 -0,0.964l-0,0.386l0.193,0.064l0.064,0.128l0.964,-0.128l1.221,-0c0.133,-0.03 0.262,-0.073 0.386,-0.129l0.193,0l0.771,0.065l0.836,0.064l0.771,-0.064l0.578,0.192l0.386,0.386l0.064,-0Z" style="fill:#292e32;fill-rule:nonzero;"/></svg>