<?xml version="1.0" encoding="UTF-8" standalone="no"?><!DOCTYPE svg PUBLIC "-//W3C//DTD SVG 1.1//EN" "http://www.w3.org/Graphics/SVG/1.1/DTD/svg11.dtd"><svg width="100%" height="100%" viewBox="0 0 137 59" version="1.1" xmlns="http://www.w3.org/2000/svg" xmlns:xlink="http://www.w3.org/1999/xlink" xml:space="preserve" xmlns:serif="http://www.serif.com/" style="fill-rule:evenodd;clip-rule:evenodd;stroke-linejoin:round;stroke-miterlimit:2;"><path d="M9.3,21.9l0,-0.9l0.075,-0l0.3,-0.75c0.15,-0.45 0.15,-0.975 0.225,-1.5c0.04,-0.626 0.09,-1.251 0.15,-1.875c0.173,-0.686 0.248,-1.393 0.225,-2.1l0.075,-0.6l0.075,-0.45l0.075,-1.95c0.137,-1.12 0.162,-2.25 0.075,-3.375c0.225,-0.45 0.375,-0.975 0.375,-1.5c-0.011,-0.791 -0.335,-1.546 -0.9,-2.1c-0.222,-0.212 -0.475,-0.389 -0.75,-0.525c-0.136,-0.275 -0.313,-0.528 -0.525,-0.75c-0.555,-0.607 -1.353,-0.938 -2.175,-0.9l-0.525,0.15l-0.675,0.75l-0.15,-0c-0.3,0.225 -0.525,0.6 -0.525,0.975l0,1.275l0.075,0.975c-0.317,1.176 -0.343,2.412 -0.075,3.6l-0.375,1.65c-0.115,0.623 -0.215,1.248 -0.3,1.875c0,0.225 0,0.525 0.15,0.75l-0.225,-0.45c0,0.225 0.075,0.45 0.225,0.6c-0.006,0.553 -0.056,1.105 -0.15,1.65l-0.45,1.5l0,1.05l-0.15,1.275c-0.075,0.375 -0.225,0.675 -0.45,0.975l-0.15,0.6l0,0.975l-0.075,-0c-0.124,0.023 -0.251,0.023 -0.375,-0c-0.494,-0.206 -1.069,0.031 -1.275,0.525l-0.375,0.075c-0.3,0.15 -0.525,0.375 -0.6,0.75l-0.15,0.6c0,0.6 0.075,1.05 0.3,1.5c0.189,0.458 0.441,0.888 0.75,1.275c0.075,0.15 0.3,0.225 0.45,0.3l0.225,-0c0,0.225 0.15,0.375 0.3,0.6c-0.049,1.152 -0.124,2.302 -0.225,3.45l0,1.275c0.082,0.603 0.182,1.203 0.3,1.8c0.075,0.075 0.225,0.225 0.225,0.45c0.25,0.437 0.475,0.888 0.675,1.35c0.075,0.375 0.3,0.675 0.6,0.9c0.075,0.15 0.225,0.225 0.45,0.3c0.056,0.175 0.16,0.331 0.3,0.45c0.207,0.38 0.52,0.693 0.9,0.9c0.161,0.389 0.556,0.632 0.975,0.6l1.65,-0l0.975,-0.15c0.3,-0 0.75,-0.15 1.05,-0.375c0.225,-0.075 0.375,-0.225 0.45,-0.45c0.375,-0.225 0.525,-0.45 0.6,-0.75c0,-0.225 0,-0.375 0.15,-0.525c0.225,-0.3 0.375,-0.675 0.45,-1.05c0.021,-0.08 0.031,-0.162 0.031,-0.244c0,-0.462 -0.328,-0.864 -0.781,-0.956c-0.155,-0.034 -0.306,-0.084 -0.45,-0.15c0.009,-0.053 0.013,-0.106 0.013,-0.16c0,-0.483 -0.359,-0.897 -0.838,-0.965c-0.261,-0.031 -0.515,-0.107 -0.75,-0.225c-0.235,-0.133 -0.488,-0.234 -0.75,-0.3l0,-0.9c-0.007,-1.256 0.093,-2.511 0.3,-3.75c1.093,-0.263 2.17,-0.589 3.225,-0.975c1.422,-0.422 2.877,-0.723 4.35,-0.9l0.3,-0.15l0.075,0.45l-0.15,0.6c-0.085,0.597 -0.085,1.203 0,1.8l0,0.75c0,0.3 0,0.525 -0.15,0.75l0,0.45l0.375,1.65l0.15,1.35c0,0.225 0,0.375 0.15,0.525c0.15,0.3 0.3,0.6 0.3,0.975l0.3,1.5c0,0.3 0.225,0.525 0.45,0.675l0.075,0.15l0.075,0.3l0,0.15c-0.018,0.075 -0.028,0.153 -0.028,0.23c0,0.535 0.441,0.975 0.975,0.975c0.035,0 0.069,-0.001 0.103,-0.005l0.15,0.3c-0,0.004 -0,0.008 -0,0.012c-0,0.534 0.44,0.975 0.975,0.975c0.05,-0 0.1,-0.004 0.15,-0.012l0.225,0.375c0.15,0.45 0.525,0.675 0.9,0.675l0.075,-0c0.225,0.225 0.375,0.375 0.6,0.45c0.225,-0 0.375,0.075 0.6,-0l0.525,-0l0.75,0.15l0.375,-0c0.525,-0.3 0.975,-0.6 1.2,-1.125c0.365,-0.692 0.446,-1.5 0.225,-2.25c0,-0.225 -0.15,-0.375 -0.375,-0.525l-0.45,-0.3l0,-0.15c0,-0.45 -0.225,-0.825 -0.75,-0.975l-0.3,-0.075l-0.15,-0.075l0,-0.15c-0.234,-0.656 -0.484,-1.306 -0.75,-1.95c-0.121,-0.885 -0.296,-1.762 -0.525,-2.625l0.075,-3.75c0,-1.2 0.075,-2.25 0.225,-3.45l0.375,-0.15c0.779,-0.237 1.586,-0.363 2.4,-0.375l0.825,-0.075l0.45,0.225l1.05,0.15c0.615,0.006 1.218,-0.177 1.725,-0.525c0.495,-0.366 0.884,-0.858 1.125,-1.425l0.075,-0.45l0,-0.225c0.017,-0.476 -0.008,-0.953 -0.075,-1.425c0,-0.15 -0.15,-0.3 -0.225,-0.375c-0.225,-0.375 -0.6,-0.675 -1.05,-0.75l0,-0.15l-0.15,-0.375c-0.383,-0.574 -1.035,-0.914 -1.725,-0.9l-1.2,0.225l-0.75,0.3l-0.75,-0c-0.5,0.014 -1,0.014 -1.5,-0l0,-0.075l0.075,-1.05c0,-0.3 0.075,-0.525 0.225,-0.75l0,-0.525l0.075,-0.6l0.225,-1.35l-0.075,-0.525c0.279,-1.214 0.504,-2.441 0.675,-3.675c0.052,-0.674 0.077,-1.349 0.075,-2.025l0.15,-0.9c0,-0.225 0.15,-0.375 0.225,-0.6c0.15,-0.15 0.225,-0.45 0.15,-0.75c-0.048,-0.3 -0.098,-0.6 -0.15,-0.9l0,-0.675c0.088,-0.749 0.063,-1.508 -0.075,-2.25c0,-0.225 -0.075,-0.375 -0.225,-0.45c-0.225,-0.375 -0.6,-0.6 -0.975,-0.75l0,-0.15l-0.225,-0.375c-0.3,-0.375 -0.6,-0.6 -1.05,-0.75c-0.352,-0.173 -0.734,-0.274 -1.125,-0.3l-0.075,-0c-0.975,-0 -1.575,0.375 -2.025,0.9c-0.363,0.528 -0.547,1.159 -0.525,1.8l0.075,1.275l0.075,0.75c-0.14,0.226 -0.218,0.485 -0.225,0.75l0,0.6c-0.058,0.196 -0.058,0.404 0,0.6l0,0.825l-0.15,0.75l0,0.45c-0.225,0.225 -0.3,0.45 -0.3,0.75c0,0.225 0,0.45 0.15,0.675l0,0.075l-0.3,1.05l-0.15,1.05c-0.229,1.29 -0.38,2.592 -0.45,3.9c-0.156,1.46 -0.381,2.912 -0.675,4.35c-2.466,0.356 -4.918,0.807 -7.35,1.35Zm44.175,6.15l-0.15,-0.15c-0.075,-0.225 -0.3,-0.45 -0.525,-0.525l-0.45,-0.075c-0.031,-0.261 -0.107,-0.515 -0.225,-0.75c-0.15,-0.15 -0.375,-0.375 -0.6,-0.45c-0.244,-0.067 -0.498,-0.092 -0.75,-0.075l-0.3,-0c-0.45,-0.016 -0.9,-0.016 -1.35,-0c-0.295,-1.681 -0.722,-3.336 -1.275,-4.95l-0.3,-0.6c0,-0.15 -0.075,-0.375 0,-0.6c0.057,-0.448 0.057,-0.902 0,-1.35l-0.525,-1.5c-0.144,-0.31 -0.245,-0.638 -0.3,-0.975l-0.525,-2.325c-0.325,-1.112 -0.6,-2.238 -0.825,-3.375c-0,-0.675 -0.3,-1.275 -0.75,-1.725c-0.15,-0.225 -0.375,-0.3 -0.675,-0.3c-0.15,-0.375 -0.3,-0.75 -0.6,-0.975c-0.15,-0.225 -0.375,-0.3 -0.6,-0.375c-0.6,-0 -1.05,-0 -1.35,-0.15c-0.3,-0 -0.6,-0.225 -0.9,-0.525c-0.3,-0.225 -0.675,-0.3 -0.975,-0.15c-0.525,0.225 -0.9,0.6 -1.125,1.05l-0.15,0.15c-0.225,0.075 -0.45,0.225 -0.525,0.45l-0.15,0.525l0.075,0.45l-0.45,1.05c-0.382,0.904 -0.708,1.831 -0.975,2.775c-0.122,0.283 -0.3,0.539 -0.525,0.75l-0.3,0.6l-0.075,0.525c-0.3,0.15 -0.525,0.45 -0.6,0.75l-0.375,1.5c-0.225,0.525 -0.375,0.975 -0.675,1.425c-0.515,0.956 -1.04,1.906 -1.575,2.85c-0.3,0.15 -0.525,0.45 -0.525,0.825l-0,0.15c-0.3,0.075 -0.525,0.375 -0.6,0.675c-0.18,0.788 -0.568,1.514 -1.125,2.1c-0.15,0.15 -0.3,0.375 -0.3,0.6l-0,0.375l-1.05,1.275c-0.805,1.046 -1.605,2.096 -2.4,3.15c-0.375,0.375 -0.75,0.75 -1.35,0.975c-0.3,0.15 -0.525,0.45 -0.525,0.75c-0.051,0.247 -0.051,0.503 -0,0.75l-0,0.15c-0.225,0.225 -0.375,0.6 -0.525,0.9c-0.161,0.586 -0.237,1.192 -0.225,1.8l-0,0.375c0.375,0.75 0.75,1.35 1.5,1.575c0.28,0.894 1.09,1.524 2.025,1.575c0.45,-0 0.975,-0.075 1.5,-0.3c0.45,-0.225 0.825,-0.45 1.125,-0.75c0.225,-0.15 0.375,-0.45 0.375,-0.75l0.525,-0.525c0.384,-0.422 0.735,-0.874 1.05,-1.35c0,-0.15 0.15,-0.225 0.3,-0.3c0.3,-0.15 0.525,-0.45 0.525,-0.825l0.375,-0.6l0.15,-0.075l0.525,-0.525l0,-0.075l1.275,0.15l0.975,0l0.9,-0.075l0.375,0c0.3,0 0.525,-0.15 0.75,-0.225l0.15,0c0.45,0 0.75,-0.15 1.125,-0.375l0.225,-0.15l0.825,0c1.118,0.037 2.233,-0.115 3.3,-0.45l0.375,0.3c0.301,0.174 0.674,0.174 0.975,-0l0.525,1.05c0.331,0.575 0.794,1.063 1.35,1.425c0.225,0.375 0.525,0.75 0.825,0.975c0.45,0.375 0.825,0.45 1.2,0.45l0.075,0.075l0.45,0.3c0.15,0.15 0.45,0.225 0.825,0.225l2.025,-0l0.45,-0.3l0.225,-0l0.9,-0.075c0.45,-0 0.825,-0.15 1.2,-0.3c0.45,-0.15 0.75,-0.375 1.125,-0.675c0.225,-0.15 0.375,-0.45 0.525,-0.75l0.075,-0c0.225,0.15 0.45,0.225 0.525,0.375l0.6,0.6c0.225,0.225 0.525,0.375 0.975,0.525l1.65,0.15c1.057,-0 2.112,-0.101 3.15,-0.3c0.766,-0.486 1.569,-0.912 2.4,-1.275c0.225,-0.075 0.375,-0.225 0.525,-0.45c0.225,-0.45 0.675,-0.75 1.125,-1.125l0.225,-0c0.184,-0.083 0.36,-0.184 0.525,-0.3c0.47,-0.455 0.921,-0.931 1.35,-1.425l1.2,-1.35c0.486,0.79 1.094,1.499 1.8,2.1l0.3,0.375c0.6,0.6 1.2,1.125 1.95,1.5c0.75,0.45 1.65,0.6 2.7,0.6l0.825,-0l0.375,-0.15c0.6,-0.45 1.275,-0.75 2.025,-1.05c0.349,-0.351 0.699,-0.701 1.05,-1.05l0.075,0.525l-0.075,0.15c-0.225,0.225 -0.375,0.6 -0.45,0.9c-0.187,0.582 -0.288,1.189 -0.3,1.8l-0,0.375c0.375,0.75 0.825,1.35 1.5,1.575c0.357,0.913 1.272,1.492 2.25,1.425c0.45,-0 0.9,-0.075 1.425,-0.3c0.45,-0.225 0.825,-0.45 1.125,-0.75c0.3,-0.15 0.375,-0.45 0.375,-0.75l0.525,-0.525c0.387,-0.446 0.738,-0.923 1.05,-1.425l0.3,-0.3c0.3,-0.15 0.525,-0.45 0.525,-0.825l0.375,-0.6l0.225,-0.075l0.45,-0.525l-0,-0.075l1.275,0.15l1.05,-0l0.9,-0.075l0.3,-0c0.3,-0 0.525,-0.15 0.75,-0.225l0.15,0c0.45,0 0.825,-0.15 1.2,-0.375l0.15,-0.15l0.825,-0c1.118,0.037 2.233,-0.115 3.3,-0.45l0.45,0.3c0.282,0.147 0.618,0.147 0.9,-0l0.525,1.05c0.331,0.575 0.794,1.063 1.35,1.425c0.225,0.375 0.525,0.75 0.825,0.975c0.45,0.375 0.9,0.45 1.2,0.45l0.075,0.075l0.45,0.3c0.15,0.15 0.45,0.225 0.9,0.225l1.95,-0l0.525,-0.3l0.15,-0l0.975,-0.075c0.375,-0 0.75,-0.15 1.125,-0.3c0.45,-0.15 0.75,-0.375 1.125,-0.675c0.375,-0.3 0.6,-0.75 0.75,-1.275c-0,-0.3 -0,-0.675 -0.3,-0.9l-0.3,-0.375l-0.525,-0.825c-0.225,-0.225 -0.375,-0.3 -0.6,-0.3l-0.075,-0.15l-0.6,-0.825c-0.3,-0.3 -0.75,-0.45 -1.05,-0.3l-0,-0.15c0.225,-0.3 0.45,-0.75 0.45,-1.275c-0,-0.225 -0.075,-0.6 -0.3,-0.9c-0.075,-0.225 -0.3,-0.45 -0.525,-0.525l-0.45,-0.075c-0.031,-0.261 -0.107,-0.515 -0.225,-0.75c-0.15,-0.15 -0.3,-0.375 -0.6,-0.45c-0.244,-0.067 -0.498,-0.092 -0.75,-0.075l-0.3,-0c-0.45,-0.016 -0.9,-0.016 -1.35,-0c-0.295,-1.681 -0.722,-3.336 -1.275,-4.95l-0.3,-0.6l-0,-0.6c0.056,-0.448 0.056,-0.902 -0,-1.35l-0.525,-1.5c-0.144,-0.31 -0.245,-0.638 -0.3,-0.975c-0.075,-0.75 -0.3,-1.575 -0.525,-2.325l-0.6,-2.175l-0.225,-1.2c-0,-0.675 -0.3,-1.275 -0.75,-1.725c-0.15,-0.225 -0.375,-0.3 -0.6,-0.3c-0.15,-0.375 -0.375,-0.75 -0.675,-0.975c-0.15,-0.225 -0.375,-0.3 -0.6,-0.375c-0.6,-0 -0.975,-0 -1.35,-0.15c-0.3,-0 -0.525,-0.225 -0.9,-0.525c-0.3,-0.225 -0.675,-0.3 -0.975,-0.15c-0.525,0.225 -0.9,0.6 -1.125,1.05l-0.15,0.15c-0.225,0.075 -0.375,0.225 -0.525,0.45l-0.075,0.525l-0,0.45l-0.45,1.05c-0.382,0.904 -0.708,1.831 -0.975,2.775c-0.122,0.283 -0.3,0.539 -0.525,0.75l-0.3,0.6l-0.075,0.525c-0.3,0.15 -0.525,0.45 -0.6,0.75c-0,0.6 -0.225,1.125 -0.375,1.5l-0.6,1.425c-0.541,0.955 -1.091,1.905 -1.65,2.85c-0.3,0.15 -0.525,0.45 -0.525,0.825l-0,0.15c-0.3,0.075 -0.525,0.375 -0.6,0.675c-0.18,0.788 -0.568,1.514 -1.125,2.1c-0.15,0.15 -0.225,0.375 -0.225,0.6l-0,0.375c-0.45,0.375 -0.825,0.825 -1.2,1.35c-0.779,1.047 -1.554,2.097 -2.325,3.15l-0.225,0.15l0.3,-0.45c0.15,-0.525 0.3,-1.05 0.6,-1.5c0.447,-0.724 0.848,-1.476 1.2,-2.25l-0,-1.05c0.179,-0.756 0.379,-1.506 0.6,-2.25l0.15,-1.425c-0,-0.825 -0.075,-1.725 -0.225,-2.55l-0.3,-1.875l0.15,-0.3l0.225,-0.3c0.252,-0.289 0.311,-0.702 0.15,-1.05c0.15,-0.225 0.3,-0.525 0.3,-0.9l0.075,-0.075c0.15,-0.225 0.225,-0.525 0.225,-0.75l-0.225,-0.75l-0,-0.75c-0,-0.225 -0.075,-0.45 -0.225,-0.6c-0.225,-0.225 -0.375,-0.525 -0.45,-0.75l-0.375,-1.125l-0.525,-1.2c-0.172,-0.444 -0.426,-0.851 -0.75,-1.2c-0.15,-0.15 -0.3,-0.225 -0.525,-0.225l-0.525,-0.825c-0.15,-0.225 -0.3,-0.375 -0.525,-0.45l-0.675,-0l-0.3,-0.3l-0.45,-0.375c-0.525,-0.3 -1.35,-0.3 -1.875,-0c-0.14,0.079 -0.267,0.181 -0.375,0.3l-0.15,0.225l-0.3,0.3c-0.15,0.15 -0.225,0.3 -0.225,0.525l-0,0.525l0.225,0.9l-0,0.9l-0.075,0.3c-0.045,0.345 0.099,0.689 0.375,0.9l-0,0.075c0.225,0.45 0.225,0.9 0.3,1.425c0.036,0.179 0.086,0.354 0.15,0.525l-0,0.6c0.04,1.052 0.115,2.103 0.225,3.15c0.182,1.819 0.257,3.647 0.225,5.475l-0,0.15c-0.15,0.237 -0.275,0.488 -0.375,0.75l-0.15,0.6l-0.15,0.75l-0.375,0.75l-0.45,0.375c-0.15,-0 -0.3,0.225 -0.375,0.375l-0.075,0.3c-0.126,0.433 -0.329,0.839 -0.6,1.2c-0.102,0.146 -0.229,0.273 -0.375,0.375c-0.187,0.091 -0.392,0.142 -0.6,0.15l-0.3,-2.175c-0.129,-2.148 -0.129,-4.302 -0,-6.45l-0,-0.45l-0.525,-0.6l-0,-0.3c-0,-0.375 -0.225,-0.75 -0.675,-0.9l-0.3,-0.15l-0.225,-0.225c-0,-0.3 -0.225,-0.6 -0.45,-0.75l-0.375,-0.225c-0.15,-0 -0.225,-0.075 -0.3,-0.225l-0.525,-0.3l-0.9,-0.6c-0.31,-0.122 -0.643,-0.173 -0.975,-0.15l-0.525,0.075l-0.15,0.15l0.15,-0.075l-0.075,-0l-0.075,0.075c-0.23,0.167 -0.433,0.37 -0.6,0.6l-0.525,0.675c-0.147,0.282 -0.147,0.618 -0,0.9l-0,0.15c-0.07,0.22 -0.12,0.446 -0.15,0.675l-0,1.05l-0.15,0.9c-0,0.15 -0.15,0.225 -0.225,0.375c-0.15,0.219 -0.204,0.49 -0.15,0.75l0.075,0.375l-0,0.45l-0.375,0.975c-0.037,0.173 -0.062,0.348 -0.075,0.525l-0.15,0.15l-0.075,0.225l-0.15,0.225l-0,0.15l-0.15,0.075l-0.15,0.3l-0,0.075l-0.3,0.375c-0.1,0.136 -0.176,0.288 -0.225,0.45l-0,0.075l-0.375,0.375l-1.125,1.275c-0.225,0.225 -0.525,0.225 -0.75,0.45l-0.225,0.375l-0,0.15l-0.15,0.15l-0.375,0.3c-0.22,0.005 -0.431,0.085 -0.6,0.225c-0.15,-0 -0.225,0.15 -0.225,0.225l-0.225,0.3l-0.75,0.375l-0.75,0.45c-0.194,0.126 -0.371,0.278 -0.525,0.45l-0,0.075c-0.199,0.024 -0.401,0.024 -0.6,-0l0.075,-1.2c-0,-0.375 0.075,-0.75 0.225,-0.975c0.075,-0.225 0.15,-0.45 0.075,-0.6c-0.04,-0.178 -0.09,-0.353 -0.15,-0.525l0.15,-0.525l0.375,-1.125l0.45,-2.475c0.15,-0.75 0.375,-1.425 0.75,-2.025l0.15,-0.525l-0,-0.9l0.6,-1.95c0.548,-2.283 0.8,-4.627 0.75,-6.975l-0,-0.825c-0,-0.3 -0.15,-0.6 -0.375,-0.75l-0.9,-0.675c-0,-0.225 -0.15,-0.375 -0.3,-0.525l-0.45,-0.375c-0.706,-0.541 -1.459,-1.018 -2.25,-1.425l-0.45,-0.225l-0.675,-0c-0.075,-0 -0.225,-0 -0.3,0.15c-0.353,0.179 -0.66,0.435 -0.9,0.75l-0.3,0.525l-0.15,0.3l-0,3.6l-0.3,1.875l-0,1.95l-0.075,0.375c-0.428,1.421 -0.729,2.876 -0.9,4.35c-0,0.375 -0,0.825 -0.15,1.2l-0,0.225l-0.075,-0l-0.075,0.15c-0.215,0.205 -0.37,0.464 -0.45,0.75l-0.075,0.75l-0,0.15l-0.075,0.45l-0.15,0.975l-0.15,0.675c-0,0.45 -0.15,0.9 -0.3,1.35c-0,0.45 -0.15,0.75 -0.225,1.2l-0.15,1.5l0.075,-0Zm62.475,6.075l0.75,1.05c0.225,0.225 0.6,0.375 0.975,0.3l0.075,-0c0.3,0.3 0.6,0.525 1.05,0.6c0.3,0.075 0.6,-0 0.9,-0.15l1.2,-0c0.45,-0 0.825,-0 1.125,-0.225c0.15,-0 0.3,-0.15 0.375,-0.225l0.525,-0.6l0.75,-0.825c0.225,-0.3 0.225,-0.75 -0,-1.05c-0.322,-0.512 -0.622,-1.038 -0.9,-1.575l-0.525,-1.5c-0,-0.45 -0.375,-0.75 -0.75,-0.75l-0,-0.075l-0.225,-0.075l-0.15,-0l-0.15,-0.45c-0,-0.3 -0.15,-0.45 -0.375,-0.6c-0.15,-0.75 -0.15,-1.5 -0.15,-2.25c-0,-1.5 0.225,-3.15 0.375,-4.8c0.225,-1.725 0.45,-3.375 0.525,-5.1c0.075,-1.8 -0.15,-3.525 -0.675,-5.1c-0,-0.15 -0.15,-0.3 -0.3,-0.45l-0.9,-0.75l-0,-0.075l-0.3,-0.45l-1.05,-0.75c-0.375,-0.3 -0.9,-0.45 -1.425,-0.525c-0.375,-0.075 -0.75,-0.075 -1.2,-0l-0.825,0.3c-0.45,0.15 -0.75,0.6 -0.675,1.05c-0.3,0.15 -0.6,0.45 -0.75,0.9c-0.15,0.375 -0,0.75 0.15,0.975l-0,0.3l-0.3,0.825l-0,0.45c0.117,0.851 0.242,1.701 0.375,2.55c0.011,0.803 -0.039,1.605 -0.15,2.4c-0.202,1.785 -0.478,3.562 -0.825,5.325c-0.052,0.628 -0.127,1.253 -0.225,1.875l-0,0.15l0.15,0.9c0.064,0.247 0.114,0.497 0.15,0.75c0.227,1.29 0.378,2.592 0.45,3.9c0.816,1.156 1.641,2.306 2.475,3.45c0.075,0.15 0.225,0.3 0.45,0.3Zm12.825,-0l0.75,1.05c0.3,0.225 0.675,0.375 0.975,0.3l0.15,-0c0.225,0.3 0.6,0.525 1.05,0.6c0.3,0.075 0.6,-0 0.825,-0.15l1.275,-0c0.45,-0 0.75,-0 1.125,-0.225c0.15,-0 0.225,-0.15 0.375,-0.225l0.525,-0.6l0.75,-0.825c0.15,-0.3 0.15,-0.75 -0,-1.05c-0.322,-0.512 -0.622,-1.038 -0.9,-1.575c-0.3,-0.525 -0.45,-1.05 -0.525,-1.5c-0.075,-0.45 -0.375,-0.75 -0.75,-0.75l-0,-0.075l-0.3,-0.075l-0.15,-0l-0.075,-0.45c-0,-0.3 -0.225,-0.45 -0.45,-0.6l-0.15,-2.25l0.45,-4.8c0.225,-1.725 0.375,-3.375 0.45,-5.1c0.15,-1.8 -0.075,-3.525 -0.675,-5.1l-0.225,-0.45l-0.975,-0.75l-0,-0.075c-0,-0.15 -0.15,-0.3 -0.3,-0.45l-0.975,-0.75c-0.45,-0.3 -0.9,-0.45 -1.5,-0.525c-0.3,-0.075 -0.75,-0.075 -1.2,0l-0.75,0.3c-0.525,0.15 -0.75,0.6 -0.75,1.05c-0.3,0.15 -0.525,0.45 -0.75,0.9c-0.075,0.375 -0,0.75 0.225,0.975l-0.075,0.3l-0.3,0.825l-0,0.45c0.117,0.856 0.267,1.706 0.45,2.55c-0.014,0.805 -0.089,1.607 -0.225,2.4c-0.179,1.784 -0.429,3.561 -0.75,5.325c-0.05,0.678 -0.125,1.353 -0.225,2.025c-0,0.3 -0,0.525 0.15,0.9l0.075,0.75c0.227,1.29 0.378,2.592 0.45,3.9c0.815,1.157 1.64,2.307 2.475,3.45c0.15,0.15 0.3,0.3 0.45,0.3Zm-45.225,-3.75l-0.75,0.6c0.228,-0.226 0.479,-0.427 0.75,-0.6Zm14.4,-12.375l-0,0.15l0.075,0.675l0.75,2.25c0.423,1.659 0.773,3.335 1.05,5.025l-0.375,0c-0.467,0.119 -0.944,0.194 -1.425,0.225c-0.375,0 -0.75,0 -1.125,-0.15c-0.3,-0.15 -0.675,-0.075 -0.9,0.075l-0.45,0.15l-0.75,0.075l-0.6,-0.225l-0.375,0l0.75,-1.95c0.685,-1.361 1.436,-2.687 2.25,-3.975c0.375,-0.75 0.675,-1.425 0.825,-2.175l0.3,-0.15Zm-57.75,0l0.15,0.15l-0,0.675l0.75,2.25c0.425,1.659 0.775,3.335 1.05,5.025l-0.45,0c-0.443,0.114 -0.894,0.19 -1.35,0.225c-0.375,0 -0.75,0 -1.2,-0.15c-0.3,-0.15 -0.6,-0.075 -0.825,0.075l-0.45,0.15l-0.75,0.075l-0.6,-0.225l-0.375,0l0.75,-1.95c0.685,-1.361 1.436,-2.687 2.25,-3.975c0.375,-0.75 0.6,-1.425 0.75,-2.175l0.3,-0.15Zm14.925,2.175l-0,-0.075l-0,0.075Z" style="fill:#c67168;fill-rule:nonzero;"/><path d="M28.5,21.6l0,0.45c-0.3,0.375 -0.525,0.75 -0.825,0.9c-0.3,0.225 -0.75,0.3 -1.2,0.3l-0.675,-0l-0.525,-0.375c-0.846,0.118 -1.697,0.193 -2.55,0.225l-1.275,0.3c-0.375,0.075 -0.75,0.3 -0.975,0.525l-0.3,3.975l-0,3.975l0.3,1.35l0.075,1.35l0.375,0.75c0.156,0.473 0.306,0.948 0.45,1.425l0.45,0.6l0.375,-0l0.45,0.15l0,0.15c0,0.3 0,0.525 0.225,0.675l0.6,0.45l0.075,0.6c0,0.3 0,0.6 -0.225,0.9c-0.15,0.3 -0.375,0.525 -0.75,0.6l-0.525,-0c-0.32,-0.079 -0.655,-0.079 -0.975,-0c-0.09,-0.058 -0.167,-0.135 -0.225,-0.225l-0.45,-0.3l-0.375,-0c-0.099,-0.277 -0.252,-0.532 -0.45,-0.75c-0.225,-0.3 -0.45,-0.375 -0.75,-0.375l0,-0.225c0,-0.3 0,-0.525 -0.15,-0.75l-0.45,-0.6l-0.3,-1.5c0,-0.45 -0.225,-0.9 -0.45,-1.35c-0.223,-1.041 -0.398,-2.093 -0.525,-3.15l0.15,-1.05c0.009,-0.501 -0.016,-1.002 -0.075,-1.5l-0,-0.825l0.3,-0.75l-0.225,-0.6l-0,-1.65l0.15,-0.9l-0.225,0l-0.45,0.075l-0.45,0.225l-0.525,0l-0.9,0.075c-0.225,0.075 -0.525,0.225 -0.75,0.45l-1.95,0.225c-1.268,0.187 -2.521,0.463 -3.75,0.825l-1.95,0.525c-0.31,1.53 -0.461,3.089 -0.45,4.65l0,1.425l0.225,0.375l0.15,0.45c0,0.15 0,0.225 -0.15,0.3c0.15,0.225 0.375,0.45 0.675,0.6l0.75,-0.15c0.3,0 0.675,0.075 0.975,0.3l0.975,0.3l-0.375,0.75c-0.163,0.275 -0.265,0.582 -0.3,0.9l-0.225,0l-0.3,0.15l0,0.375c-0.235,0.133 -0.488,0.234 -0.75,0.3c-0.57,0.09 -1.149,0.115 -1.725,0.075l-0.75,0l-0.15,-0.225l-0.15,-0.15l-0.3,-0.075c-0.083,-0.036 -0.16,-0.087 -0.225,-0.15l-0.3,-0.525c-0.212,-0.47 -0.412,-0.945 -0.6,-1.425c0,-0.225 -0.15,-0.45 -0.3,-0.6c-0.264,-2.394 -0.239,-4.812 0.075,-7.2c-0.156,-0.161 -0.377,-0.244 -0.6,-0.225l-0.6,-0.075l-0.6,-0.975l-0.225,-1.125l0.075,-0.6l0.6,-0.15c0.225,-0.075 0.3,-0.225 0.3,-0.45l0.525,0.075l0.6,-0.075l0.525,-0.15l0.225,-0.9l0,-0.975c0.3,-0.375 0.45,-0.75 0.525,-1.275l0.225,-1.425l0,-0.825l0.225,-0.75c0.147,-0.57 0.272,-1.145 0.375,-1.725l0,-1.125l-0.075,-0.225c0.134,-1.309 0.334,-2.611 0.6,-3.9c-0.159,-0.484 -0.235,-0.991 -0.225,-1.5c0,-0.75 0.15,-1.5 0.375,-2.175l-0.225,-0.9l0.075,-0.75l0,-0.525l0.525,-0.45l0.45,-0.45c0.525,0 1.05,0.225 1.5,0.6c0.3,0.45 0.525,0.9 0.525,1.5c0,0.45 -0.15,0.825 -0.375,1.275l0.15,1.275l-0.15,2.1c-0.15,0.75 -0.15,1.5 -0.15,2.25l-0.15,0.975c0.014,0.608 -0.061,1.214 -0.225,1.8l-0.15,0.75c-0.094,0.873 -0.169,1.748 -0.225,2.625l-0.15,0.45l-0.15,0.3c-0.075,0.45 -0.15,0.825 -0.075,1.275l0,1.275l-0.15,0.375l0,0.75c1.725,-0.15 3.525,-0.45 5.25,-0.75c1.725,-0.45 3.45,-0.75 5.25,-0.975l0.15,-0.75l0,-0.525l0.375,-1.95c0.369,-1.908 0.62,-3.836 0.75,-5.775l0.15,-0.975c0.09,-0.565 0.241,-1.118 0.45,-1.65l-0.15,-0.15c-0.15,0 -0.225,-0.075 -0.225,-0.15l0.075,-0.075l0.075,0l0.15,-0.525c0.071,-0.397 0.121,-0.798 0.15,-1.2l0.225,-0.45c0,-0.15 0,-0.3 -0.15,-0.375l0,-0.45c0.042,-0.299 0.042,-0.601 0,-0.9c0,-0.3 0.15,-0.45 0.375,-0.6c-0.149,-0.741 -0.224,-1.494 -0.225,-2.25c0,-0.45 0,-0.825 0.3,-1.2c0.225,-0.3 0.675,-0.525 1.2,-0.525c0.3,0 0.6,0.075 0.825,0.225l0.675,0.45c0.143,0.665 0.168,1.351 0.075,2.025c-0.048,0.449 -0.048,0.901 0,1.35l0.15,0.6c-0.225,0.225 -0.3,0.525 -0.375,0.9l-0.15,0.975c-0.085,0.672 -0.135,1.348 -0.15,2.025c-0.085,1.271 -0.312,2.529 -0.675,3.75l0.075,0.6c0,0.3 0,0.675 -0.15,0.975l0,1.05c-0.225,0.3 -0.3,0.75 -0.3,1.05l-0.15,1.05l0,1.125c0,0.375 -0.075,0.75 -0.225,1.05c0,0.075 0.075,0.15 0.225,0.15c0.075,0 0.15,0.075 0.075,0.225c0.488,-0.134 0.995,-0.185 1.5,-0.15c1.025,-0.003 2.051,-0.028 3.075,-0.075l0.9,-0.3l0.9,-0.15c0.375,0 0.75,0.15 0.9,0.45c0.088,0.42 0.138,0.846 0.15,1.275Zm25.875,10.875c0,0.3 -0.225,0.525 -0.45,0.75c-0.225,0.225 -0.45,0.375 -0.75,0.45c-0.313,0.118 -0.641,0.194 -0.975,0.225l-0.825,0.075l-0.675,-0c-0.15,-0 -0.15,-0 -0.15,0.15c0,0.15 -0.075,0.225 -0.225,0.225c-0.238,-0.099 -0.493,-0.15 -0.75,-0.15l-0.375,-0l-0.45,0.075l-0.45,-0l-0.15,-0.225l-0.225,-0.15l-0.225,-0.225l-0.45,-0c-0.075,-0 -0.225,-0 -0.45,-0.225l-0.75,-0.825c-0.426,-0.723 -0.802,-1.475 -1.125,-2.25c-0.204,-0.358 -0.457,-0.686 -0.75,-0.975l-0.3,0c-0.45,0 -0.75,0.225 -0.9,0.525c-0.106,-0.067 -0.206,-0.142 -0.3,-0.225l-0.375,-0.3c-1.127,0.314 -2.283,0.515 -3.45,0.6l-0.975,0c-0.225,0 -0.45,0.15 -0.675,0.3l-0.6,0.15c-0.15,0 -0.3,0 -0.525,-0.15c-0.075,0 -0.15,0.075 -0.15,0.225c0,0.075 -0.075,0.15 -0.225,0.15l-1.275,0l-0.975,0.075c-0.45,0 -0.9,0 -1.35,-0.15c-0.139,0.071 -0.296,0.097 -0.45,0.075l-0.15,0.225l-0.15,0.3l-0.225,0.225l-0.3,-0c0,0.3 -0.15,0.525 -0.375,0.75c-0.15,0.15 -0.3,0.375 -0.3,0.75c-0.225,0.075 -0.45,0.225 -0.6,0.45c-0.372,0.433 -0.722,0.883 -1.05,1.35l-0.6,0.525c-0.15,0.075 -0.15,0.3 -0.15,0.675l-0.9,0.525l-1.05,0.225c-0.75,0 -1.2,-0.375 -1.5,-1.05c0.034,-0.511 0.135,-1.015 0.3,-1.5c0,-0.3 0.15,-0.525 0.3,-0.75c0.15,-0.15 0.3,-0.3 0.6,-0.375c0,-0.225 -0.075,-0.375 -0.225,-0.45c-0.15,-0.075 -0.225,-0.225 -0.15,-0.45c0.6,-0.3 1.2,-0.75 1.65,-1.2c0.82,-1.078 1.645,-2.153 2.475,-3.225c0.375,-0.6 0.75,-1.05 1.275,-1.5l0,-0.75c0.75,-0.75 1.2,-1.575 1.425,-2.55c0.225,0 0.375,-0.15 0.45,-0.375c0.15,-0.15 0.15,-0.375 0.15,-0.675c0.15,0 0.225,0 0.225,-0.15c0,-0.075 0.15,-0.075 0.3,0c0.749,-1.488 1.475,-2.988 2.175,-4.5c0.225,-0.525 0.375,-1.125 0.45,-1.725c0.3,0 0.525,-0.225 0.525,-0.525l0.15,-0.75c0.3,-0.375 0.6,-0.75 0.75,-1.2l0.525,-1.35l0.45,-1.5c0.15,-0.45 0.45,-0.9 0.75,-1.275c0,-0.15 0,-0.225 -0.15,-0.3c-0.075,0 -0.15,-0.075 -0.15,-0.225c0.375,-0.225 0.525,-0.375 0.75,-0.675c0.075,-0.225 0.3,-0.45 0.6,-0.525c0.45,0.375 0.9,0.6 1.275,0.75l1.5,0.15c0.3,0.3 0.45,0.75 0.45,1.125c0.222,1.187 0.498,2.363 0.825,3.525c0.3,0.75 0.45,1.5 0.6,2.25c0,0.45 0.15,0.9 0.375,1.275l0.375,1.2l0,1.125c0,0.45 0,0.75 0.15,1.05l0.225,0.6l0.3,0.75c0.327,1.03 0.578,2.083 0.75,3.15c0.15,0.825 0.375,1.5 0.75,2.25c0.075,0.225 0.225,0.375 0.525,0.45l0.75,0.225l2.475,0l0.15,0.525c0,0.3 -0.075,0.525 -0.3,0.75c-0.169,0.125 -0.278,0.316 -0.3,0.525l0.15,0.375l-0.375,0c-0.6,0 -1.125,0 -1.575,0.225c0.15,0.45 0.375,0.75 0.75,1.05l0.975,0.75c0.225,-0.225 0.45,-0.3 0.75,-0.3c0.3,0 0.525,0 0.75,0.225l0.75,0.15l0.525,-0.075c0.225,0.225 0.375,0.375 0.45,0.6l0.45,0.675Zm57.75,0c-0.075,0.3 -0.225,0.525 -0.45,0.75c-0.225,0.225 -0.525,0.375 -0.825,0.45c-0.29,0.112 -0.592,0.188 -0.9,0.225l-0.9,0.075l-0.675,-0c-0.075,-0 -0.15,-0 -0.15,0.15c0,0.15 0,0.225 -0.15,0.225c-0.238,-0.099 -0.493,-0.15 -0.75,-0.15l-0.45,-0l-0.45,0.075l-0.375,-0l-0.225,-0.225l-0.225,-0.15l-0.225,-0.225l-0.375,-0c-0.15,-0 -0.3,-0 -0.525,-0.225l-0.75,-0.825c-0.426,-0.723 -0.802,-1.475 -1.125,-2.25c-0.204,-0.358 -0.457,-0.686 -0.75,-0.975l-0.3,0c-0.375,0 -0.75,0.225 -0.825,0.525c-0.132,-0.063 -0.258,-0.138 -0.375,-0.225l-0.375,-0.3c-1.127,0.314 -2.283,0.515 -3.45,0.6l-0.975,0c-0.225,0 -0.45,0.15 -0.6,0.3l-0.675,0.15c-0.15,0 -0.3,0 -0.45,-0.15c-0.15,0 -0.225,0.075 -0.225,0.225c0,0.075 0,0.15 -0.225,0.15l-1.275,0l-0.975,0.075c-0.45,0 -0.9,0 -1.35,-0.15c-0.116,0.057 -0.246,0.083 -0.375,0.075c-0.15,0 -0.225,0.15 -0.225,0.225l-0.15,0.3l-0.225,0.225l-0.3,-0c0,0.3 -0.15,0.525 -0.375,0.75c-0.15,0.15 -0.3,0.375 -0.3,0.75c-0.225,0.075 -0.45,0.225 -0.6,0.45c-0.346,0.434 -0.672,0.885 -0.975,1.35l-0.675,0.525c-0.15,0.075 -0.15,0.3 -0.075,0.675l-0.975,0.525l-1.05,0.225c-0.75,0 -1.125,-0.375 -1.425,-1.05c0.01,-0.508 0.085,-1.012 0.225,-1.5c-0,-0.3 0.15,-0.525 0.3,-0.75l0.6,-0.375c-0,-0.225 -0,-0.375 -0.225,-0.45c-0.15,-0.075 -0.15,-0.225 -0.15,-0.45c0.6,-0.3 1.2,-0.75 1.65,-1.2c0.821,-1.078 1.646,-2.153 2.475,-3.225c0.375,-0.6 0.825,-1.05 1.35,-1.5l-0,-0.75c0.675,-0.75 1.125,-1.575 1.35,-2.55c0.225,0 0.45,-0.15 0.525,-0.375l0.075,-0.675c0.15,0 0.225,0 0.225,-0.15c-0,-0.075 0.15,-0.075 0.3,0c0.752,-1.487 1.477,-2.987 2.175,-4.5c0.225,-0.525 0.375,-1.125 0.45,-1.725c0.3,0 0.525,-0.225 0.525,-0.525l0.15,-0.75c0.375,-0.375 0.6,-0.75 0.75,-1.2l0.525,-1.35l0.45,-1.5l0.75,-1.275c-0,-0.15 -0,-0.225 -0.15,-0.3l-0.075,-0.225c0.3,-0.225 0.525,-0.375 0.6,-0.675c0.15,-0.225 0.375,-0.45 0.675,-0.525c0.45,0.375 0.9,0.6 1.275,0.75l1.5,0.15c0.3,0.3 0.45,0.75 0.525,1.125c0.222,1.187 0.497,2.363 0.825,3.525l0.525,2.25c-0,0.45 0.15,0.9 0.375,1.275l0.375,1.2l-0,1.125c-0,0.45 -0,0.75 0.15,1.05l0.225,0.6l0.3,0.75c0.327,1.03 0.578,2.083 0.75,3.15c0.15,0.825 0.375,1.5 0.75,2.25c0.075,0.225 0.3,0.375 0.525,0.45l0.75,0.225l2.475,0c0.15,0.225 0.15,0.45 0.15,0.525c-0,0.3 -0.075,0.525 -0.3,0.75c-0.141,0.138 -0.222,0.327 -0.225,0.525c-0,0.075 -0,0.225 0.15,0.375l-0.45,0c-0.525,0 -1.05,0 -1.575,0.225c0.15,0.45 0.45,0.75 0.75,1.05l0.975,0.75c0.225,-0.225 0.525,-0.3 0.75,-0.3c0.3,0 0.525,0 0.75,0.225l0.825,0.15l0.45,-0.075c0.225,0.225 0.375,0.375 0.45,0.6l0.45,0.675l0.075,0Zm9.375,-0.225l-0.525,0.75l-0.6,0.6l-0.75,0.15l-0.75,0c-0.225,-0.017 -0.45,-0.017 -0.675,0c-0.162,0 -0.32,0.053 -0.45,0.15c-0.3,0 -0.45,-0.15 -0.6,-0.375c-0.075,-0.15 -0.3,-0.225 -0.675,-0.3c-0.123,-0.032 -0.252,-0.032 -0.375,0l-1.275,-1.65l-1.05,-1.725c-0.07,-1.713 -0.271,-3.418 -0.6,-5.1l0.075,-0.975l0.15,-0.75c0.177,-1.809 0.428,-3.611 0.75,-5.4c0.225,-0.75 0.225,-1.65 0.225,-2.55c-0,-0.9 -0.15,-1.725 -0.375,-2.475l-0,-0.225c-0,-0.3 -0,-0.525 0.15,-0.675l0.15,-0.6c0.075,-0.3 -0,-0.6 -0.225,-0.75c0.075,-0.225 0.225,-0.375 0.45,-0.45c0.225,-0.075 0.375,-0.3 0.375,-0.525l-0,-0.375l0.75,-0.3c0.246,-0.064 0.504,-0.064 0.75,0c0.45,0 0.825,0.15 1.125,0.375l0.9,0.75c0.525,1.5 0.75,3 0.6,4.725c-0.089,1.68 -0.239,3.356 -0.45,5.025l-0.45,4.95c-0,1.575 0.225,3.075 0.75,4.5l0.15,0c0.15,0 0.225,0 0.375,-0.15c-0,-0.15 0.225,-0.225 0.375,-0.15l0.225,0.075c0.075,0.6 0.3,1.2 0.6,1.8l0.9,1.65Zm12.9,0l-0.6,0.75l-0.6,0.6l-0.75,0.15l-0.75,0c-0.2,-0.013 -0.4,-0.013 -0.6,0c-0.188,-0.018 -0.375,0.036 -0.525,0.15c-0.225,0 -0.45,-0.15 -0.525,-0.375c-0.15,-0.15 -0.375,-0.225 -0.75,-0.3c-0.099,-0.02 -0.201,-0.02 -0.3,0l-1.275,-1.65l-1.125,-1.725c-0.047,-1.711 -0.222,-3.416 -0.525,-5.1l-0,-0.975l0.15,-0.75c0.202,-1.81 0.477,-3.612 0.825,-5.4c0.15,-0.75 0.225,-1.65 0.225,-2.55c-0,-0.9 -0.15,-1.725 -0.45,-2.475l-0,-0.225l0.15,-0.675l0.225,-0.6c-0,-0.3 -0,-0.6 -0.3,-0.75c0.15,-0.225 0.3,-0.375 0.525,-0.45c0.225,-0.075 0.3,-0.3 0.375,-0.525l-0,-0.375l0.75,-0.3c0.246,-0.064 0.504,-0.064 0.75,0c0.45,0 0.75,0.15 1.125,0.375l0.9,0.75c0.45,1.5 0.675,3 0.6,4.725c-0.114,1.681 -0.289,3.357 -0.525,5.025l-0.375,4.95c-0.075,1.575 0.15,3.075 0.75,4.5l0.075,-0c0.15,-0 0.3,-0 0.375,-0.15c0.075,-0.15 0.225,-0.225 0.375,-0.15l0.225,0.075l0.6,1.8l0.975,1.65Zm-49.65,-19.725l-0.3,-0l-0,0.525c-0,0.3 -0,0.525 -0.225,0.75c-0.15,0.15 -0.3,0.3 -0.3,0.45l0.15,0.225l0.225,0.075l-0.375,0.45c-0,0.15 -0.15,0.3 -0.3,0.45c-0,0.75 0.15,1.575 0.3,2.4c0.15,0.75 0.225,1.5 0.225,2.325l-0.075,1.2c-0.152,0.78 -0.327,1.555 -0.525,2.325c-0.15,0.375 -0.15,0.75 -0.15,1.2l-0.975,1.725c-0.375,0.525 -0.6,1.125 -0.75,1.8c-0.543,0.312 -1.025,0.718 -1.425,1.2l-1.125,1.5c-0.825,0.225 -1.575,0.6 -2.25,1.05l-0.6,0c-1.495,0.054 -2.934,-0.583 -3.9,-1.725c-0.525,-0.525 -0.9,-1.125 -1.2,-1.8l-0.9,-2.1c-0.6,0.375 -1.05,0.825 -1.5,1.35c-0.878,0.946 -1.779,1.871 -2.7,2.775l-0.3,0.15c-0.75,0.375 -1.2,0.9 -1.575,1.5c-0.924,0.349 -1.804,0.802 -2.625,1.35c-0.851,0.026 -1.702,0.076 -2.55,0.15l-1.425,-0.075l-0.6,-0.375l-0.45,-0.45l-0.9,-0.6l-0.3,-0.9l-0.45,-0.825l-0,-1.2l-0.15,-0.525l-0.375,-0.3c-0,-0.825 0.15,-1.725 0.3,-2.55c0.43,-1.598 0.731,-3.229 0.9,-4.875c-0,-0.15 0.075,-0.225 0.225,-0.375c0.15,0 0.225,-0.225 0.225,-0.375l0.225,-1.125c0.064,-1.09 0.24,-2.171 0.525,-3.225l0.525,-2.1l-0,-0.45c-0,-0.9 -0,-1.8 0.15,-2.625c0.178,-1.318 0.203,-2.652 0.075,-3.975l0.45,-0.6l0.6,-0.525c0.989,0.537 1.941,1.138 2.85,1.8l-0,0.825c-0.062,2.263 -0.287,4.519 -0.675,6.75c-0.15,0.75 -0.375,1.425 -0.675,2.025l-0,1.125c-0.375,0.75 -0.75,1.5 -0.825,2.325c-0.245,1.566 -0.57,3.118 -0.975,4.65l0.15,0.375c-0.225,0.375 -0.3,0.825 -0.3,1.35l-0.225,1.425l1.05,1.95l1.05,0c0.448,0.067 0.902,0.067 1.35,0c0.075,-0.225 0.3,-0.45 0.525,-0.6l1.5,-0.75l0.45,-0.6l0.525,0l0.225,-0.3c0.262,-0.237 0.513,-0.488 0.75,-0.75l-0,-0.225c0.277,-0.099 0.532,-0.252 0.75,-0.45c0.414,-0.416 0.79,-0.868 1.125,-1.35l0.75,-0.525l-0.075,-0.15c-0,-0.225 -0,-0.375 0.15,-0.525c0.15,-0.075 0.15,-0.3 0.15,-0.6l0.3,0l0.15,-0.3c-0,-0.075 -0,-0.225 0.15,-0.3l0.225,-0.15c-0,-0.45 0.075,-0.9 0.3,-1.275c0.213,-0.469 0.291,-0.989 0.225,-1.5l-0.15,-0.375c0.225,-0.225 0.375,-0.45 0.45,-0.75l0.075,-0.975l-0,-0.975c0.075,-0.3 0.15,-0.675 0.375,-0.975c-0,-0.225 -0.075,-0.375 -0.3,-0.45l0.45,-0.6l0.525,-0.45c0.3,0 0.525,0.075 0.75,0.225l0.525,0.375l0.525,0.45l0.675,0.375l-0,0.75c0.225,0.075 0.375,0.3 0.525,0.525c-0.071,2.174 -0.071,4.351 -0,6.525c-0,0.9 0.15,1.875 0.375,2.775l0.75,0.75c0.3,0.3 0.45,0.6 0.6,0.9l0.45,0c0.75,0 1.5,-0.3 1.875,-0.75c0.45,-0.6 0.75,-1.2 0.975,-1.875c0.375,-0.15 0.6,-0.375 0.75,-0.75c0.225,-0.225 0.375,-0.6 0.45,-0.9l0.3,-1.125c-0,-0.3 0.225,-0.675 0.375,-0.9l-0,-1.725c-0,-1.35 -0,-2.775 -0.15,-4.125c-0.22,-1.542 -0.37,-3.094 -0.45,-4.65l-0,-0.75l-0.225,-0.75c-0.075,-0.225 -0.225,-0.375 -0.375,-0.45l0.075,-0.9l-0.075,-0.9l-0.225,-0.9l0.525,-0.525c0.075,-0.15 0.3,-0.225 0.6,-0.225c0.15,0 0.3,0 0.375,0.15l0.75,0.6c0.187,0.157 0.439,0.213 0.675,0.15l0.15,0c0.225,0.225 0.45,0.525 0.6,0.9l0.45,1.05l0.375,1.2l0.6,0.975l-0,1.05c0.15,0.225 0.225,0.375 0.225,0.6l-0,-0.075Zm-41.25,14.25c-0.075,-0.375 -0.15,-0.675 -0.3,-0.75l-0.225,-0.75l-0.225,-1.05c-0,-0.375 -0,-0.75 -0.15,-1.05c-0.3,-1.716 -0.676,-3.417 -1.125,-5.1l-0,-0.15c-0.225,-0.225 -0.375,-0.525 -0.45,-0.825c-0.219,-0.644 -0.42,-1.294 -0.6,-1.95c-0.15,-0.3 -0.3,-0.525 -0.6,-0.75l-0.15,0.525l0.075,0.45l-0,0.45c-0.15,0.075 -0.375,0.3 -0.45,0.525c-0.075,0.225 -0.3,0.45 -0.525,0.6c-0.15,0.75 -0.45,1.5 -0.75,2.1c-0.686,1.36 -1.437,2.687 -2.25,3.975c-0.375,0.75 -0.675,1.35 -0.825,2.1c-0.305,0.165 -0.543,0.43 -0.675,0.75l-0.15,1.05c0.225,0.15 0.45,0.15 0.75,0.225c0.5,0.021 1,0.021 1.5,0l0.675,0.375l0.975,-0.15c0.375,0 0.675,-0.15 0.9,-0.3c0.748,0.253 1.55,0.305 2.325,0.15l0.75,-0.15c0.3,0 0.45,0.075 0.525,0.225l0.525,0.15l0.225,-0.3c-0,-0.15 0.075,-0.225 0.225,-0.3l-0,-0.075Zm57.675,0c-0,-0.375 -0.15,-0.675 -0.225,-0.75l-0.3,-0.75l-0.15,-1.05c-0,-0.375 -0.15,-0.75 -0.225,-1.05c-0.299,-1.716 -0.674,-3.418 -1.125,-5.1l-0,-0.15c-0.225,-0.225 -0.375,-0.525 -0.45,-0.825c-0.219,-0.644 -0.42,-1.294 -0.6,-1.95c-0.15,-0.3 -0.3,-0.525 -0.6,-0.75l-0.075,0.525l-0,0.45l0.075,0.45c-0.225,0.075 -0.375,0.3 -0.525,0.525c-0.075,0.225 -0.225,0.45 -0.525,0.6c-0.15,0.75 -0.45,1.5 -0.75,2.1c-0.686,1.36 -1.437,2.687 -2.25,3.975c-0.345,0.671 -0.621,1.374 -0.825,2.1c-0.277,0.177 -0.488,0.441 -0.6,0.75c-0.15,0.375 -0.15,0.75 -0.15,1.05c0.15,0.15 0.45,0.15 0.75,0.225c0.5,0.021 1,0.021 1.5,0l0.6,0.375l0.975,-0.15c0.375,0 0.75,-0.15 0.9,-0.3c0.748,0.253 1.55,0.305 2.325,0.15l0.825,-0.15c0.225,0 0.375,0.075 0.525,0.225c0.075,0.075 0.225,0.15 0.525,0.15l0.15,-0.3c-0,-0.15 0.075,-0.225 0.225,-0.3l-0,-0.075Z" style="fill:#e2c049;fill-rule:nonzero;"/><text x="18.14px" y="57.883px" style="font-family:'RedRose-Medium', 'Red Rose';font-weight:500;font-size:19.478px;fill:#292e32;">BUS PLUS</text><path d="M121.947,41.007c-0.299,0.06 -0.597,0.299 -0.597,0.597l-0.06,0.179l-0.179,0.478l0,0.418c0.119,0.119 0.179,0.299 0.179,0.537l0.06,0.777l0.06,0.836l-0,0.179l-0.657,-0l-1.314,0.06l-1.314,0.119c-0.39,0.045 -0.687,0.379 -0.687,0.771c-0,0.127 0.031,0.252 0.09,0.364l0.896,1.254c0.06,0.179 0.179,0.298 0.358,0.418l0.597,0.119l0.478,-0.059c0.239,0.119 0.478,0.119 0.717,-0l0.298,-0.06l0.358,-0.06l0.239,0l0,0.299c-0.047,0.396 -0.047,0.797 0,1.194l0,0.358c-0.066,0.315 -0.066,0.641 0,0.956l0.12,0.418c-0,0.179 0.179,0.358 0.298,0.477l0.836,0.359c0.18,0.06 0.299,0.06 0.478,-0c0.23,-0.058 0.438,-0.182 0.597,-0.359l0.06,-0.179c0.354,0.054 0.702,-0.145 0.836,-0.477c0.179,-0.418 0.239,-0.777 0.239,-1.075l-0,-0.657c-0,-0.239 -0.12,-0.478 -0.299,-0.597l0,-0.956l0.12,0c0.298,0 0.597,-0.06 0.836,-0.179c1.133,0.066 2.27,0.066 3.404,0c0.298,0 0.537,-0.119 0.656,-0.299l0.18,-0.179c0.238,-0.119 0.418,-0.358 0.597,-0.597c0.119,-0.239 0.119,-0.537 -0,-0.776c-0.179,-0.299 -0.418,-0.538 -0.777,-0.657l-0.477,-0.239c-0.179,-0.119 -0.418,-0.119 -0.597,0l-1.075,0c-0.299,-0.119 -0.597,-0.119 -0.896,-0.119l-0.418,-0l-0.12,0.059l-0.119,0l-0.179,0.06c-0.398,0.027 -0.797,0.027 -1.194,0l-0,-1.254c0.001,-0.205 -0.039,-0.408 -0.12,-0.597l0,-0.06c-0.045,-0.117 -0.085,-0.237 -0.119,-0.358l-0,-0.358c-0,-0.18 -0.06,-0.299 -0.179,-0.418c-0.06,-0.06 -0.18,-0.239 -0.418,-0.359c-0.23,-0.138 -0.469,-0.257 -0.717,-0.358l-0.478,-0.119c-0.206,-0.013 -0.412,0.028 -0.597,0.119Zm7.823,5.016c-0.06,0.179 -0.179,0.299 -0.299,0.358l-0.358,0.359c-0.141,-0.01 -0.28,-0.03 -0.418,-0.06l-0.418,-0.06l-0.299,0l-0.298,0.239l-1.135,-0.119l-1.075,-0l-0.716,0.179l-0.717,0.119c-0.041,0.438 -0.081,0.876 -0.119,1.314l-0,0.478c0.059,0.179 0.179,0.298 0.298,0.358l0,0.776c0,0.18 0,0.418 -0.179,0.717l-0.119,-0.06c-0.119,-0.063 -0.267,-0.038 -0.359,0.06l-0.179,0.239l-0.179,0.179c0,0.119 -0.119,0.119 -0.179,0.179l-0.597,-0.298c-0.047,-0.258 -0.087,-0.517 -0.12,-0.777l0.06,-0.477c-0.098,-0.268 -0.139,-0.553 -0.119,-0.836l-0,-0.598c0.026,-0.278 0.026,-0.558 -0,-0.836l-0,-0.298l-0.598,-0c-0.32,0.022 -0.639,0.062 -0.955,0.119l-0.478,0.179c-0.059,-0.119 -0.179,-0.119 -0.358,-0.119c-0.079,-0.008 -0.159,-0.008 -0.239,-0c-0.079,0.008 -0.159,0.008 -0.239,-0l-0.358,-0l-0.358,-0.717l-0.418,-0.597l1.194,-0.179l1.254,0l0.955,-0.119l0.299,-0l0.119,-0.12l0.18,-0.119l-0,-0.717l-0.18,-0.896c-0.044,-0.522 -0.124,-1.041 -0.238,-1.552l0.059,-0.299l0.12,-0.298l0.478,-0.12l0.179,0.06c0.314,0.127 0.614,0.287 0.895,0.478l0,0.537c0.062,0.245 0.142,0.484 0.239,0.717l0,0.836c-0.032,0.297 -0.032,0.598 0,0.895l0,0.359l0.179,0.059l0.06,0.12l0.896,-0.12l1.134,0c0.124,-0.027 0.244,-0.067 0.359,-0.119l0.179,-0l0.717,0.06l0.776,0.059l0.716,-0.059l0.538,0.179l0.358,0.358l0.06,0Z" style="fill:#292e32;fill-rule:nonzero;"/></svg>