<svg xmlns="http://www.w3.org/2000/svg" viewBox="0 0 24 24">
  <path d="M18.38 22h-.01Zm-3.76-7.77 3.5 3.77a106.04 106.04 0 0 1 2.09 2.37l.2.26a5.3 5.3 0 0 0 1.02 1.06c.23.17.4.27.5.3L22 22h-3.62c.02 0 .05 0 .07-.02.07-.04.1-.13.09-.28v-.01a2.4 2.4 0 0 0-.5-.92 13.8 13.8 0 0 0-.78-.96l-.87-1.02-.78-.88L13 15.14a11.12 11.12 0 0 1-5.44.43 8.2 8.2 0 0 1-2.02-.62 5.84 5.84 0 0 1-3.35-4.19A8.76 8.76 0 0 1 2 9.06v-.2c0-.57.05-1.14.15-1.7a6.32 6.32 0 0 1 .78-2.08 5.84 5.84 0 0 1 2.61-2.3c.66-.3 1.36-.52 2.08-.63a11.11 11.11 0 0 1 5.81.62 5.85 5.85 0 0 1 3.34 4.2 8.66 8.66 0 0 1 .2 1.9c0 .56-.05 1.13-.15 1.7a6.34 6.34 0 0 1-.78 2.08 5.79 5.79 0 0 1-1.42 1.58Zm-5.14.17c1.15 0 2.18-.2 3.1-.58a4.69 4.69 0 0 0 2.76-3.24 6.75 6.75 0 0 0 .19-1.72c0-.44-.04-.89-.12-1.33a5.1 5.1 0 0 0-.68-1.8 4.76 4.76 0 0 0-2.16-1.82 7.15 7.15 0 0 0-1.9-.5 9 9 0 0 0-2.98.1c-.44.1-.87.23-1.28.4a4.76 4.76 0 0 0-2.79 3.3 7.71 7.71 0 0 0-.07 3 4.69 4.69 0 0 0 2.86 3.62c.91.38 1.94.57 3.07.57Z"/>
</svg>
